<svg width="60" height="57" viewBox="0 0 60 57" fill="none" xmlns="http://www.w3.org/2000/svg">
<path d="M9.60039 28.2544C9.60039 17.6308 18.7204 9.0415 30.0004 9.0415C41.2804 9.0415 50.4004 17.6308 50.4004 28.2544C50.4004 38.878 41.2804 47.4673 30.0004 47.4673C18.7204 47.4673 9.60039 38.878 9.60039 28.2544ZM48.0004 28.2544C48.0004 18.874 39.9604 11.3018 30.0004 11.3018C20.0404 11.3018 12.0004 18.874 12.0004 28.2544C12.0004 37.6348 20.0404 45.207 30.0004 45.207C39.9604 45.207 48.0004 37.6348 48.0004 28.2544Z" fill="white"/>
<path d="M27.9612 37.6347L37.9213 28.2543L27.9612 18.8739L29.6413 17.2916L41.2812 28.2543L29.6413 39.2169L27.9612 37.6347Z" fill="white"/>
<path d="M39.5996 27.1241V29.3845H19.1996V27.1241H39.5996Z" fill="white"/>
</svg>
