<svg width="178" height="115" viewBox="0 0 178 115" fill="none" xmlns="http://www.w3.org/2000/svg">
<path d="M178 19.2341C177.481 19.0132 176.97 18.7984 176.459 18.5652C176.099 18.4977 175.697 18.4302 175.228 18.3627C174.072 18.4915 172.732 18.2154 171.232 17.9024C170.487 17.7428 169.691 17.5772 168.862 17.4544C168.033 17.3378 167.162 17.2703 166.266 17.2949C168.209 17.123 162.162 16.5891 165.302 16.5216C163.946 16.0307 157.815 15.9939 155.16 15.3065C155.62 15.2697 155.536 15.1654 156.19 15.1961C152.337 14.969 153.643 14.6131 150.821 14.2756L150.838 14.6929C149.715 14.6929 149.464 14.3615 148.484 14.3001C149.23 14.4535 150.796 14.8524 149.908 14.9076C148.593 14.8279 147.479 14.8156 146.08 14.6254C146.097 14.4719 147.094 14.5272 147.764 14.5701C147.764 14.5701 144.749 14.1283 144.589 13.9074C145.703 13.9196 147.102 14.1099 148.107 14.0117C144.171 13.3612 147.822 13.8399 145.98 13.263C146.189 13.533 145.31 13.4778 144.12 13.306C142.948 13.1218 141.457 12.8396 140.385 12.723C140.226 12.502 141.884 12.9009 142.445 12.8457C141.499 12.4775 140.661 12.2443 139.84 12.0786C139.438 11.9988 139.003 11.9313 138.567 11.8699C138.132 11.8086 137.696 11.7656 137.244 11.7165C136.968 11.692 136.7 11.6674 136.415 11.649C134.321 10.3664 132.085 9.40909 130.049 8.61131C129.455 8.36584 128.86 8.14492 128.299 7.91786C127.738 7.69693 127.21 7.46373 126.699 7.24895C125.685 6.81937 124.831 6.34684 124.136 5.84362C121.205 5.11335 117.662 4.44444 113.114 3.44414C113.055 3.59143 112.284 3.45642 111.564 3.33368C110.844 3.22322 110.174 3.14958 110.324 3.37664C112.418 4.00259 114.47 4.33398 116.414 4.68377C117.385 4.86788 118.315 5.06425 119.211 5.29745C120.091 5.54906 120.928 5.84976 121.682 6.23024C123.608 6.69664 123.131 6.25479 124.061 6.37139C124.89 6.62913 125.677 6.9237 126.272 7.16303C126.866 7.40237 127.26 7.61715 127.31 7.74603C125.376 7.15076 125.007 7.24281 124.538 7.26122C124.061 7.27349 123.474 7.23667 121.071 6.48185C121.313 6.6905 122.402 7.10166 123.659 7.5251C124.89 7.97922 126.28 8.44562 127.093 8.80769C126.506 8.74632 126.908 9.08998 127.905 9.60547C126.573 9.36614 123.801 8.5929 122.268 8.35357C122.846 8.38425 121.983 8.00991 122.436 8.06514C122.436 8.06514 122.109 7.9915 121.632 7.88104C121.389 7.8258 121.112 7.76444 120.802 7.69079C120.501 7.62943 120.174 7.56192 119.848 7.49442C119.194 7.36555 118.558 7.2244 118.064 7.13235C117.569 7.04643 117.243 6.98507 117.243 6.98507C115.794 6.38366 115.476 6.05227 116.388 6.11978C115.006 5.70862 113.063 5.322 111.48 5.01516C109.897 4.70832 108.674 4.47512 108.75 4.23579C106.865 3.92281 107.142 4.05782 107.921 4.26647C108.7 4.4874 109.964 4.83719 110.098 4.92924L109.772 4.88629C109.772 4.88629 110.76 5.06425 111.732 5.27904C112.217 5.38337 112.703 5.48769 113.072 5.56133C113.256 5.59815 113.407 5.63497 113.507 5.65952C113.616 5.68407 113.675 5.69634 113.675 5.69634C113.725 5.8559 113.482 5.84976 113.072 5.78226C112.661 5.71475 112.083 5.56747 111.472 5.41405C110.869 5.25449 110.216 5.10721 109.671 5.0213C109.127 4.93538 108.691 4.89856 108.49 4.99675C108.021 5.40791 106.681 5.0888 105.081 4.63468C104.286 4.41989 103.423 4.16215 102.577 3.95963C101.731 3.76326 100.91 3.59756 100.198 3.54847C100.198 3.54847 101.044 3.48096 101.899 3.41346C102.326 3.37664 102.753 3.34595 103.08 3.32141C103.398 3.303 103.616 3.29072 103.616 3.29072C103.616 3.29072 103.44 3.27231 103.172 3.24777C102.904 3.22322 102.544 3.19867 102.183 3.16799C101.463 3.11276 100.751 3.05752 100.751 3.05752C102.443 3.00843 102.552 2.51135 105.148 2.62181C104.168 2.46226 103.088 2.27202 101.966 2.1186C100.852 1.94063 99.6957 1.79335 98.5818 1.6522C97.4678 1.50492 96.3957 1.41287 95.4409 1.32082C94.4861 1.24104 93.6401 1.20422 92.9952 1.19194C92.0236 0.878968 91.5881 0.64577 92.0655 0.424846C87.9782 0.664181 85.7502 -0.0354125 82.2157 0.00140814C78.5053 0.320521 85.9596 0.314384 83.2543 0.701001C82.6931 0.621223 81.9058 0.621223 81.1352 0.658044C80.5322 0.694864 79.9375 0.756232 79.4685 0.79919C79.7281 0.774642 80.038 0.762369 80.4066 0.756232C80.6913 0.756232 81.0012 0.743959 81.3363 0.750095C81.6713 0.750095 82.0231 0.762369 82.3832 0.768506C83.849 0.793053 85.4989 0.903515 86.8474 0.977156C84.8289 0.952609 85.0551 1.30241 84.4939 1.44355C84.4939 1.44355 85.3315 1.4681 86.169 1.49265C86.5878 1.50492 87.0066 1.51719 87.3165 1.5356C87.6264 1.54788 87.8358 1.56015 87.8358 1.56015C87.6013 1.96518 83.7317 1.52947 82.1906 1.79335C83.1622 1.39446 82.6177 1.38832 83.6061 0.98943C82.8774 1.03852 82.0649 1.07534 81.2106 1.11217C80.3563 1.15512 79.4601 1.19194 78.5807 1.21649C77.7012 1.25331 76.8385 1.284 76.0344 1.29627C75.2304 1.30854 74.4933 1.32695 73.8735 1.30854C72.3994 1.25945 75.0712 1.02625 75.8418 0.866694C75.1382 0.651907 72.9606 1.22263 72.3492 0.958746C72.7596 0.670317 74.1332 0.79919 75.1382 0.651907C75.1382 0.651907 74.6022 0.682591 73.8065 0.731685C73.0024 0.768506 71.9388 0.854421 70.8667 0.940336C69.7946 1.00784 68.7476 1.14899 67.9519 1.22876C67.1562 1.31468 66.6285 1.36991 66.6285 1.36991C66.595 1.21649 68.6973 0.909652 70.0458 0.811463C68.7392 0.872831 67.6253 0.98943 66.4694 1.19194C65.322 1.40673 64.1242 1.67675 62.7171 2.19224C61.2681 2.34566 59.7019 2.49908 58.6047 2.56658C57.5158 2.64636 56.9044 2.67091 57.3483 2.45612C56.0752 2.81205 56.9965 2.77523 57.0635 2.92252C55.1455 3.26004 54.1237 3.58529 53.3112 3.88599C52.4988 4.18056 51.9041 4.49353 50.7818 4.76355L52.5909 4.63468C48.8637 5.2054 51.9544 5.29131 48.6795 5.83135C49.0647 5.42632 48.7046 5.14403 48.0178 4.96606C47.6157 5.36495 45.5051 5.68407 44.1315 6.05227C45.1198 6.10137 41.3424 7.11394 43.6876 6.78869C42.9254 7.05257 42.2721 7.2919 41.669 7.47601C41.066 7.66625 40.5216 7.81967 40.0023 7.96695C39.483 8.11423 38.9888 8.26152 38.503 8.43335C38.0089 8.60518 37.5398 8.83224 37.0373 9.10839C38.4946 8.7095 34.6083 10.2928 35.9484 10.0719C35.2281 10.3296 34.5413 10.5383 33.9383 10.7162C33.3436 10.9003 32.8243 11.0415 32.4055 11.1274C31.5763 11.2992 31.1659 11.2563 31.4507 10.9678C32.4641 10.6119 34.1309 10.1271 33.8713 9.94913C33.8713 9.94913 33.7875 9.97981 33.6451 10.0289C33.5027 10.0841 33.3017 10.1639 33.0504 10.2621C32.5646 10.4523 31.9114 10.7101 31.2581 10.9617C30.6047 11.2133 29.9598 11.4711 29.4656 11.6674C28.9882 11.8699 28.6616 12.005 28.6616 12.005C27.288 12.3916 25.5877 13.0052 25.1438 12.7905C24.4654 13.3121 23.2258 13.7846 22.028 14.2387C21.7265 14.3553 21.4334 14.4658 21.1486 14.5763C20.8722 14.6929 20.6126 14.8156 20.3697 14.9322C19.8839 15.1654 19.4986 15.4047 19.2808 15.6502C20.0179 15.1286 20.7884 14.7911 21.4669 14.5701C22.1537 14.3492 22.7316 14.2265 23.0834 14.1037L22.3463 14.5026C22.4636 14.4535 22.5892 14.4044 22.7651 14.3369C22.7651 14.3369 22.3296 14.7051 21.8857 15.0733C21.6679 15.2513 21.4585 15.4477 21.291 15.5888C21.1319 15.73 21.023 15.8282 21.023 15.8282C22.1369 15.4477 22.1621 15.3311 22.2709 15.1286C22.3798 14.9322 22.5809 14.6622 24.0633 14.0117C25.5458 13.6864 24.2392 14.5149 22.941 15.3004C22.2877 15.6932 21.6511 16.092 21.3496 16.3375C21.0565 16.5769 21.09 16.6566 21.8103 16.4296C24.0885 15.6011 23.3263 15.325 24.9847 14.3553L24.5073 14.5517C24.5073 14.5517 24.7501 14.429 25.1187 14.2387C25.3029 14.1406 25.5123 14.0362 25.7468 13.9196C25.9814 13.8092 26.2327 13.6864 26.4755 13.5637C27.4723 13.085 28.4773 12.6064 28.4773 12.6064C28.7956 12.6923 27.6481 13.3489 27.6481 13.3489C30.1441 12.2995 31.6936 11.8331 33.2598 11.3299C33.6535 11.2072 34.0471 11.0722 34.4659 10.9494C34.8847 10.8206 35.3286 10.6917 35.8144 10.5505C36.2918 10.4033 36.8111 10.2376 37.3891 10.0596C37.6738 9.96754 37.9753 9.86935 38.2936 9.77116C38.6119 9.66684 38.9469 9.56251 39.3071 9.45819C39.0809 9.48887 38.6035 9.45819 38.503 9.31091C38.3941 9.15749 38.6538 8.88747 39.9018 8.45176C41.6607 7.75216 42.0543 7.9915 43.6038 7.5742C42.716 7.89945 42.0794 8.47017 40.7393 8.642L41.0576 8.99179C40.0609 9.43364 39.4746 9.74662 39.0558 9.99209C38.6454 10.256 38.4109 10.4462 38.1261 10.6426C37.833 10.8451 37.4979 11.0476 36.8865 11.3299C36.585 11.4711 36.2081 11.6306 35.7307 11.827C35.4961 11.919 35.2365 12.0234 34.9517 12.14C34.667 12.2566 34.3654 12.3854 34.022 12.5266C33.9885 12.7107 33.0002 13.2139 31.6433 13.803C30.9565 14.0853 30.2111 14.4413 29.4322 14.7665C28.6532 15.0979 27.8492 15.4109 27.1037 15.6993L28.7118 15.3495C27.3717 16.1902 27.1707 16.1657 26.8441 16.178C26.5174 16.1841 26.0819 16.2332 24.323 17.258C23.3263 17.3624 22.0197 17.6508 21.1653 17.7122C20.311 17.7797 19.9174 17.6385 20.8136 16.9512C20.1184 17.2396 19.5488 17.4974 19.0463 17.7367C18.5521 17.9822 18.1417 18.2215 17.7313 18.4547C16.9189 18.9272 16.1399 19.3752 14.9673 19.9828C13.1749 20.3571 15.3191 19.2157 14.6993 18.9886C13.0074 19.9153 10.9889 21.1856 12.463 20.7315L9.07924 22.2902C8.9201 22.2595 10.0759 21.6458 10.5366 21.4188C9.19649 22.0018 6.96857 23.4685 6.39065 23.984C6.63354 23.8244 7.38735 23.3335 7.79776 23.2046C6.55816 24.0146 4.33022 25.4813 4.25484 25.6716C6.03048 24.4381 6.60841 24.7449 8.42593 23.4194C8.35055 23.6096 8.19142 23.9901 7.06908 24.5179C8.97873 23.8244 10.6287 22.8793 11.5836 22.7566C9.96705 23.3212 9.32213 24.0821 9.05411 24.2785C10.4026 23.6587 12.8902 22.2534 13.6524 21.7011C13.9455 21.8606 15.1851 21.1979 16.1902 20.6639C17.1115 20.1791 17.8402 19.8048 17.4549 20.2282C17.9323 19.8539 19.4902 19.0807 20.445 18.7615C20.5037 18.9702 18.0747 20.3264 17.1869 21.0628C12.3709 23.8183 16.9859 20.713 15.696 21.1794C15.696 21.1794 14.7412 21.6765 13.7948 22.1736C12.8483 22.6768 11.9018 23.1862 11.9018 23.1862C12.3457 23.045 10.6622 24.2724 13.1163 22.9468C12.664 23.3764 11.8851 23.9471 10.947 24.524C10.0089 25.107 8.92847 25.6777 7.84801 26.1073C7.51298 26.4693 8.92848 25.6777 9.37239 25.4568C9.04574 25.8127 7.07744 27.5187 10.2518 25.9232C9.34725 26.3773 11.5668 24.9229 9.83304 25.6409C11.0308 24.9167 14.5653 23.3273 13.4513 24.254C13.8115 24.0392 14.247 23.7753 14.7244 23.4869C15.2019 23.2046 15.7044 22.9039 16.207 22.6032C16.7095 22.3086 17.2037 22.014 17.6476 21.7502C18.0915 21.4986 18.4935 21.2776 18.795 21.1058C19.3311 21.1242 17.79 21.7072 17.2539 22.1245C17.2539 22.1245 17.5219 21.9772 17.924 21.7624C18.326 21.5476 18.862 21.2654 19.3981 20.9831C19.9341 20.7008 20.4702 20.4123 20.8722 20.2037C21.2826 19.995 21.5506 19.86 21.5506 19.86C21.5506 19.86 21.1821 19.9582 20.822 20.0503C20.4618 20.1546 20.0933 20.2528 20.0933 20.2528C20.9308 19.8907 21.6846 19.5532 22.3547 19.1911C23.0248 18.8352 23.6278 18.4793 24.2141 18.1233C25.3867 17.436 26.4504 16.7303 27.7319 16.0675C27.6816 16.313 27.1121 16.6996 26.3499 17.1292C25.5877 17.5649 24.6329 18.0435 23.8456 18.5345C25.8557 18.1908 24.7669 17.8288 27.5895 16.6628C28.0083 16.5584 28.1758 16.6075 28.0753 16.7916L30.0771 15.5643C30.6299 15.3802 30.5377 15.4906 30.3367 15.6134C31.9449 14.7113 31.8527 14.6069 31.9197 14.4597C31.9951 14.3124 32.2548 14.1221 34.8428 13.0421C31.5428 14.0792 32.2966 14.2817 29.6583 15.3372C28.804 15.5213 29.4656 15.104 30.4288 14.5701C30.6717 14.4413 30.9314 14.3001 31.191 14.1651C31.4507 14.0362 31.7103 13.9074 31.9616 13.7846C32.4474 13.5453 32.8578 13.3366 33.0253 13.2262C35.6804 12.3118 36.3505 12.7782 39.483 11.3299C37.2551 12.3179 39.6002 11.7043 36.2918 12.858C34.5664 13.6803 37.3807 12.68 37.9 12.7598C38.7292 12.3916 37.0708 12.5757 39.5416 11.7902L39.4746 11.8761C39.4746 11.8761 39.7091 11.7656 40.0609 11.5999C40.421 11.4465 40.8985 11.2379 41.3675 11.0292C42.3307 10.6119 43.2855 10.2007 43.2855 10.2007C43.7797 10.0841 44.2571 9.92458 44.768 9.79571C45.2789 9.6607 45.7815 9.51342 46.2924 9.35386C47.3142 9.04702 48.3361 8.70336 49.3328 8.39653C50.3378 8.11423 51.3094 7.83808 52.214 7.63556C52.6663 7.53124 53.0935 7.43919 53.5039 7.37168C53.9143 7.29804 54.2996 7.25508 54.6597 7.24281C54.6597 7.24281 54.4587 7.17531 54.2577 7.10166C54.065 7.02802 53.864 6.96666 53.864 6.96666C55.1036 6.6905 56.6196 6.38366 58.0351 6.07682C58.3869 6.00318 58.7387 5.92954 59.0737 5.8559C59.4087 5.78226 59.7438 5.73316 60.0537 5.67179C60.6818 5.5552 61.2346 5.45087 61.6785 5.35882C61.5027 5.5061 61.0001 5.65952 60.3133 5.81908C59.9699 5.89885 59.5846 5.9725 59.1742 6.07068C58.7638 6.16887 58.3366 6.27934 57.9011 6.38366C58.4706 6.28547 59.0151 6.16887 59.5679 6.07068C60.1123 5.98477 60.6567 5.88658 61.1844 5.79453C62.2397 5.60429 63.2532 5.40791 64.2164 5.19926C64.6938 5.0888 65.1712 5.00289 65.6319 4.91697C66.0925 4.83106 66.5448 4.74514 66.9803 4.65309C67.8514 4.47512 68.6722 4.29716 69.426 4.11919C67.106 4.09464 66.7793 4.16215 64.5681 4.22351C66.0004 3.75098 66.9217 3.72643 67.9519 3.73257C68.9821 3.75098 70.1129 3.73871 72.0393 3.43801C72.2151 3.8369 70.9169 3.89213 71.9471 4.19897C72.3408 4.09464 72.8014 3.99645 73.2956 3.91667C73.7981 3.84303 74.3426 3.77553 74.8954 3.71416C75.9926 3.57301 77.1317 3.4871 78.0362 3.30913C78.5472 3.48096 78.3713 3.67734 77.5756 3.85531C77.1819 3.94736 76.6291 4.03327 75.9256 4.11305C75.2304 4.21124 74.3844 4.29716 73.3961 4.37693C72.6339 4.35852 71.855 4.40148 71.0844 4.47512C70.6991 4.51194 70.3139 4.56104 69.937 4.6224C69.56 4.68377 69.1831 4.74514 68.8062 4.80651C67.3154 5.05812 65.8915 5.29131 64.6268 5.29131C64.6268 5.29131 64.7273 5.29131 64.8697 5.29131C65.0121 5.29745 65.2047 5.30359 65.4057 5.31586C65.791 5.32813 66.1846 5.34654 66.1846 5.34654C65.4476 5.46314 64.7775 5.56133 64.1661 5.68407C63.5463 5.79453 62.9767 5.89886 62.4156 5.99704C61.8544 6.09523 61.31 6.19956 60.7488 6.31002C60.1877 6.42662 59.6097 6.53094 59.0151 6.71505L59.0988 6.63527L58.0016 7.27963L59.3417 7.01575C58.4874 7.42691 55.8658 8.33516 55.0534 8.50699C59.1323 7.64784 59.191 6.91142 61.0755 6.25479C62.0219 6.10751 62.8428 6.02773 63.5631 5.97863C64.2918 5.93568 64.9283 5.89885 65.5313 5.90499C66.7291 5.90499 67.7509 5.87431 68.9737 5.54292C69.225 5.70861 71.3692 5.65338 69.7192 6.04C67.6588 6.40207 66.126 6.33457 65.9836 6.62913C68.1781 6.35298 67.3824 6.61686 70.7075 6.16274C71.2687 5.7393 73.7228 5.15017 76.1266 4.70832C78.6644 4.35239 81.9979 4.27874 84.0332 4.37693C81.4619 4.42603 78.9324 4.88015 79.5941 5.11948C81.0599 4.6715 84.586 5.322 83.8238 4.81264C84.5693 4.82492 85.4403 4.83719 86.3282 4.84947C87.216 4.87401 88.1289 4.92311 88.9581 4.9722C90.6081 5.09494 91.9231 5.2729 92.0571 5.5061C89.268 5.51224 86.5794 5.18085 84.2091 5.2729C84.8624 5.28518 85.499 5.40791 85.1137 5.5061C85.1137 5.5061 84.8959 5.5061 84.5693 5.49383C84.2426 5.48155 83.8071 5.48155 83.3716 5.48155C82.5005 5.48155 81.6294 5.48155 81.6294 5.48155C82.9528 5.57361 83.4804 5.65338 84.0919 5.70248C84.7116 5.76998 85.4152 5.78226 87.0904 5.78839C86.881 5.74544 86.4622 5.65952 86.7805 5.64725C87.618 5.65952 88.6734 5.70248 89.5109 5.72703L89.5863 6.14433C90.2145 6.12592 90.9767 6.1566 91.8477 6.21797C92.7104 6.29775 93.682 6.3898 94.7122 6.5064C95.7424 6.623 96.8313 6.75187 97.9452 6.88074C98.5064 6.94825 99.0759 6.99734 99.6371 7.05257C100.207 7.11394 100.776 7.16303 101.346 7.19985L100.919 7.23054C101.806 7.36555 102.502 7.43919 103.105 7.46987C103.708 7.50056 104.235 7.46987 104.763 7.46373C105.818 7.44532 106.949 7.39009 108.884 7.73989C107.703 7.70307 108.155 7.97309 108.281 8.19401C109.269 8.27379 109.981 8.47017 110.676 8.70336C111.02 8.81996 111.363 8.9427 111.74 9.07157C112.109 9.20658 112.502 9.34773 112.954 9.48887C110.886 8.72791 114.613 9.43978 113.088 8.92429C113.105 8.81996 113.365 8.80155 113.767 8.84451C113.968 8.86292 114.211 8.89974 114.479 8.9427C114.738 8.99179 115.032 9.0593 115.333 9.1268C115.936 9.27408 116.606 9.43364 117.234 9.62388C117.569 9.72207 117.888 9.82026 118.189 9.91231C117.678 9.91231 117.243 9.92458 117 9.99209C116.841 9.95527 116.682 9.91845 116.523 9.88163C115.258 9.61774 114.211 9.40296 115.249 9.943C114.537 9.85708 113.851 9.78957 113.851 9.78957C112.552 9.93686 112.728 10.1639 112.586 10.3542C112.452 10.5505 112.008 10.6978 109.487 10.7715C107.184 10.7162 107.284 10.5199 107.619 10.2744C107.954 10.035 108.532 9.7773 107.175 9.68525L106.061 10.0105C106.061 10.0105 105.492 9.97368 104.922 9.94913L103.783 9.90004L104.126 9.85708C102.778 10.0044 100.307 10.0657 100.282 9.91231C100.491 9.7773 101.957 9.69139 102.158 9.56251C101.605 9.6607 100.768 9.69752 99.7795 9.70979C98.7912 9.72821 97.6688 9.74048 96.5381 9.75889C95.4074 9.78957 94.2767 9.85094 93.2967 9.94913C92.3084 10.0596 91.4708 10.2376 90.9181 10.4892C89.5696 10.4769 86.8475 10.7899 87.1406 10.4953C86.5794 10.7408 85.0802 10.8881 83.5139 11.0476C82.7266 11.1335 81.9309 11.2133 81.2106 11.3054C80.4987 11.3974 79.8705 11.514 79.4434 11.6306C79.6444 11.4772 77.9106 11.5324 76.604 11.8515C78.4299 11.6858 77.3494 12.005 76.1936 12.3916C75.3728 12.3916 73.8735 12.6493 72.4832 12.8641C71.0928 13.0912 69.8113 13.2937 69.4009 13.1525C67.0641 13.8767 68.0608 13.981 67.6504 14.386C66.8296 14.4167 65.2047 14.742 63.8562 14.9629C62.5161 15.2084 61.4608 15.3556 61.7874 15.0181C63.1275 14.7358 66.1176 14.159 65.4308 13.981C62.8427 14.386 64.3839 14.3431 62.3486 14.8954C62.4658 14.7726 60.8075 14.9629 61.1425 14.7297C59.9448 15.0918 58.2361 15.5275 56.4689 15.9632C59.2747 15.3925 54.911 16.7732 56.628 16.4848C56.628 16.4848 57.231 16.2148 57.8341 15.9509C58.1356 15.8159 58.4371 15.6809 58.6716 15.595C58.8978 15.4968 59.0486 15.4354 59.0486 15.4354C62.1978 14.5763 59.8359 15.5091 61.0838 15.3065C59.7186 15.6993 58.7638 15.9877 58.0518 16.27C57.3315 16.5462 56.829 16.7671 56.3432 17.0003C55.8574 17.2274 55.3968 17.4728 54.7351 17.7613C54.4084 17.9085 54.0315 18.0558 53.5876 18.2461C53.1437 18.4302 52.6328 18.6449 52.013 18.8781C51.5188 18.9947 50.8404 19.185 50.2122 19.363C49.5841 19.5409 49.0145 19.7066 48.7632 19.8048C50.3881 19.1666 49.8186 18.8904 48.7967 19.1666C47.5655 19.86 46.3175 20.2651 45.1114 20.6394C44.5 20.8174 43.9053 20.9892 43.3106 21.161C42.9337 21.2776 42.5736 21.4065 42.2134 21.5292C43.3442 21.1917 42.6741 21.744 42.1464 22.0815C41.0576 22.6216 40.4211 22.9591 40.0023 23.1371C39.5919 23.315 39.4327 23.3457 39.3322 23.3335C39.1396 23.3028 39.2066 23.0757 38.168 23.4439C34.7591 25.0824 31.9365 26.408 29.3651 27.7642C26.8022 29.1204 24.4654 30.4889 22.1872 32.2809C22.1872 32.2809 22.8572 31.9618 23.5357 31.6427C23.8707 31.4831 24.2057 31.3297 24.457 31.2131C24.7083 31.0903 24.8758 31.0167 24.8758 31.0167L25.3113 30.2251C26.375 29.7525 26.4755 29.9735 26.2159 30.4153C25.9646 30.8633 25.3364 31.5138 24.9512 31.9556C24.7585 31.9924 23.9461 32.5263 23.2928 32.9314C22.6562 33.3425 22.1956 33.6371 22.6646 33.1462C22.6646 33.1462 22.0029 33.6801 21.3496 34.214C21.0146 34.4778 20.7047 34.7601 20.4702 34.9688C20.2357 35.1774 20.0765 35.3125 20.0765 35.3125C20.3613 35.2143 20.9225 34.8154 21.2742 34.5822C21.6428 34.3551 21.7852 34.2815 21.2324 34.8215C20.7298 35.1222 19.7582 35.7911 19.1217 36.2084C18.4935 36.6319 18.1668 36.7914 18.8872 36.012C18.192 36.5828 17.4214 37.2517 16.9356 37.7794C16.4498 38.3133 16.1986 38.6815 16.4582 38.6202C14.3727 40.5471 16.1399 38.117 16.9524 37.1596C15.2186 38.657 15.0846 38.2642 15.4866 37.7242C15.4866 37.7242 15.3359 37.8592 15.1181 38.0617C14.9087 38.2704 14.5988 38.5281 14.3224 38.8104C13.7696 39.3689 13.2084 39.9273 13.2084 39.9273C13.5853 39.3811 13.4178 39.2891 13.7948 38.7429C12.9656 39.4302 12.3793 40.093 11.86 40.7435C11.3323 41.3879 10.7879 41.9831 10.0424 42.5661L9.90842 43.3332C9.3975 43.8426 8.99548 44.3028 8.63533 44.7079C8.27517 45.1129 7.9569 45.4566 7.69725 45.7695C7.17796 46.4078 6.7843 46.8926 6.40739 47.3712C5.70383 48.3408 5.02541 49.2859 3.79418 51.5013L4.51451 50.8508C4.1711 51.7161 3.95332 52.3113 3.71042 52.7716C3.4759 53.2318 3.21625 53.551 2.97336 53.9253C2.73046 54.2935 2.45407 54.7047 2.14417 55.3122C2.06879 55.4656 1.97665 55.6313 1.90127 55.8093C1.82589 55.9934 1.75052 56.1898 1.67514 56.4046C1.516 56.8341 1.35687 57.3435 1.18936 57.9388C1.05535 58.6199 0.929701 59.2336 0.837568 59.7737C0.728684 60.3137 0.711922 60.7801 0.69517 61.1544C0.678419 61.897 0.770554 62.2591 1.0637 62.1056C1.02182 62.4922 1.00508 62.8052 0.963198 63.0691C0.92132 63.333 0.862688 63.5416 0.804058 63.7196C0.670047 64.0817 0.510919 64.3394 0.368532 64.6831C0.452289 65.2968 0.594681 66.2602 0.661686 67.2974C0.720316 67.819 0.762198 68.3529 0.770574 68.8806C0.770574 69.1445 0.770558 69.4084 0.753806 69.66C0.753806 69.9116 0.737065 70.1632 0.711938 70.4026C0.653308 70.0835 0.586301 69.7766 0.552798 69.4759C0.519295 69.1814 0.485797 68.8929 0.452294 68.6045C0.427167 68.3161 0.393659 68.0338 0.368532 67.7453C0.343405 67.4569 0.318288 67.1685 0.326664 66.8616C0.0251393 67.0273 0.00837568 68.0767 0 69.3286C0 69.9546 0.0753771 70.6296 0.100504 71.2679C0.117255 71.5931 0.125647 71.9061 0.142398 72.2006C0.167525 72.4952 0.175882 72.7714 0.175882 73.023C0.27639 73.3605 0.427169 73.9005 0.611434 74.5449C0.820826 75.2015 1.07208 75.9809 1.38198 76.7664C1.98503 78.3436 2.79747 79.9943 3.45078 81.1481C3.45915 80.5651 3.66855 80.3503 4.00358 80.5405C4.33023 80.7308 4.82439 81.3076 5.44419 82.3079C5.22643 82.179 5.41906 82.9032 5.77922 83.8421C5.96348 84.3085 6.1645 84.8301 6.38227 85.3272C6.59166 85.8243 6.79269 86.2968 6.94345 86.6589C6.60842 86.3521 6.8597 87.1928 7.00208 87.7512C7.07747 88.0274 7.11933 88.2299 7.01883 88.1808C6.91832 88.1317 6.65029 87.831 6.20638 87.0823C6.03049 86.6221 5.98862 86.26 5.92161 85.8672C5.84623 85.4745 5.68708 85.0633 5.33531 84.4742C5.36881 85.2781 5.95511 87.3217 7.01044 89.402C6.95181 89.3775 6.84292 89.2977 6.71729 89.175C6.59165 89.0522 6.44928 88.8866 6.28176 88.6963C5.95511 88.3036 5.58657 87.7942 5.3018 87.2664C5.75408 87.8003 5.66197 87.4383 5.73735 87.3155C5.11755 86.4196 4.83277 86.0207 4.69039 85.9348C4.53963 85.8488 4.55636 86.0759 4.62337 86.4011C4.75738 87.0516 5.15941 88.1072 4.80763 87.8863C4.97515 88.1317 5.18455 88.4508 5.39394 88.7699C5.61171 89.0891 5.80436 89.4143 6.00538 89.6782C6.31528 90.0955 6.53304 90.341 6.49954 90.1385C6.86807 91.2063 7.99879 92.5502 9.35565 93.8451L9.90006 94.3667C10.1011 94.5385 10.2937 94.7104 10.4863 94.8761C10.679 95.0479 10.8716 95.2136 11.0559 95.3793C11.2402 95.5388 11.4244 95.6738 11.6003 95.8211C12.3039 96.3918 12.9153 96.9441 13.3257 97.4596C13.4765 97.4903 12.4546 96.355 14.0544 97.4596C15.2354 98.2758 15.7212 98.6993 16.0143 99.0184C16.1651 99.1779 16.2656 99.3129 16.3744 99.4541C16.4917 99.5952 16.6174 99.7486 16.8435 99.9266C17.2874 100.098 18.46 100.743 19.4735 101.326C19.7247 101.473 19.976 101.608 20.2021 101.725C20.4283 101.847 20.6293 101.952 20.7968 102.038C21.1235 102.216 21.291 102.32 21.1737 102.283C22.0867 102.7 21.7517 102.332 21.5171 102.001C21.2826 101.669 21.1486 101.381 22.4217 101.933C22.8991 102.074 23.3682 102.271 23.8456 102.498C24.3314 102.707 24.8255 102.952 25.3197 103.204C25.8139 103.461 26.308 103.725 26.8022 103.983C27.2964 104.241 27.8324 104.449 28.3433 104.652C29.4489 105.29 28.8124 105.075 27.7738 104.652C27.5141 104.541 27.221 104.425 26.9362 104.308C26.6514 104.179 26.3583 104.044 26.0902 103.916C25.5458 103.664 25.06 103.449 24.7836 103.357C24.7836 103.357 25.2024 103.553 25.839 103.842C26.1573 103.983 26.5258 104.155 26.9195 104.333C27.3215 104.499 27.757 104.676 28.1925 104.848C29.0552 105.198 29.9179 105.554 30.5712 105.806C31.2329 106.045 31.6768 106.198 31.6768 106.198C32.64 106.689 32.3469 106.683 31.5596 106.45C31.1659 106.333 30.6466 106.168 30.1022 105.959C29.5662 105.744 29.005 105.499 28.5108 105.272C28.8291 105.444 29.1641 105.622 29.5159 105.787C29.8677 105.959 30.2195 106.131 30.588 106.272C31.325 106.567 32.0789 106.837 32.774 107.07C33.1258 107.186 33.4608 107.291 33.7791 107.383C34.0974 107.475 34.3989 107.536 34.6753 107.598C35.2197 107.714 35.6469 107.776 35.9065 107.776C36.3421 107.941 36.7358 108.089 37.0959 108.211C37.4561 108.346 37.7995 108.457 38.1429 108.561C38.8213 108.776 39.483 108.985 40.3038 109.304C39.4076 109.132 38.905 109.187 38.2852 109.193C37.9753 109.193 37.6403 109.193 37.2048 109.126C36.7776 109.058 36.25 108.942 35.5799 108.733C31.2329 107.211 37.4058 108.88 33.754 107.542L33.2347 107.726C32.5144 107.34 31.8108 107.088 31.0654 106.849C30.6885 106.732 30.32 106.616 29.9263 106.487C29.541 106.352 29.1474 106.205 28.737 106.033C27.8826 105.566 29.0217 106.014 29.6583 106.235C26.6766 105.002 24.5407 103.768 22.1369 102.946C22.3547 103.087 22.5808 103.234 22.8154 103.382C23.0499 103.529 23.3095 103.658 23.5692 103.799C24.0885 104.075 24.6329 104.357 25.1857 104.634C26.2829 105.21 27.489 105.683 28.5946 106.168C29.7002 106.659 30.7806 107.051 31.6601 107.413C32.5395 107.769 33.2263 108.101 33.6284 108.34C33.6284 108.34 34.1644 108.494 34.9769 108.721C35.3789 108.831 35.8479 108.966 36.3505 109.107C36.6017 109.175 36.8614 109.248 37.1294 109.322C37.3974 109.39 37.6654 109.451 37.9418 109.518C39.0307 109.776 40.1112 110.04 40.9236 110.236C41.7444 110.414 42.2972 110.519 42.2972 110.519C42.3307 110.445 41.6355 110.157 41.2502 109.936C41.0576 109.819 40.9487 109.721 41.0325 109.684C41.1246 109.647 41.4094 109.672 42.0376 109.77C42.4396 110.083 43.2437 110.445 44.366 110.85C44.9272 111.059 45.5721 111.243 46.2924 111.433C47.0043 111.623 47.7916 111.826 48.6208 112.028C47.532 111.39 54.1655 112.673 52.5742 112.016C50.9325 111.936 50.2625 111.439 50.0615 111.366C53.3112 111.942 50.631 111.065 52.415 111.366C53.1437 111.525 53.6965 111.611 54.1069 111.691C54.5173 111.764 54.7854 111.826 54.9529 111.869C55.2963 111.955 55.2544 111.985 55.2125 112.016C55.1623 112.047 55.112 112.084 55.4386 112.169C55.6062 112.219 55.8574 112.274 56.2595 112.354C56.6615 112.44 57.2059 112.525 57.943 112.63C57.6163 112.642 57.164 112.654 56.6196 112.654C56.0836 112.642 55.4387 112.63 54.7435 112.599C54.0399 112.568 53.2694 112.544 52.4653 112.47C51.6696 112.397 50.8404 112.298 50.0112 112.194C50.0866 112.311 50.9074 112.458 51.8706 112.63C52.1135 112.673 52.3648 112.722 52.6077 112.765C52.8589 112.808 53.1102 112.851 53.3531 112.894C53.7551 112.967 54.132 113.047 54.4419 113.133C52.9511 112.679 56.0333 112.98 54.5173 112.648C55.1204 112.716 55.7402 112.777 56.3683 112.851C56.9965 112.918 57.6498 112.943 58.3031 112.992C58.9564 113.035 59.6181 113.072 60.2965 113.115C60.975 113.151 61.6618 113.158 62.357 113.182C63.0522 113.2 63.7473 113.219 64.4593 113.237H66.6118C68.0692 113.256 69.4679 113.219 70.9002 113.219C70.4395 113.526 68.0608 113.636 65.858 113.648C65.3136 113.655 64.7943 113.673 64.3252 113.685C63.8646 113.685 63.4625 113.698 63.1526 113.728C62.5412 113.777 62.2983 113.894 62.7422 114.121C63.4793 114.152 64.0321 114.17 64.4844 114.152C64.9367 114.133 65.2968 114.096 65.6235 114.072C66.2935 114.017 66.8798 113.974 68.0524 114.047C69.9537 114.471 74.7111 114.225 78.5639 114.133L76.8553 113.955C77.584 113.863 78.6225 113.857 79.6946 113.845C80.7667 113.833 81.8723 113.845 82.7266 113.845L82.2911 113.943C82.2911 113.943 82.7099 113.9 83.1203 113.863C83.5391 113.814 83.9578 113.765 83.9578 113.765C84.2175 113.771 84.2845 113.79 84.2761 113.814C86.1104 113.563 90.8343 113.507 94.3437 113.108C94.3186 112.955 93.4475 113.01 92.367 113.121C91.831 113.182 91.2363 113.243 90.6751 113.305C90.114 113.354 89.5779 113.397 89.1591 113.409C88.9246 113.391 87.9866 113.391 87.3081 113.36C86.6297 113.329 86.2025 113.256 86.9815 113.115C88.0703 113.053 89.0838 112.973 90.0553 112.881C91.0269 112.795 91.965 112.667 92.9198 112.556C93.3972 112.501 93.8747 112.44 94.3688 112.378C94.863 112.317 95.3572 112.249 95.8848 112.182C96.4041 112.114 96.9401 112.053 97.5013 111.992C98.0625 111.936 98.6488 111.869 99.2602 111.801C99.2602 111.801 98.8665 111.82 98.4729 111.838C98.0792 111.857 97.6856 111.869 97.6856 111.869C98.4478 111.697 99.3607 111.55 100.374 111.439C100.885 111.384 101.413 111.329 101.966 111.267C102.518 111.206 103.088 111.132 103.666 111.053C107.954 110.703 100.659 111.893 103.272 111.734C102.468 111.992 101.321 112.108 100.324 112.225C99.3272 112.341 98.4981 112.458 98.3054 112.673C98.3054 112.673 98.4813 112.685 98.7409 112.697C99.0006 112.71 99.344 112.728 99.6957 112.74C100.391 112.771 101.094 112.802 101.094 112.802C102.2 112.556 103.389 112.427 104.503 112.335C105.065 112.292 105.601 112.249 106.095 112.212C106.589 112.169 107.041 112.108 107.435 112.028C107.435 112.028 106.999 112.047 106.564 112.065C106.346 112.077 106.128 112.084 105.961 112.084C105.802 112.084 105.693 112.09 105.693 112.09C105.944 111.728 107.569 111.722 108.373 111.648L107.108 111.341C105.877 111.501 104.864 111.703 103.925 111.893C102.987 112.084 102.133 112.237 101.203 112.188C102.292 112.034 103.029 111.875 103.616 111.734C104.202 111.593 104.629 111.476 105.09 111.353C106.011 111.12 107.024 110.838 109.629 110.433C109.922 110.586 108.649 110.66 108.155 110.887C109.068 110.813 109.956 110.611 110.986 110.353C111.497 110.23 112.042 110.101 112.645 109.973C112.946 109.911 113.264 109.856 113.591 109.795C113.918 109.733 114.261 109.672 114.621 109.617C114.228 109.727 113.767 109.862 113.34 109.985C112.904 110.101 112.502 110.224 112.209 110.322C111.631 110.531 111.531 110.666 112.636 110.598C112.636 110.598 112.988 110.439 113.348 110.279C113.524 110.2 113.7 110.12 113.834 110.052C113.968 109.991 114.052 109.948 114.052 109.948C115.392 109.733 114.906 109.985 115.45 109.88C116.405 109.721 116.255 109.653 116.255 109.555C116.255 109.506 116.28 109.451 116.497 109.377C116.715 109.297 117.126 109.212 117.863 109.058C118.332 109.027 119.337 108.874 118.943 109.058C120.635 108.665 121.029 108.543 121.38 108.383C121.732 108.23 122.042 108.064 123.558 107.561C120.761 108.309 120.417 107.8 123.257 106.972C123.767 106.849 124.245 106.714 124.706 106.567C125.166 106.419 125.61 106.284 126.037 106.149C126.464 106.008 126.875 105.879 127.268 105.75C127.671 105.628 128.047 105.474 128.424 105.345C129.17 105.082 129.882 104.842 130.602 104.64C131.306 104.413 132.001 104.216 132.738 104.069C132.738 104.069 133.131 103.848 133.517 103.627C133.718 103.523 133.902 103.4 134.044 103.314C134.187 103.228 134.279 103.167 134.279 103.167C133.86 103.553 134.472 103.32 135.343 102.94C135.778 102.743 136.281 102.516 136.75 102.308C137.202 102.081 137.629 101.872 137.931 101.749C138.266 101.817 136.909 102.492 135.452 103.13C134.028 103.805 132.495 104.437 132.696 104.713C135.292 103.774 134.312 104.37 133.584 104.842C133.927 104.701 134.204 104.584 134.405 104.48C134.614 104.376 134.756 104.29 134.865 104.21C135.075 104.063 135.108 103.977 135.091 103.903C135.058 103.756 134.823 103.676 135.334 103.308C135.359 103.345 135.661 103.24 136.08 103.081C136.498 102.915 137.035 102.713 137.504 102.498C138.45 102.087 139.221 101.786 138.576 102.295C139.137 102.032 139.572 101.804 139.916 101.596C140.268 101.387 140.519 101.185 140.77 101.001C141.264 100.632 141.683 100.307 142.504 99.9143C142.395 100.166 142.278 100.473 142.588 100.546C142.688 100.362 144.799 99.3313 145.192 99.1166C144.765 99.27 145.636 98.4415 143.911 99.583C143.961 99.4602 144.254 99.2393 144.656 98.9815C145.05 98.7177 145.578 98.4292 146.055 98.1163C147.018 97.5087 147.923 96.9441 147.755 96.8828C148.015 96.9625 148.936 96.3427 150.025 95.5695C150.302 95.3731 150.586 95.1768 150.863 94.962C151.139 94.7472 151.416 94.5324 151.692 94.3237C152.236 93.9064 152.772 93.5198 153.225 93.2191C152.739 93.0105 152.035 93.6487 151.307 94.3544C150.586 95.0663 149.749 95.772 149.146 95.7413C149.665 95.2872 150.419 94.7226 151.24 94.0415C151.667 93.7101 152.119 93.3541 152.588 92.9798C153.049 92.5932 153.518 92.1943 153.995 91.7893C154.238 91.5867 154.481 91.3781 154.724 91.1756C154.967 90.9669 155.193 90.746 155.428 90.5312C155.888 90.0955 156.349 89.6598 156.801 89.2241C157.237 88.7822 157.639 88.3342 158.024 87.8985C158.409 87.4628 158.786 87.0455 159.079 86.6221C161.734 83.9894 159.431 86.7939 160.285 86.4073C158.091 89.0031 157.153 89.4511 155.034 91.5745C155.712 91.0528 156.433 90.4023 157.203 89.715C157.597 89.3775 157.949 89.0031 158.317 88.6349C158.677 88.2667 159.046 87.8924 159.406 87.518C160.084 86.7632 160.713 86.0023 161.265 85.3272C161.785 84.6338 162.203 84.0139 162.505 83.5291C162.781 83.1916 163.033 82.897 163.25 82.627C163.485 82.357 163.703 82.1238 163.92 81.9029C164.348 81.4672 164.792 81.1174 165.177 80.7246C165.973 79.9453 166.844 79.08 167.731 77.2573C167.12 77.6256 167.095 77.5212 166.324 78.5768C166.743 77.601 167.556 76.5577 168.066 75.5206C168.184 74.8333 166.986 77.0303 167.539 75.5575C167.891 75.0236 168.552 73.8514 168.661 74.1399L168.569 74.3853C168.912 73.5078 169.164 72.9186 169.423 72.4829C169.675 72.0534 169.909 71.7772 170.093 71.5011C170.286 71.231 170.462 70.9733 170.613 70.5805C170.696 70.3903 170.772 70.1571 170.83 69.8809C170.864 69.7398 170.897 69.5925 170.931 69.4268C170.956 69.255 170.973 69.077 170.99 68.8745C170.864 68.985 170.805 69.2182 170.722 69.5066C170.629 69.795 170.529 70.151 170.328 70.513C170.085 70.7708 170.052 70.4087 170.127 69.8134C170.169 69.5189 170.219 69.1568 170.278 68.7763C170.336 68.402 170.403 68.0154 170.487 67.6594C170.571 67.8067 170.671 67.4999 170.805 67.0335C170.931 66.5671 171.04 65.9411 171.199 65.444C171.484 65.1311 171.366 65.7632 171.191 66.5364C171.115 66.923 170.973 67.3403 170.889 67.6962C170.805 68.0522 170.747 68.3467 170.772 68.4818C170.772 68.4818 170.998 67.8006 171.224 67.1194C171.341 66.7757 171.408 66.4321 171.492 66.1743C171.559 65.9166 171.601 65.7447 171.601 65.7447L171.4 66.3155C171.4 66.3155 171.484 65.5545 171.567 64.7874C171.618 64.4069 171.618 64.0265 171.634 63.738C171.643 63.4496 171.66 63.2594 171.66 63.2594C171.425 65.3704 170.981 64.2106 171.09 63.2962C171.191 62.7745 171.316 62.2591 171.4 61.7743C171.475 61.2894 171.559 60.8415 171.643 60.4671C171.727 60.0928 171.81 59.7921 171.911 59.5957C172.003 59.4055 172.087 59.3195 172.204 59.387C171.978 59.252 171.894 58.534 171.861 57.6197C171.844 57.3926 171.861 57.1471 171.827 56.9016C171.81 56.6562 171.794 56.3984 171.768 56.1468C171.727 55.6375 171.685 55.1281 171.651 54.6679C171.551 56.6869 171.283 54.9317 171.082 54.361C171.082 54.361 171.115 53.6062 171.149 52.8452C171.165 52.4648 171.191 52.0843 171.174 51.802C171.165 51.5197 171.165 51.3295 171.165 51.3295C171.35 52.115 171.417 52.4709 171.475 52.5629C171.534 52.6611 171.576 52.4954 171.618 52.25C171.676 51.7652 171.668 50.9735 171.903 51.3356C172.053 51.5565 172.196 51.8449 172.279 52.1825C172.363 52.52 172.413 52.9066 172.455 53.3178C172.489 53.7228 172.522 54.1646 172.531 54.6003C172.531 55.0361 172.514 55.4841 172.514 55.9075C172.606 55.4902 172.665 55.0974 172.698 54.7354C172.732 54.3733 172.698 54.0296 172.673 53.7105C172.606 53.0662 172.48 52.5016 172.321 51.9493C172.137 51.4031 171.944 50.8692 171.785 50.2923C171.702 50.0039 171.643 49.7032 171.576 49.3902C171.5 49.0711 171.442 48.7397 171.4 48.3777C171.509 48.3654 171.635 48.4145 171.777 48.6231C171.844 48.7275 171.919 48.8747 171.986 49.0711C172.053 49.2675 172.129 49.5191 172.162 49.8382C172.204 49.5743 171.928 48.93 171.626 48.1138C171.475 47.7087 171.333 47.2485 171.174 46.7821C170.998 46.3157 170.856 45.8248 170.755 45.3338C170.78 45.8677 170.713 47.003 169.917 45.1497C169.917 45.1497 169.901 44.9902 169.867 44.7508C169.842 44.5115 169.767 44.1985 169.708 43.8733C169.582 43.235 169.457 42.5968 169.457 42.5968C169.214 41.8727 168.954 41.4738 168.787 41.2283C168.611 40.9828 168.485 40.8969 168.36 40.8294C168.092 40.7005 167.84 40.633 167.128 39.5346C167.128 39.5346 167.162 39.6327 167.204 39.78C167.246 39.9273 167.296 40.1298 167.346 40.3262C167.447 40.719 167.539 41.1178 167.539 41.1178C167.405 41.0872 167.237 40.8785 167.07 40.5901C166.894 40.3017 166.718 39.915 166.5 39.5591C166.081 38.835 165.671 38.1292 165.42 38.1722C165.805 38.8595 166.19 39.3627 166.567 39.8843C166.919 40.4183 167.254 40.9706 167.547 41.7254C167.447 42.0629 167.154 41.6088 166.81 40.9767C166.634 40.6576 166.45 40.2955 166.249 39.9703C166.04 39.645 165.83 39.3566 165.663 39.1663C165.286 38.4115 165.034 37.8838 164.833 37.4787C164.624 37.0798 164.482 36.8037 164.364 36.5521C164.247 36.3005 164.147 36.0611 164.013 35.7482C163.879 35.4352 163.719 35.0363 163.418 34.4717C163.577 34.3919 163.87 34.5454 164.222 34.8215C164.557 35.1038 164.959 35.5027 165.353 35.8893C165.746 36.2759 166.14 36.6503 166.475 36.8835C166.81 37.1105 167.07 37.2087 167.229 37.0123C166.751 36.2882 166.19 35.4966 165.629 34.6804C165.051 33.8642 164.406 33.048 163.828 32.2441C162.597 30.6608 161.466 29.2002 160.805 28.2613C160.235 27.6783 159.791 27.2671 159.44 26.991C159.071 26.721 158.803 26.5859 158.61 26.5307C158.225 26.4325 158.141 26.678 158.116 26.9419C157.128 26.0152 156.759 25.5059 156.232 24.8492C156.232 24.8492 156.315 24.9106 156.433 24.9965C156.55 25.0886 156.709 25.2113 156.86 25.334C157.17 25.5857 157.48 25.8311 157.48 25.8311C157.111 25.4813 156.768 25.1499 156.416 24.8431C156.064 24.5424 155.712 24.2478 155.386 23.9655C154.716 23.4071 154.121 22.8671 153.434 22.3638C152.772 21.8484 152.111 21.3329 151.39 20.7744C151.03 20.5044 150.653 20.2282 150.251 19.9337C149.858 19.6391 149.447 19.3261 149.003 19.007C146.893 17.6262 147.395 18.4608 147.621 18.9947C147.621 18.9947 147.479 18.9027 147.27 18.7615C147.06 18.6204 146.784 18.4302 146.499 18.2522C145.93 17.8901 145.36 17.5281 145.36 17.5281L145.636 17.8103C144.891 17.7428 143.283 16.6014 141.817 15.7054C142.32 15.7913 142.822 15.8773 143.325 15.957C145.352 16.2639 147.353 16.5646 149.338 16.8653L146.348 16.6873C148.685 16.853 152.705 17.4421 153.995 17.6569L153.66 17.6385C157.823 18.6081 158.56 17.7428 161.726 18.6572L161.064 18.6265C163.627 18.9211 165.629 19.2832 167.631 19.6146C169.624 19.9582 171.593 20.2835 174.105 20.4798C174.524 20.5596 174.884 20.6394 175.203 20.7069C175.973 20.7069 176.735 20.6885 177.506 20.6762C177.598 20.1546 177.732 19.6575 177.883 19.1666L178 19.2341ZM142.63 21.7256C142.378 21.4372 142.269 21.2163 142.521 21.2899C143.132 21.9404 145.184 23.3457 144.883 23.4562C144.883 23.4562 144.707 23.3457 144.522 23.2353C144.347 23.1248 144.162 23.0205 144.162 23.0205C144.615 23.3641 144.991 23.6894 145.343 23.9717C145.687 24.2601 146.022 24.5056 146.281 24.7326C146.801 25.1868 147.203 25.512 147.538 25.7452C147.906 25.8495 148.023 25.7759 148.224 25.782C148.325 25.782 148.442 25.8127 148.618 25.8986C148.71 25.9416 148.811 25.9968 148.936 26.0705C149.054 26.1502 149.188 26.2484 149.355 26.3773C150.653 27.7519 150.21 27.574 149.64 27.304C149.07 27.0278 148.4 26.6657 149.204 27.6169C149.204 27.6169 149.389 27.7581 149.657 27.9729C149.916 28.1876 150.285 28.4638 150.62 28.7645C151.298 29.3659 151.985 29.9612 151.985 29.9612C151.985 29.9612 152.052 30.133 152.119 30.311C152.153 30.3969 152.186 30.4828 152.211 30.5503L152.245 30.6608C152.63 31.164 153.024 31.6488 153.417 32.1152C153.618 32.3484 153.819 32.5754 154.02 32.8025C154.213 33.0296 154.406 33.2628 154.59 33.4898C154.975 33.9439 155.361 34.3858 155.763 34.8215C156.156 35.2634 156.516 35.7113 156.902 36.1593C158.443 37.939 159.9 39.8291 161.115 42.1243C160.997 42.1795 160.788 42.0138 160.537 41.7254C160.26 41.437 159.934 41.0197 159.607 40.5594C158.979 39.6389 158.183 38.5834 157.831 38.0372C158.041 38.8104 158.652 39.6205 159.205 40.5226C159.49 40.9706 159.8 41.4308 160.068 41.9034C160.311 42.3759 160.52 42.8607 160.671 43.3516C160.763 43.5726 160.872 43.7812 160.972 43.9837C161.073 44.1862 161.157 44.3765 161.257 44.5606C161.441 44.9226 161.642 45.2295 161.818 45.475C162.178 45.9659 162.488 46.193 162.572 46.0211C163.51 48.2304 162.781 47.6719 162.781 47.9726C162.882 48.0524 162.991 48.1629 163.091 48.304C163.183 48.4452 163.267 48.6231 163.351 48.8134C163.51 49.2 163.669 49.6787 163.82 50.2003C163.904 50.458 163.946 50.728 164.004 50.9981C164.055 51.2742 164.105 51.5442 164.163 51.8143C164.214 52.0843 164.272 52.3543 164.322 52.6059C164.364 52.8636 164.398 53.1153 164.431 53.3484L164.096 53.4528C164.096 53.4528 164.281 54.1708 164.465 54.8888C164.599 55.6129 164.725 56.3432 164.725 56.3432C164.733 55.5884 165.068 56.2634 165.286 56.2573V57.0121C165.487 56.2941 165.545 55.5147 165.503 54.7231C165.462 54.3303 165.395 53.9253 165.328 53.5203C165.294 53.3178 165.252 53.1153 165.21 52.9127C165.177 52.7102 165.127 52.5077 165.068 52.3052C164.959 51.9002 164.85 51.4951 164.75 51.0963C164.658 50.6974 164.582 50.2985 164.473 49.9057C164.381 49.513 164.314 49.1202 164.272 48.7336C164.255 48.5372 164.247 48.3408 164.247 48.1506C164.23 47.9604 164.23 47.7701 164.23 47.5737C164.649 48.439 164.44 47.2178 164.859 48.0954C165.018 48.8502 165.009 49.0097 164.9 49.1079C165.286 49.5191 165.839 50.7035 165.411 49.1079C166.174 49.0773 166.743 52.3297 167.12 54.5758C167.045 55.0299 166.927 55.1404 166.835 55.0361C166.785 54.987 166.743 54.8826 166.693 54.7415C166.634 54.6004 166.576 54.4224 166.517 54.226C166.274 53.4344 166.023 52.3113 165.738 51.8756C165.788 52.0843 165.855 52.2807 165.922 52.4832C165.981 52.6857 166.04 52.8821 166.098 53.0968C166.207 53.5264 166.291 54.0051 166.266 54.6249L165.696 54.3487C165.738 54.539 165.771 54.7047 165.805 54.8581C165.83 55.0115 165.847 55.1404 165.872 55.257C165.914 55.4841 165.956 55.6559 165.989 55.7663C166.065 55.9995 166.132 56.0241 166.199 55.9811C166.341 55.8952 166.509 55.5025 166.785 55.8461C166.969 56.0548 167.061 56.3309 167.103 56.65C167.153 56.963 167.12 57.319 167.061 57.6687C166.944 58.3745 166.768 59.0679 166.76 59.4914C166.76 59.4914 166.76 59.43 166.76 59.3441C166.751 59.2582 166.743 59.1354 166.726 59.025C166.701 58.7918 166.676 58.5586 166.676 58.5586C166.308 60.9458 166.785 61.5165 166.358 63.6828C166.358 63.6828 166.215 63.9221 166.04 64.1615C165.872 64.4008 165.705 64.6401 165.705 64.6401C165.847 64.3149 165.973 64.0142 166.04 63.738C166.107 63.4619 166.14 63.2103 166.165 62.9771C166.199 62.5107 166.165 62.1302 166.115 61.7804C165.989 61.0869 165.771 60.5408 165.998 59.7798C165.545 61.7252 165.286 61.4797 165.101 60.6267C165.001 60.1971 164.951 59.6141 164.842 59.0679C164.733 58.5156 164.624 58.0001 164.524 57.7056C164.54 58.5279 164.549 59.3134 164.415 60.0069C164.356 60.3505 164.289 60.6696 164.214 60.9581C164.138 61.2465 164.055 61.5042 163.937 61.719C164.013 62.3266 163.979 62.9402 163.895 63.5601C163.778 64.1737 163.594 64.7874 163.426 65.395C163.351 65.7018 163.242 66.0025 163.142 66.3032C163.049 66.6039 162.957 66.9046 162.89 67.2053C162.807 67.506 162.773 67.8128 162.706 68.1074C162.647 68.402 162.614 68.7027 162.614 69.0034C162.053 70.2185 162.656 67.8497 162.153 69.1507C161.173 71.5195 160.034 74.011 158.795 76.5087C157.965 77.7299 157.882 77.4415 157.446 77.7115C157.195 78.0735 156.91 78.4172 156.659 78.7424C156.408 79.0738 156.156 79.3929 155.93 79.7059C155.712 80.025 155.461 80.3135 155.235 80.6019C155.009 80.8965 154.791 81.1787 154.582 81.4549C154.18 82.0195 153.736 82.535 153.334 83.0566C153.133 83.3143 152.932 83.5782 152.731 83.836L152.094 84.5908C151.885 84.8424 151.667 85.094 151.449 85.3456C151.34 85.4745 151.223 85.6034 151.114 85.7322C150.997 85.855 150.88 85.9839 150.754 86.1127C150.268 86.6159 149.766 87.1437 149.196 87.6899C148.61 88.2176 147.982 88.77 147.278 89.3529C146.909 89.6291 146.533 89.9175 146.131 90.2182C145.93 90.3655 145.72 90.5189 145.511 90.6723C145.301 90.8258 145.084 90.9792 144.849 91.1265C144.849 91.1265 144.908 91.0712 144.983 90.9915C145.067 90.9117 145.167 90.7951 145.259 90.6785C145.461 90.4514 145.653 90.2182 145.653 90.2182C144.933 90.7583 144.187 91.2001 143.601 91.6297C143.308 91.8445 143.048 92.047 142.831 92.2434C142.613 92.4397 142.42 92.6177 142.294 92.7957C141.641 92.9798 140.946 93.3603 140.175 93.8267C139.388 94.2685 138.576 94.8331 137.696 95.3731C137.252 95.637 136.8 95.9009 136.356 96.1648C136.13 96.2936 135.904 96.4164 135.686 96.5453C135.46 96.668 135.225 96.7723 134.999 96.8828C134.539 97.0975 134.086 97.2939 133.642 97.4535C133.207 97.6192 132.771 97.7419 132.353 97.8156C131.398 98.1838 130.703 98.5029 130.141 98.7913C129.563 99.0552 129.128 99.3007 128.726 99.5339C128.324 99.7671 127.955 100.019 127.478 100.258C127 100.497 126.448 100.749 125.686 101.044C125.602 100.902 126.364 100.313 124.731 100.798C119.663 102.553 114.521 103.823 109.118 104.842C103.708 105.861 98.0122 106.579 91.6635 107.101C91.764 107.033 92.3921 106.935 92.7104 106.892C91.6802 106.959 90.6584 107.051 89.6366 107.119C88.6147 107.186 87.5929 107.266 86.5794 107.346C84.5525 107.481 82.5424 107.641 80.5657 107.739C76.6208 107.954 72.8266 108.07 69.3674 107.88C68.6974 107.929 67.4578 107.923 66.4946 107.966C65.5314 108.003 64.8697 108.076 65.4392 108.242C67.0055 108.346 67.1981 108.702 67.0808 108.917C66.3187 108.917 65.7072 108.917 65.1963 108.899C64.6938 108.88 64.3001 108.831 63.9902 108.794C63.3704 108.714 63.0773 108.616 62.8427 108.524C62.6082 108.426 62.4407 108.334 62.0806 108.242C61.7204 108.168 61.1676 108.064 60.1625 107.972C59.5846 107.634 60.2379 107.622 61.0252 107.634C61.8209 107.659 62.7757 107.634 62.8092 107.413C62.8092 107.413 62.4491 107.407 61.9131 107.395C61.377 107.377 60.6567 107.328 59.9364 107.285C59.2161 107.242 58.4874 107.217 57.9514 107.162C57.4069 107.113 57.0468 107.082 57.0468 107.082C56.2595 106.916 55.4638 106.788 54.6681 106.665C53.8808 106.518 53.1018 106.383 52.3313 106.254C51.946 106.186 51.5607 106.119 51.1838 106.051C50.8069 105.971 50.4467 105.885 50.0866 105.806C49.3663 105.634 48.6711 105.45 48.0094 105.235C49.1988 105.56 48.5706 104.94 50.5054 105.585C50.1871 105.542 50.3797 105.622 50.0698 105.579C50.6478 105.707 51.1168 105.824 51.5188 105.898C51.9209 105.971 52.2391 106.02 52.5072 106.057C53.0432 106.131 53.3531 106.155 53.6546 106.168C53.9561 106.18 54.2409 106.186 54.71 106.229C55.0534 106.26 55.4889 106.29 56.1087 106.358C55.4051 106.278 54.6681 106.192 53.9227 106.063C53.4034 105.984 52.8757 105.892 52.3396 105.812C51.812 105.726 51.2759 105.64 50.7566 105.523C49.7097 105.309 48.6711 105.094 47.7079 104.867C46.7531 104.615 45.8652 104.37 45.0863 104.143C45.2203 104.271 45.1198 104.302 44.8769 104.278C44.634 104.253 44.2571 104.173 43.8467 104.057C43.0091 103.83 41.9789 103.529 41.4848 103.504L41.3089 103.412C41.2167 103.578 39.2568 103.02 38.637 102.866L38.1429 102.191C36.7776 101.78 38.3774 102.547 37.0289 102.111C36.5515 101.958 35.7726 101.682 34.8764 101.35C34.6502 101.264 34.424 101.179 34.1812 101.093C33.955 100.994 33.7205 100.89 33.486 100.792C33.0169 100.583 32.5312 100.368 32.0621 100.16C31.1157 99.7487 30.2865 99.2761 29.6667 98.9018C29.0469 98.5213 28.6448 98.2267 28.6365 98.0733C27.6063 97.5578 26.9278 97.2448 26.2159 96.9441C26.04 96.8644 25.8641 96.7846 25.6798 96.7048C25.5877 96.6618 25.4956 96.6189 25.4034 96.5759C25.3113 96.5268 25.2276 96.4716 25.1354 96.4225C24.7669 96.2077 24.3565 95.9623 23.8874 95.6431C24.1471 95.6493 24.658 95.907 24.7836 95.907C24.2811 95.5756 23.7534 95.232 23.2174 94.8883C22.941 94.7226 22.7065 94.5262 22.4468 94.3421C22.1872 94.158 21.9359 93.9678 21.6763 93.7776C20.5958 93.0473 19.6577 92.2065 18.6778 91.3965C18.4181 91.194 18.2255 90.9915 18.0245 90.7951C17.8234 90.5926 17.6057 90.4085 17.4214 90.1875C17.2288 89.9789 17.0445 89.7641 16.8603 89.5555C16.676 89.3407 16.5085 89.1197 16.341 88.905C15.9892 88.4815 15.7044 88.0151 15.4029 87.5856C15.1265 87.1376 14.8668 86.7019 14.6407 86.2661C13.6943 84.9283 12.9321 83.6028 12.2788 82.4C11.9354 81.8047 11.6506 81.2217 11.349 80.6878C11.0726 80.1478 10.7795 79.6507 10.5199 79.1843C10.6706 79.5893 10.9638 80.3871 11.081 80.9087C11.215 81.4242 11.1899 81.6758 10.7125 80.9762C10.143 80.2153 9.74928 78.9327 9.28024 77.6624C9.6404 77.9079 8.7526 74.3792 9.61529 76.9014C9.88332 76.5271 9.48965 75.1708 9.2635 73.9005C9.07086 72.5934 8.87822 71.366 9.2635 71.3722C9.20487 71.2249 9.14626 70.8812 9.096 70.4271C9.04575 69.973 8.98711 69.4145 8.97873 68.8316C8.97036 68.2486 8.92012 67.641 8.91174 67.0887C8.91174 66.5425 8.87821 66.0516 8.81121 65.7018C8.97872 65.5545 8.99548 66.0516 8.99548 66.5855C8.99548 66.8555 8.99548 67.1317 9.00386 67.3403C9.02061 67.549 9.06249 67.6901 9.11275 67.6901C9.11275 67.6901 9.11276 67.5858 9.096 67.4262C9.096 67.2728 9.096 67.0642 9.096 66.8494C9.096 66.4321 9.10436 66.0148 9.10436 66.0148H9.31376C9.39751 65.2293 9.49802 64.5972 9.49802 64.0633C9.49802 63.7994 9.49801 63.5539 9.48964 63.3269C9.48964 63.0998 9.48964 62.8911 9.46451 62.6948C9.41426 61.897 9.27189 61.2404 9.48128 60.3014L9.53992 60.3873C9.53992 60.3873 9.59853 60.0621 9.65716 59.743C9.68229 59.5773 9.7158 59.4177 9.74092 59.3011C9.77443 59.1845 9.79118 59.0986 9.79118 59.0986C9.79118 59.0986 9.79118 59.1968 9.79956 59.3441C9.81631 59.4914 9.83304 59.6939 9.85817 59.8903C9.90005 60.283 9.93357 60.6758 9.93357 60.6758C10.0508 60.1726 10.1178 59.7246 10.1848 59.3011C10.2602 58.8777 10.3272 58.4849 10.3858 58.0799C10.4193 57.8774 10.4445 57.6687 10.478 57.4601C10.5199 57.2514 10.5785 57.0367 10.6371 56.8157C10.7628 56.3677 10.8884 55.8768 11.1145 55.3245L11.3909 55.1527L11.8348 53.7964C11.7595 54.0235 11.8013 54.1217 11.9186 53.9928C11.927 53.6492 12.0945 53.2318 12.2788 52.7593C12.3793 52.5261 12.4798 52.2807 12.597 52.0352C12.7143 51.7897 12.8567 51.5442 12.9991 51.2926C13.2754 50.7956 13.5351 50.2985 13.7948 49.8566C14.046 49.4148 14.247 49.0159 14.3392 48.7029C14.6574 48.2979 15.1349 48.0033 15.5536 47.6412C15.9808 47.2853 16.3493 46.8619 16.6257 46.2543L17.0278 46.7085C16.7514 47.0337 16.5503 47.2976 16.3744 47.5124C16.1986 47.721 16.0562 47.8867 15.9389 48.0033C15.7044 48.2488 15.5537 48.3592 15.4029 48.4758C15.2521 48.5924 15.1181 48.7213 14.9003 48.9975C14.691 49.2798 14.3727 49.7093 13.9455 50.4519C14.2052 50.2126 14.5402 49.9241 14.8668 49.5866C15.0344 49.4148 15.2102 49.2307 15.3861 49.0343C15.4699 48.9361 15.562 48.8379 15.6542 48.7336C15.7463 48.6293 15.8468 48.5249 15.9473 48.4206C16.3493 47.9972 16.7514 47.5308 17.1953 47.0521C17.6559 46.5734 18.1166 46.0641 18.594 45.5486C20.5456 43.4928 22.8991 41.3142 24.9428 39.6573C26.442 38.2151 28.8291 36.5582 31.0319 35.1529C33.2179 33.7292 35.2281 32.5448 35.7725 31.7777L35.605 32.2502C35.605 32.2502 35.7139 32.195 35.8982 32.0968C36.0908 32.0047 36.3505 31.8574 36.6771 31.6979C37.3388 31.3788 38.2015 30.9431 39.0977 30.5258C40.865 29.685 42.6909 28.9056 42.6909 28.9056C45.6475 27.4267 48.8219 26.1134 51.8539 24.9229C52.616 24.616 53.3447 24.346 54.065 24.076C54.777 23.7937 55.4973 23.5482 56.1925 23.2966C56.8793 23.0389 57.5661 22.8057 58.2194 22.5664C58.8811 22.3209 59.5092 22.0877 60.1206 21.8668C60.1206 21.8668 60.4976 21.8238 60.8745 21.787C61.2514 21.744 61.6283 21.7072 61.6283 21.7072C64.0488 20.5719 68.6303 19.3814 73.0695 18.4302C77.5002 17.4544 81.7802 16.7057 83.5223 15.9509C86.7888 15.7361 82.6513 16.4603 82.3832 16.6873C83.5726 16.5707 85.1053 16.1964 86.6548 15.9141C88.1959 15.6195 89.7538 15.4047 90.9348 15.5029C90.9599 15.6563 87.6264 16.0123 89.1507 15.9386C90.0386 15.9877 90.6333 15.8466 91.2698 15.7116C91.898 15.5827 92.568 15.4538 93.5647 15.5213C92.6434 15.3004 96.58 14.5763 99.5115 14.3369C99.1486 14.3533 98.8889 14.3553 98.7325 14.3431C98.2802 14.1406 100.466 14.0362 101.664 13.9442C101.664 13.9442 101.555 14.0117 101.237 14.0546C108.775 13.4225 116.966 13.1709 125.183 13.6435C125.861 13.6803 126.531 13.7233 127.21 13.7785C127.319 13.8153 127.428 13.8521 127.528 13.8889C127.746 13.9626 127.955 14.024 128.156 14.0915C128.366 14.159 128.567 14.2203 128.776 14.2817C129.203 14.3983 129.639 14.4965 130.158 14.5763C129.086 14.1221 128.625 14.1528 127.771 13.8276C128.265 13.8644 128.768 13.9074 129.27 13.9564C131.733 15.0304 133.383 16.2639 134.957 17.1414C134.957 17.1414 134.84 17.0923 134.664 17.0126C134.48 16.9389 134.237 16.8407 134.003 16.7487C133.517 16.5523 133.039 16.3621 133.039 16.3621H133.173C132.972 16.3068 132.679 16.1841 132.361 16.0491C132.034 15.9141 131.674 15.7607 131.339 15.6195C130.677 15.3434 130.116 15.1347 130.15 15.325C131.096 15.5643 131.85 15.9079 132.629 16.313C133.4 16.7303 134.245 17.1598 135.376 17.6324H135.242C135.728 17.8533 136.18 18.0804 136.616 18.3074C137.035 18.5468 137.437 18.7922 137.805 19.0254C138.567 19.498 139.212 19.995 139.84 20.4492C140.477 20.8972 141.038 21.339 141.65 21.7072C142.261 22.0693 142.864 22.3945 143.568 22.6339C143.258 22.4252 142.881 22.057 142.638 21.7563L142.63 21.7256Z" fill="#FFE093"/>
</svg>
