<svg width="124" height="77" viewBox="0 0 124 77" fill="none" xmlns="http://www.w3.org/2000/svg">
<path d="M104.82 69.086C104.85 69.1323 104.737 69.2526 104.408 69.4656C106.688 68.5722 105.628 68.8823 105.283 68.8916C106.405 68.4148 107.527 67.9334 108.634 67.4335C108.762 67.4567 108.767 67.5353 107.815 68.0029C109.704 67.29 109.925 67.0308 110.054 66.7809C112.123 65.8227 114.161 64.8183 116.138 63.7212C116.539 63.5777 116.884 63.4574 117.147 63.3787C118.691 62.4807 119.55 61.8697 120.003 61.4207C120.039 61.3883 120.065 61.3606 120.096 61.3282C121.028 60.6616 121.877 59.921 122.587 59.0601C122.546 59.1295 122.505 59.1989 122.474 59.2683C122.294 59.5322 122.237 59.7081 122.386 59.7359C122.731 59.3193 123.02 58.8147 123.272 58.3472C123.539 57.8473 123.925 57.2317 123.987 56.6716C124.049 56.2782 123.884 56.0467 123.56 55.8245V55.8199C122.608 55.1812 121.213 55.1163 120.075 55.0145C118.583 54.8803 117.147 54.5887 115.685 54.3109C112.231 53.6583 108.798 52.9778 105.432 52.0336C103.749 51.5661 102.076 51.0384 100.434 50.4644C99.5027 50.1404 98.6483 49.5711 97.6961 50.0802C96.327 50.8116 95.1792 52.3761 94.6954 53.7184C94.4843 54.3109 94.5152 54.5563 95.1586 54.7923C96.6718 55.3478 98.2005 55.8616 99.7497 56.3337C102.925 57.3058 106.158 58.0464 109.431 58.6712C104.125 59.7498 98.6328 60.2728 93.2027 60.4579C93.213 60.4579 93.2284 60.4579 93.2387 60.4579C91.216 60.3191 90.7167 60.4209 90.2689 60.5181C89.4402 60.5228 88.6167 60.5227 87.788 60.5089C88.5858 60.3978 89.188 60.1802 89.9601 60.0738C87.7777 60.2589 87.0829 60.3422 86.1616 60.4672C85.4513 60.4441 84.741 60.4117 84.0358 60.3746C83.7991 60.3145 83.9844 60.245 83.8814 60.1802C83.2432 60.208 82.6049 60.2219 81.9718 60.2589C79.8873 60.1154 77.8027 59.9303 75.7388 59.671C75.7748 59.6433 75.4608 59.5924 73.8241 59.4072C70.3241 58.8888 66.8292 58.1713 63.3859 57.278C63.5866 57.1021 63.7822 56.9169 63.9829 56.7318C64.2866 56.5003 64.5337 56.3198 64.6984 56.1995C64.7962 56.1347 64.8631 56.0977 64.9197 56.0745C64.8837 55.9542 64.9763 55.8107 65.0278 55.7042C66.4947 54.1767 67.6888 52.5242 68.6462 50.7931C68.7337 50.6496 68.8263 50.5014 68.9189 50.3533C69.5314 49.2794 70.005 48.1454 70.4734 47.016C70.741 46.7012 70.705 47.016 70.6483 47.2335C70.5145 47.7427 70.3189 48.2472 70.1131 48.7379C69.7065 49.7099 69.2175 50.6496 68.7594 51.6077C69.3873 50.557 69.9895 49.4739 70.3756 48.3213C70.7307 47.2706 70.8851 46.1828 71.0859 45.1043C71.1116 44.9006 71.1373 44.6738 71.1631 44.4285C71.4101 43.5166 71.477 42.2622 71.4564 41.0263C71.5645 39.3368 71.5079 37.6334 71.2814 35.93C71.3072 36.0273 71.3329 36.1198 71.3586 36.2124C71.23 35.3885 71.1219 34.5646 71.0961 33.7314C71.0653 32.7362 70.7925 31.8428 70.427 30.9078C70.5197 31.4077 70.5866 32.0419 70.6741 32.7454C70.1954 30.806 69.5057 28.9221 68.6462 27.0937C68.4145 26.5151 68.3528 26.242 68.7079 26.5892C68.1366 25.5292 67.5756 24.3164 66.6594 23.4509C66.0984 22.5482 65.4859 21.6734 64.8425 20.8125C65.1307 21.0856 65.3932 21.3772 65.6609 21.6642C65.7226 21.7428 66.4072 22.7612 66.6028 22.7288C66.6543 22.7195 65.9954 21.5068 65.9594 21.4466C65.2697 20.7014 64.5851 19.9608 63.8594 19.2433C63.8131 19.123 63.5918 18.7989 63.2829 18.387C62.7476 17.7204 62.2123 17.0585 61.6616 16.4012C61.5998 16.3272 60.7094 15.1839 60.8484 15.17C59.5719 14.0128 59.2631 13.9202 58.1462 13.0639C57.2969 12.0548 56.3087 11.1892 55.1146 10.5273C55.4697 10.8143 55.794 11.0828 56.0925 11.3281C58.141 13.1287 59.9888 15.0404 61.8057 17.0261C62.1609 17.4381 62.5778 17.9287 63.0822 18.512C63.0307 18.4934 62.9381 18.4101 62.8248 18.2944C59.4484 14.397 55.3204 10.9671 50.8837 8.13887C50.5337 7.75468 52.0933 8.56934 52.4021 8.61562C50.8477 7.4862 49.8955 7.05573 49.0308 6.63451C48.1403 6.2457 47.3322 5.84299 45.8447 5.01444C46.2668 5.19959 46.694 5.38936 47.1161 5.57914C47.2138 5.6208 47.4867 5.79668 47.6102 5.77354C47.533 5.78743 46.7969 5.25051 46.694 5.19034C46.2565 4.94038 45.8087 4.70893 45.3558 4.48212C44.4756 4.03776 43.5697 3.62579 42.6947 3.17217C43.3947 3.75077 44.2389 4.20441 45.0367 4.66728C46.0455 5.25051 47.0492 5.83374 48.0425 6.43549C43.5337 3.88966 38.5256 1.96407 33.2551 1.15403C28.0874 0.35788 22.4823 0.737457 18.097 3.5425C15.1272 5.43567 13.2742 8.23144 12.6 11.4299C12.5794 11.467 12.5639 11.4808 12.5485 11.4623C12.5485 11.5225 12.5485 11.5873 12.5536 11.6567C12.25 13.2166 12.1934 14.8413 12.3169 16.4753C12.1779 16.0726 12.0595 15.4616 12.075 14.5034C11.7404 17.0308 12.1676 19.6553 12.8728 22.1039C13.5676 24.497 14.5764 26.9965 16.1154 29.0609C16.2286 29.2877 16.3419 29.5146 16.4603 29.7414C16.4705 29.7645 16.6919 30.32 16.6147 30.3246C16.4757 30.3385 16.2183 29.8386 16.1617 29.7645C15.8632 29.3202 15.5904 28.8573 15.3073 28.4037C14.8286 27.4825 14.3808 26.5429 13.8507 25.6403C14.9933 28.6073 16.4448 31.4772 18.2308 34.1804C19.986 36.828 22.0911 39.2118 24.2992 41.5633C25.8794 43.063 27.4595 44.5581 29.1786 45.9375C30.9132 47.3261 32.7404 48.6037 34.5779 49.8766C35.2624 50.307 35.9573 50.7514 36.6727 51.1958C36.9146 51.0569 37.244 51.1773 37.7433 51.418C38.2528 51.6448 38.9323 51.9827 39.833 52.3067L40.7234 53.0195C40.43 52.7788 41.1146 52.9825 40.9705 52.7418C44.8977 54.8756 49.0256 56.7225 53.2102 58.2917C51.7124 58.986 50.1631 59.5739 48.5778 60.0877C49.283 59.6572 49.9881 59.2082 50.719 58.8147C50.4719 58.9443 50.2197 59.0693 49.9624 59.1897C49.0565 59.5785 48.1094 59.9349 47.1418 60.1941C45.8653 60.5922 44.6455 60.8329 43.4205 61.0875C40.9448 61.5226 38.3867 61.8512 34.6962 62.1567C35.2779 61.9438 35.983 61.9345 36.5955 61.8466C37.522 61.7077 38.4484 61.5874 39.3698 61.4254C40.8624 61.1662 42.3653 60.8838 43.8322 60.5089C42.6278 60.7588 40.9448 61.106 39.5139 61.2911C39.0095 61.3744 38.4948 61.43 37.9749 61.4624C37.7484 61.4763 36.9867 61.6244 36.8065 61.4439C36.647 61.5735 36.4977 61.7031 36.3381 61.8281C31.9529 62.0734 36.8992 61.4855 35.4529 61.3328C34.0477 61.4254 32.6426 61.4485 31.2374 61.5226C30.836 61.5457 30.1205 61.5179 29.8477 61.8419C29.7705 61.9392 29.7448 62.0549 29.6418 62.1382C29.3999 62.3326 28.9985 62.3372 28.6948 62.3558C27.2639 62.2493 25.8433 62.0919 24.4382 61.8744C24.0985 61.7957 23.6867 61.7216 23.2235 61.6614C22.158 61.4717 21.0977 61.2541 20.058 60.9995C20.2022 60.9995 20.3 60.9903 20.3514 60.9671C20.511 60.8884 20.2845 60.7172 20.1301 60.6061C19.0389 60.5366 17.9735 60.3561 16.9595 59.9812C15.8426 59.5646 14.8081 59.023 13.722 58.5555C12.8213 58.0926 11.7095 57.5835 10.3301 56.8382C10.3404 56.7086 11.0095 57.0003 11.725 57.3104C12.4661 57.5927 13.2639 57.8705 13.4801 57.8381C10.9066 56.8753 8.63159 55.445 6.31028 54.0795C5.75439 53.7277 5.33234 53.4916 5.11102 53.45C3.81397 52.4039 2.63014 51.2652 1.44632 50.1219L1.35882 50.0478C1.32279 50.0201 1.26102 49.983 1.20441 49.9506C1.09632 49.8904 0.952201 49.8349 0.761761 49.8673C0.669114 49.8766 0.597059 49.9228 0.525001 49.9599C0.468383 50.0015 0.422056 50.0478 0.375732 50.0941C0.0926446 50.4737 0.051473 50.9875 0.0669141 51.4272L0.0411773 51.4133L0.030881 51.4041V51.3994C-0.0257365 51.3531 0.030882 51.4041 0.0720583 51.4457C0.0720583 51.4689 0.0720583 51.492 0.0720583 51.5151C0.0514701 51.4966 0.0205882 51.4689 0 51.4504L0.0257368 51.4735L0.0669141 51.5151C0.128679 52.5103 0.401467 53.5518 1.01911 54.3943C1.6522 55.2691 2.61985 56.0606 3.46911 56.7688C2.96985 56.3522 2.48088 55.9125 1.94044 55.5376C1.84264 55.4681 1.66249 55.3154 1.51838 55.3617C1.45147 55.3848 1.40514 55.4357 1.2147 55.3617C0.911027 55.2135 0.663972 55.0191 0.437502 54.7877C0.380885 54.7229 0.324263 54.6581 0.272793 54.5933C0.422057 54.7784 0.581617 54.9543 0.756616 55.121C0.833822 55.195 0.90073 55.2506 0.962495 55.2922L1.15294 55.445C4.38529 58.0186 7.71542 60.4441 11.6117 62.1706C13.7941 63.3232 16.1257 64.1841 18.5242 64.9062C18.4933 64.9988 18.3286 65.0543 17.9529 65.1053C21.4117 66.281 22.0036 66.2069 22.5029 66.2069C23.6301 66.1328 24.8345 66.4337 25.9308 66.605C25.4676 66.5217 25.0044 66.4337 24.5411 66.3504C24.2941 66.3041 23.9801 66.1884 23.7279 66.1884C23.7845 66.1976 23.8411 66.2023 23.8977 66.2069C27.1867 66.8133 30.5477 67.1095 33.9036 67.1095C33.6977 67.2252 33.3271 67.3178 34.3411 67.2808C35.7205 66.966 37.208 67.0401 38.6183 66.9244C39.097 66.9012 39.5859 66.8827 40.08 66.8688C41.2072 66.767 42.3396 66.6652 43.369 66.5772C44.3933 66.443 45.3094 66.2578 46.0043 66.0958L45.0109 66.3596C45.0109 66.3596 46.1072 66.2023 47.1984 66.0125C48.2793 65.7672 49.3602 65.5265 49.3602 65.5265C49.4065 65.5265 49.3602 65.545 49.3911 65.545C49.4528 65.4941 49.5146 65.4431 49.5506 65.3968C50.8786 65.2765 52.2528 64.7951 53.4933 64.3739C54.9447 63.8833 56.5094 63.2028 57.7602 62.3881C58.2337 61.953 58.8616 61.629 59.4021 61.268C59.5359 61.2587 59.7006 61.3282 59.8653 61.3652C61.605 61.8512 63.355 62.3372 65.1256 62.7446C66.5667 63.0732 68.0388 63.4805 69.5263 63.5824C67.9462 63.3324 66.4175 62.9714 64.8785 62.5317L65.28 62.2539C66.9476 62.6612 66.9785 62.7538 66.9939 62.8186C67.0145 62.8742 67.0197 62.9344 68.6616 63.1565C68.4042 62.8094 67.6476 62.726 67.2359 62.6242C66.6079 62.4668 65.9748 62.3465 65.3417 62.2261C64.1322 61.9947 62.9175 61.7448 61.7388 61.393C62.9278 61.555 64.0962 61.8188 65.2645 62.0502C64.4925 61.8744 63.7359 61.6568 62.9793 61.4392C63.9315 61.6985 64.894 61.9438 65.8616 62.1752C65.6609 62.1336 65.4653 62.0919 65.2645 62.0502C66.3454 62.3048 67.4212 62.5965 68.5175 62.7862C69.2587 62.9436 69.9998 63.1056 70.741 63.2491C70.5403 63.2908 70.5866 63.3741 71.1888 63.5546C72.702 63.8925 74.205 64.198 75.7645 64.2767C76.2844 64.2859 76.7322 64.2952 77.252 64.3045C78.3432 64.448 79.4344 64.5729 80.5307 64.684C81.1998 64.9386 80.6851 65.1238 84.674 65.4432L81.3491 65.4061C84.5145 66.1282 84.4373 65.4709 86.8667 65.6653C85.6726 65.4246 84.5145 65.3274 83.2946 65.2302C83.0321 65.0358 85.1527 65.133 86.1718 65.133L85.5233 65.0914C85.5799 65.0821 85.6263 65.0728 85.6777 65.0636C88.5086 65.2117 91.3395 65.2534 94.1704 65.1978C94.1806 65.1978 94.2064 65.1978 94.2167 65.1978C93.913 65.2302 93.6093 65.2626 93.3057 65.2858C95.5446 65.1376 97.7887 65.0914 100.023 64.9201L99.9917 64.9386C100.059 64.9293 100.115 64.9155 100.177 64.9062C101.356 64.8183 102.529 64.7118 103.698 64.5729C103.445 64.6794 103.62 64.7396 104.897 64.5128C104.578 64.7349 104.017 64.7859 103.636 64.8414C103.08 64.9201 102.524 64.9756 101.963 65.0266C100.738 65.1469 99.5078 65.258 98.2726 65.2997C99.127 65.258 100.156 65.1284 101 65.3182C101.242 65.3691 100.898 65.4524 100.825 65.4663C100.254 65.5866 99.6623 65.6376 99.0806 65.6931C100.048 65.8736 102.318 65.2997 104.15 65.2395C103.816 65.2071 104.382 65.0265 104.233 64.9664C104.295 65.1052 105.411 64.9664 106.714 64.7396C102.956 66.2763 99.163 67.7714 95.3439 69.1786C93.4549 69.8729 91.5454 70.5302 89.6049 71.1041C88.6115 71.3958 87.6079 71.6642 86.5991 71.9095C85.6571 72.1317 84.8799 72.3493 84.1542 72.9557C84.1027 72.8584 84.1954 72.7289 84.1902 72.627C84.1851 72.4141 83.6446 72.789 83.6035 72.8168C83.0991 73.2426 82.7748 73.6407 82.5174 73.9647C82.2498 74.335 82.0182 74.6961 81.8844 75.1219C81.7711 75.4783 81.8329 75.5848 82.0336 75.8718C82.0336 75.8764 82.0336 75.881 82.0336 75.881C81.9307 76.1495 81.7969 76.4781 81.8535 76.7698C81.9255 77.154 82.4402 76.9549 82.7027 76.8947C83.7888 76.6494 84.8645 76.3717 85.9351 76.0754C88.1071 75.4783 90.2431 74.7886 92.3586 74.048C96.5895 72.5622 100.712 70.8542 104.825 69.123C97.6395 72.1503 104.856 69.1693 104.825 69.123L104.82 69.086ZM0.380884 51.6124C0.365443 51.4596 0.360294 51.3115 0.370588 51.168H0.386028V51.1773C0.380881 51.33 0.391177 51.4781 0.411765 51.6309C0.401471 51.6309 0.391175 51.6216 0.386028 51.617C0.396323 51.6216 0.370587 51.4642 0.386028 51.617L0.380884 51.6124ZM57.7962 55.408C57.8373 55.3478 57.8734 55.283 57.9094 55.2228C58.1719 55.1534 58.1977 55.3339 58.0484 55.5422C57.9815 55.5885 57.9146 55.6348 57.8425 55.681C57.4565 55.5607 57.0756 55.4219 56.6896 55.2969C57.019 55.3802 57.4513 55.5052 57.7962 55.4126C57.7499 55.4265 57.8373 55.3524 57.7962 55.4126V55.408ZM68.4094 43.0537C68.6564 42.452 68.8829 41.8549 69.0785 41.2346C68.9447 41.7716 68.7903 42.3039 68.605 42.8269C68.5484 42.8825 68.4866 42.9519 68.4094 43.0537ZM58.0535 55.5376C58.316 55.2598 58.4602 55.195 58.6094 55.158C58.4241 55.2876 58.2388 55.4126 58.0535 55.5376ZM0.386028 51.1726C0.386028 51.1726 0.375735 51.168 0.370588 51.1587C0.370588 51.1587 0.370588 51.1541 0.370588 51.1495L0.380884 51.1634V51.168L0.386028 51.1726ZM0.591915 50.2746C0.591915 50.2746 0.602208 50.2608 0.607355 50.2515C0.607355 50.2608 0.597062 50.27 0.591915 50.2746ZM0.401469 50.9412C0.401469 50.9412 0.391173 50.9551 0.391173 50.9643C0.406614 50.844 0.42721 50.7236 0.463239 50.6033C0.437504 50.7144 0.41691 50.8301 0.401469 50.9412C0.411763 50.8255 0.401469 50.9458 0.401469 50.9412ZM0.319114 51.0662C0.293379 51.0986 0.31397 51.0708 0.370588 50.9829L0.319114 51.0662ZM49.0513 6.77801C50.6212 7.73154 50.019 7.47233 50.6727 7.99538C49.9933 7.56027 49.2984 7.15294 48.6087 6.74561L49.0565 6.77801H49.0513ZM37.8205 6.45399L37.6404 6.60674C37.0381 6.45863 37.3109 6.42159 37.0021 6.25959C37.2749 6.31976 37.5477 6.38456 37.8153 6.45399H37.8205ZM36.9609 6.25032C37.1359 6.41233 36.5183 6.46325 36.4051 6.57434C37.5734 6.94002 37.769 6.50953 38.7676 6.94C37.069 6.76411 39.2926 7.26865 39.7249 7.63432C39.5499 7.24088 39.0558 6.89373 37.9698 6.49103C42.2778 7.59731 46.3749 9.43955 50.1013 11.6614C50.1065 11.6845 50.1013 11.703 50.0756 11.7123C50.1116 11.7123 50.1477 11.7123 50.194 11.7215C50.6624 11.9993 51.1256 12.2862 51.5837 12.5779C51.4036 12.5779 51.1925 12.5177 50.9043 12.3511C51.8616 13.4342 54.0491 14.8552 55.2227 15.1561C55.2535 15.1792 55.2896 15.207 55.3204 15.2348C55.9072 16.0494 54.3425 14.9802 53.7146 14.8182C56.5249 17.1233 59.2271 19.5349 61.6925 22.1409C62.1403 21.8863 62.2175 22.2566 62.866 22.4788L62.9381 22.8491C62.9123 22.7241 63.2057 22.7843 63.2572 22.6269C64.4668 24.0387 65.5682 25.5431 66.4998 27.1169C66.2013 26.9826 65.8822 26.8252 65.5631 26.5568C66.1807 27.1261 66.5513 27.8806 66.8859 28.6027C67.2204 29.3896 67.5807 30.1348 67.9565 30.9032C67.6065 30.7736 67.2976 30.1626 67.1123 29.8895C66.8344 29.4914 66.6285 29.0517 66.33 28.6675C66.6337 29.3016 67.3388 30.394 67.1072 30.5329L67.5241 30.5421C67.9976 31.6993 67.1432 30.4912 67.0506 30.9448C67.1998 31.3475 67.3748 31.9493 67.7917 32.2085C68.1366 32.4214 68.5329 32.1021 68.852 32.44C68.9601 32.8103 69.0528 33.1898 69.1403 33.5694C69.1145 33.7036 69.1609 33.861 69.2381 34.0461C69.2947 34.3285 69.3513 34.6155 69.3873 34.9025C69.2226 34.7358 69.0425 34.8701 68.9344 34.9534C69.3719 35.3977 69.3873 35.7125 69.3101 36.1245C69.1557 36.7447 69.1094 37.3187 69.0991 37.9528C68.9756 37.9667 68.9189 37.7584 68.852 37.5363C68.7697 37.3141 68.6822 37.0734 68.5432 37.0271C68.7851 37.9899 68.7028 39.4988 69.0682 39.7766C68.9601 40.6283 68.7028 41.3272 68.5226 41.9428C68.291 42.5538 68.08 43.0769 67.9359 43.5722C67.9719 43.3916 68.1263 42.938 67.8638 42.8269C67.6116 42.7205 67.5704 42.5353 67.555 42.29C67.5704 42.6927 67.5704 43.0954 67.5292 43.4981C67.4623 43.961 67.3954 44.4979 67.277 45.0441C67.1638 45.4746 67.066 45.9328 66.9373 46.3772C66.5822 46.9836 66.191 47.5807 65.7741 48.1593C65.6814 48.1084 65.6094 48.0251 65.5116 47.8538C63.9932 49.4044 65.5219 48.5851 64.1116 50.0987L64.7859 49.4137C64.7601 49.4507 64.7498 49.4877 64.7292 49.5201C64.1116 50.27 63.4528 50.9875 62.7476 51.6818C62.6962 51.5615 62.7116 51.4087 62.5006 51.6355C62.3873 52.5474 60.4006 53.2926 59.7726 53.8481L59.9785 53.6213L58.7638 54.2369C58.7638 54.2369 58.7535 54.223 58.7381 54.2184C58.7381 54.2554 58.7432 54.2878 58.7587 54.3248C58.5373 54.3618 58.3212 54.4313 58.105 54.5053L58.0175 54.5238C57.966 54.5331 57.9094 54.547 57.8528 54.5609C57.7447 54.5701 57.6675 54.672 57.5491 54.5794C57.4925 54.5516 57.441 54.5285 57.3793 54.51L57.2918 54.4822L57.1631 54.4498C56.6175 54.5979 55.6704 54.1443 55.1712 53.9916C54.605 53.811 53.7609 53.3574 53.1433 53.4268C53.6219 53.524 54.0028 53.6583 54.5278 53.9406L54.291 54.2461C53.2874 53.8666 54.3631 53.9082 53.3131 53.7555C53.2771 54.2739 54.6977 54.2785 55.3925 54.5563C55.0888 54.5748 54.6874 54.5563 54.2293 54.4405C54.466 54.5285 54.7028 54.6118 54.9396 54.7044C54.6153 54.5933 54.291 54.4776 53.9719 54.3619C54.0594 54.3896 54.1469 54.4174 54.2344 54.4405C53.9102 54.3156 53.5859 54.1952 53.2513 54.0934C53.0249 54.0101 52.8035 53.9268 52.5771 53.8434C52.6697 53.7879 52.6749 53.7138 52.5205 53.5935C51.5065 53.038 51.1616 53.1167 50.6624 53.1167C50.3381 52.9871 50.0241 52.8575 49.6999 52.7233C49.5764 52.4826 49.8234 52.3252 48.6859 51.8484L49.7359 52.0336C49.041 51.2282 48.7734 51.8484 48.1197 51.4781C48.2896 51.6818 48.233 51.7929 49.0359 52.1076C49.0359 52.2974 48.3925 52.1169 48.0889 52.0151L48.269 52.103C48.269 52.103 48.2278 52.1123 48.2072 52.1169C47.3991 51.7744 46.6065 51.4226 45.8139 51.0662C45.8036 51.0569 45.7933 51.0477 45.783 51.0384L46.0712 51.0986C45.3918 50.8856 44.7536 50.594 44.1205 50.2932L44.1668 50.27C44.105 50.2515 44.0433 50.2376 43.9815 50.2284C43.6778 50.0849 43.3742 49.9414 43.0756 49.7933C43.2352 49.7655 43.2609 49.7007 42.844 49.5248C43.2867 49.2887 44.4396 50.1034 44.7639 50.3024C44.5528 50.1728 44.2337 49.9784 44.1462 49.7423C44.0484 49.4739 44.733 49.7794 44.7793 49.8025C44.6609 49.4368 43.8322 49.4646 43.3999 49.1082C43.4462 49.2239 43.2352 49.2239 43.23 49.3165C43.3999 48.9878 41.408 48.3768 41.233 48.5805L42.2727 48.8675C42.2212 49.048 41.7014 48.9554 41.3925 48.9415C38.9992 47.6918 36.683 46.3263 34.4749 44.8405C34.583 44.7294 34.8918 44.7155 34.7014 44.4377C33.8109 43.6462 33.7132 44.0212 33.4815 44.16C31.3352 42.6603 29.2867 41.0448 27.372 39.3137C27.408 39.2628 27.4955 39.2489 27.6499 39.2813C27.1404 38.7073 27.3051 39.0684 27.2639 39.2119C26.9911 38.9665 26.7183 38.7258 26.4558 38.4712C26.4918 38.3833 26.5073 38.2444 26.847 38.4944C26.4713 37.9621 26.2808 38.0362 26.0801 38.1102C25.5911 37.6427 25.1124 37.1613 24.6389 36.6753C24.5926 36.5318 24.5668 36.3929 24.5668 36.2865C24.0933 35.8051 23.7999 35.6199 23.5786 35.5598C23.3419 35.3005 23.1154 35.0367 22.8838 34.7729C23.0639 34.8747 23.2183 34.9117 23.3367 34.7868C22.7036 34.4998 22.2919 34.0785 21.8698 33.5786C21.3242 32.9121 20.7838 32.2455 20.2691 31.5558C19.3117 30.2783 18.4264 28.9545 17.6338 27.589C16.033 24.8395 14.7514 21.8493 14.4426 18.7341C14.4478 18.6508 14.4426 18.5768 14.422 18.512C14.3808 18.0491 14.3706 17.5908 14.3808 17.1326C14.3808 17.1418 14.3911 17.1557 14.3963 17.1696C14.4889 16.8873 14.5095 16.7114 14.4941 16.5864C14.4941 16.4799 14.4632 16.4151 14.4272 16.355C14.4478 16.1096 14.4786 15.8597 14.5198 15.6143C14.6382 15.8643 14.8286 16.0494 14.9161 16.2762C14.8544 15.693 14.7 15.4662 14.5867 15.1978C14.6279 14.9895 14.6742 14.7858 14.7257 14.5821C14.8029 14.5127 14.875 14.5821 14.9573 14.5682C14.9573 14.3414 14.9264 14.1655 14.8956 14.0082C15.0757 13.4388 15.3125 12.8834 15.6007 12.3325C15.6316 12.3325 15.6933 12.2261 15.8992 11.7956C16.4705 10.8421 17.1757 9.95797 18.0353 9.19885C18.2103 9.13405 18.3389 9.11553 18.4161 9.14331C18.3852 9.07388 18.3904 8.9813 18.4161 8.87946C18.8897 8.4999 19.3992 8.15739 19.9397 7.84725C20.0838 7.78246 20.2433 7.71763 20.408 7.65282C20.8919 7.44916 21.4014 7.30106 21.4014 7.30106C21.6742 7.41216 21.4632 7.54174 21.1338 7.68987C20.8044 7.85187 20.3514 8.0509 20.1455 8.2916C20.5367 8.09719 20.9588 7.92133 21.3139 7.68063C21.6382 7.45844 21.9007 7.1807 22.2455 6.97241C22.4874 6.89372 22.7757 6.74558 23.0794 6.58358C23.1669 6.53266 23.2595 6.48177 23.3521 6.43549C23.9132 6.26884 24.4896 6.1346 25.0713 6.01425C25.0301 6.03739 24.9838 6.05592 24.9426 6.08833C25.5396 5.93095 25.7249 6.02814 25.8999 6.07906C26.0749 6.13461 26.2396 6.16238 26.8161 5.9726C26.6308 5.92169 26.3838 5.85226 26.1161 5.82448C26.8058 5.71802 27.5007 5.63469 28.1955 5.57914C28.4271 5.59303 28.5455 5.65321 28.3963 5.81522C29.019 5.75967 29.472 5.6347 29.6418 5.50973C30.0124 5.49584 30.3779 5.4912 30.7382 5.4912C30.2801 5.72263 29.3021 5.79206 30.3676 5.98184C30.697 5.87538 31.0264 5.76892 31.3661 5.69023C31.5308 5.85223 33.111 5.9402 32.9926 6.25959C33.5433 6.26884 33.6514 6.15311 34.1095 6.12534C34.5007 6.34752 34.7786 6.50027 35.3602 6.36604C33.0646 5.83373 33.7749 5.79207 31.7212 5.58378C31.7727 5.51434 32.0301 5.5421 32.2874 5.56988L32.1176 5.54211C33.7492 5.63468 35.3654 5.88001 36.9609 6.24105C37.1359 6.40306 35.3654 5.88001 36.9609 6.24105V6.25032ZM0.545586 50.3533C0.545586 50.3533 0.524999 50.4042 0.514705 50.4274C0.519852 50.3996 0.530144 50.3765 0.545586 50.3533ZM1.8375 54.8479C0.952207 54.0008 0.540439 52.9362 0.401469 51.7883C0.411763 51.7975 0.422056 51.8068 0.43235 51.816C0.561026 52.7418 0.911026 53.774 1.57499 54.4683C1.69338 54.6396 1.85294 54.8432 2.07941 55.0839C2.07941 55.0839 1.99191 55.0006 1.8375 54.8479C1.68309 54.7044 1.98676 55.0006 1.8375 54.8479ZM51.8616 63.999C52.366 63.8138 52.8653 63.6148 53.3594 63.4111C53.3491 63.4157 53.3388 63.425 53.3337 63.425C52.8499 63.6333 52.3712 63.8416 51.8616 63.999C52.366 63.8138 51.944 63.9712 51.8616 63.999ZM56.0668 62.2215C55.2227 62.6751 54.4506 63.1288 53.7609 63.587C53.1124 63.8184 52.8962 63.7814 52.9785 63.6842C53.03 63.6194 53.1947 63.5176 53.4109 63.3926C54.6513 62.8788 55.8506 62.3002 57.0138 61.6661C56.6947 61.8651 56.391 62.0734 56.0668 62.2261C55.2227 62.6798 56.391 62.0734 56.0668 62.2261V62.2215ZM108.237 64.0499C108.042 64.1332 107.851 64.2119 107.656 64.2952C107.743 64.2258 107.954 64.1425 108.237 64.0499Z" fill="#FFE093"/>
<path d="M46.0869 51.1166C46.3906 51.2141 46.6943 51.2884 46.998 51.3163L46.0869 51.1166Z" fill="#FFE093"/>
<path d="M43.4196 49.127C43.4042 49.0852 43.363 49.0387 43.2705 48.9644C43.3116 49.0248 43.363 49.0805 43.4196 49.127Z" fill="#FFE093"/>
<path d="M67.1082 30.546H66.918C67.0105 30.5742 67.0722 30.5695 67.1082 30.546Z" fill="#FFE093"/>
<path d="M48.1032 52.0337L48.0621 52.0149C47.8719 51.949 47.9439 51.9819 48.1032 52.0337Z" fill="#FFE093"/>
<path d="M47.7275 51.1535C47.8766 51.3159 48.0103 51.4272 48.1285 51.5015C48.0617 51.4133 47.9589 51.3066 47.7275 51.1535Z" fill="#FFE093"/>
<path d="M50.0765 11.7246C50.0354 11.7246 49.9891 11.7246 49.9531 11.734C50.0148 11.734 50.0508 11.734 50.0765 11.7246Z" fill="#FFE093"/>
<path d="M58.7498 54.2327C58.7395 54.1769 58.7446 54.1166 58.7549 54.0655C58.6881 54.1537 58.6829 54.2141 58.7498 54.2327Z" fill="#FFE093"/>
<path d="M58.8898 53.4926C59.1211 53.5203 58.8178 53.761 58.751 54.0665C58.9926 53.7333 59.7894 53.1084 58.8898 53.4926Z" fill="#FFE093"/>
<path d="M47.153 10.893L45.9795 10.4533L46.2626 10.7773C46.489 10.7773 47.2971 11.055 47.1582 10.893H47.153Z" fill="#FFE093"/>
<path d="M44.2098 9.39697C43.8598 9.19331 43.5201 8.98039 43.1598 8.79524L42.1973 8.92483C43.4017 9.39233 43.0208 8.87392 44.2098 9.39697Z" fill="#FFE093"/>
<path d="M41.149 7.89319L41.4574 7.87437C41.1952 7.83671 41.1284 7.85082 41.149 7.89319Z" fill="#FFE093"/>
<path d="M41.0223 8.05947L40.4355 8.22149C40.4355 8.22149 40.837 8.28628 41.2333 8.35571C41.6297 8.44366 42.0208 8.52698 42.0208 8.52698L41.4855 8.24463C41.5319 8.12428 41.1767 7.95764 41.1458 7.8882L40.4819 7.92524C40.6311 7.94376 40.9348 7.98541 41.0223 8.05947Z" fill="#FFE093"/>
<path d="M39.7256 7.64042C39.7461 7.68279 39.7821 7.72985 39.7924 7.77222C39.8181 7.73926 39.7924 7.69221 39.7256 7.64042Z" fill="#FFE093"/>
<path d="M22.71 7.00391L23.446 6.81411L23.621 6.58267C23.3173 6.71691 23.0136 6.86041 22.7151 6.99927L22.71 7.00391Z" fill="#FFE093"/>
<path d="M18.4277 9.16456C18.4432 9.20222 18.4586 9.23518 18.4894 9.26343C18.4997 9.21165 18.474 9.17868 18.4277 9.16456Z" fill="#FFE093"/>
<path d="M14.9307 16.2938C14.9409 16.4141 14.9564 16.5159 14.9718 16.6641C14.9872 16.5206 14.9718 16.4049 14.9307 16.2938Z" fill="#FFE093"/>
<path d="M18.8085 9.16179L18.5566 9.49585L18.8651 9.39841L18.8085 9.16179Z" fill="#FFE093"/>
<path d="M15.0693 17.0667L15.2852 17.4092L15.2236 17.15C15.239 16.9324 15.0848 16.8445 15.0693 17.0667Z" fill="#FFE093"/>
<path d="M14.9579 19.0685L14.9271 18.1566L14.7061 18.7352L14.9579 19.0685Z" fill="#FFE093"/>
<path d="M39.9356 47.4648C39.2614 46.8492 38.3555 46.7057 37.5938 46.229C38.1908 46.7752 39.2151 47.2195 39.9356 47.4648Z" fill="#FFE093"/>
<path d="M46.5189 49.6409C46.2667 49.6363 45.9578 49.553 46.385 49.7844L45.3145 49.8909C46.4417 50.5806 46.4417 49.8585 46.5137 49.6409C46.4417 49.8585 46.2615 49.6363 46.5137 49.6409H46.5189Z" fill="#FFE093"/>
<path d="M53.7152 52.5014L52.449 52.2468L53.0512 52.4829C52.66 52.5615 52.4027 52.5754 51.8828 52.5662C52.8093 52.7883 53.7306 52.9133 53.7152 52.5014Z" fill="#FFE093"/>
<path d="M50.7842 52.2365C50.9178 52.2829 51.0721 52.3294 51.2263 52.3851C51.1235 52.2783 51.0823 52.1715 50.7842 52.2365Z" fill="#FFE093"/>
<path d="M51.7022 52.562C51.7741 52.562 51.8256 52.562 51.8872 52.5667C51.6611 52.5156 51.44 52.4505 51.2344 52.3855C51.3115 52.4645 51.4143 52.5574 51.7073 52.562C51.7793 52.562 51.4143 52.5574 51.7073 52.562H51.7022Z" fill="#FFE093"/>
<path d="M54.4922 53.0662C55.1767 53.3069 55.8819 53.5106 56.5767 53.7189L55.8304 53.3624C55.5319 53.6031 54.9451 52.8672 54.4922 53.0616V53.0662Z" fill="#FFE093"/>
<path d="M64.3998 47.6033C64.3277 48.2606 63.1542 49.7417 62.4336 50.3389L62.8402 50.3898C63.3189 49.9593 63.6123 49.3946 63.9159 48.8576C64.1784 48.404 64.4512 47.7884 64.9762 47.5246C64.7137 47.5755 65.2799 46.5525 64.3998 47.6033C65.2748 46.5525 64.3277 48.2606 64.3998 47.6033Z" fill="#FFE093"/>
<path d="M64.9756 47.5253C65.0013 47.5206 65.0373 47.5064 65.0835 47.4735C65.0476 47.4876 65.0116 47.5064 64.9756 47.5253Z" fill="#FFE093"/>
<path d="M65.805 46.8817C65.7844 47.1039 66.0106 46.8725 66.1854 46.7753C66.4784 46.405 66.5863 45.9051 66.3345 46.0578C66.5401 46.5762 65.8153 46.354 65.805 46.8817C65.8101 46.354 65.7844 47.1039 65.805 46.8817Z" fill="#FFE093"/>
<path d="M68.2067 41.5779C68.1348 41.9343 67.996 42.4203 68.2479 41.9436C68.5049 40.879 68.0474 41.0734 67.9497 40.5133C67.523 41.3187 67.8572 42.1982 68.2067 41.5825C67.8572 42.1982 68.1348 41.939 68.2067 41.5825V41.5779Z" fill="#FFE093"/>
<path d="M68.8305 33.5316L68.2959 32.9484L68.301 33.2585L68.8305 33.5316Z" fill="#FFE093"/>
<path d="M65.3821 27.2134C65.3821 27.0977 65.3821 26.9866 65.3821 26.9866L64.6572 26.408C64.6572 26.408 65.4078 27.4356 65.3821 27.4495C65.3821 27.4495 65.3821 27.3337 65.3821 27.218C65.3821 27.3384 65.3821 27.1023 65.3821 27.218V27.2134Z" fill="#FFE093"/>
<path d="M64.7274 25.871C64.7274 25.871 64.568 25.6349 64.4035 25.4081C64.2288 25.1859 64.0488 24.9591 64.0488 24.9591L64.1928 25.334C64.4292 25.82 64.5064 25.5655 64.7223 25.871H64.7274Z" fill="#FFE093"/>
<path d="M63.1587 23.8222C63.3543 23.9981 63.555 24.1786 63.555 24.1786C63.555 24.1786 63.3234 23.9287 63.0918 23.6741C62.8447 23.438 62.5977 23.1973 62.5977 23.1973C62.716 23.2899 62.7366 23.3871 62.7521 23.475C62.7521 23.475 62.9682 23.637 63.1638 23.8222C63.3594 23.9981 62.9682 23.6417 63.1638 23.8222H63.1587Z" fill="#FFE093"/>
<path d="M93.2852 65.2435C92.2867 65.2713 91.2985 65.3224 90.3926 65.406L93.2852 65.2435Z" fill="#FFE093"/>
<path d="M104.843 65.1787C104.617 65.1739 104.375 65.1881 104.134 65.2069C104.252 65.2163 104.463 65.2116 104.843 65.1787Z" fill="#FFE093"/>
<path d="M36.7973 61.4305L37.0081 61.254C36.8076 61.3376 36.7562 61.3934 36.7973 61.4305Z" fill="#FFE093"/>
<path d="M86.1523 65.0909L86.2963 65.1003C86.9337 65.1191 86.687 65.105 86.1523 65.0909Z" fill="#FFE093"/>
<path d="M86.8447 65.6221C87.1793 65.6826 87.6374 65.7757 88.533 65.8315C87.8484 65.7431 87.308 65.6547 86.8447 65.6221Z" fill="#FFE093"/>
<path d="M12.5344 11.4518C12.5241 11.3265 12.5189 11.2198 12.5138 11.1409C12.5035 11.3265 12.5138 11.4239 12.5344 11.4518Z" fill="#FFE093"/>
<path d="M26.8672 66.7158C26.5481 66.6644 26.2342 66.613 25.915 66.5663C26.229 66.6223 26.5481 66.6691 26.8672 66.7158Z" fill="#FFE093"/>
<path d="M49.3696 65.5063C49.2873 65.5808 49.1742 65.6599 49.0303 65.7344C49.3798 65.5994 49.5135 65.5202 49.3696 65.5063Z" fill="#FFE093"/>
<path d="M47.1577 66.3737C47.1577 66.3737 46.1643 66.5959 46.1849 66.6792C46.2158 66.7857 47.4305 66.5542 47.5077 66.545C46.9621 66.5357 48.2643 66.1608 49.0364 65.735C48.4187 65.9664 47.7856 66.1654 47.1628 66.3737C46.9518 66.4293 47.3687 66.3043 47.1628 66.3737H47.1577Z" fill="#FFE093"/>
<path d="M17.1804 3.19899C17.4841 2.95829 17.9267 2.68984 18.3642 2.40749C19.2598 1.87518 20.2172 1.44006 20.2172 1.44006C19.8208 1.44006 19.2289 1.74094 18.8583 1.88443C18.7245 1.98627 18.462 2.13901 18.1738 2.33805C18.0245 2.44914 16.5731 3.62485 16.5576 3.62023C16.5936 3.6156 16.6297 3.6017 16.6606 3.57855C16.6606 3.57855 16.8664 3.4258 17.1753 3.19899C16.8664 3.43043 17.4789 2.95829 17.1753 3.19899H17.1804Z" fill="#FFE093"/>
<path d="M33.5135 0.266233L33.9458 0.266233C31.7789 -0.0809252 31.1458 0.00238377 30.5385 0.0255277C29.9208 0.081073 29.3135 0.0718098 27.126 0.164385C28.4848 0.141241 29.8385 0.215312 31.1819 0.377319C31.9591 0.321774 32.7311 0.289377 33.5135 0.266233C33.776 0.266233 33.251 0.270862 33.5135 0.266233Z" fill="#FFE093"/>
<path d="M38.2613 1.86815L37.3555 1.73346C38.1738 1.90996 38.354 1.92853 38.2613 1.86815Z" fill="#FFE093"/>
<path d="M40.1011 1.87098C40.1011 1.73212 37.7386 1.2785 37.5482 1.23684C36.7453 1.06095 35.7879 0.760091 34.9541 0.760091C35.5563 0.760091 36.3181 1.09798 36.8945 1.26461C36.8945 1.38033 38.1092 1.75528 38.2636 1.86174C38.9173 1.97283 39.571 2.07928 40.2144 2.21814C39.746 2.08853 38.7989 1.85712 38.485 1.71825C38.6394 1.73214 40.1011 1.82469 40.1011 1.86635V1.87098Z" fill="#FFE093"/>
<path d="M42.6778 3.15723C42.5904 3.08274 42.4568 2.9943 42.3951 2.92912C42.3437 2.94774 42.4568 3.03619 42.6778 3.15723Z" fill="#FFE093"/>
<path d="M71.6673 41.7707C71.6159 42.5067 71.5645 43.2427 71.5645 43.2427C71.5645 43.2427 71.8883 41.0162 71.8369 41.0116L71.6827 40.2988C71.6827 40.7848 71.7187 41.2847 71.6673 41.7707C71.7033 41.4051 71.6159 42.5067 71.6673 41.7707Z" fill="#FFE093"/>
<path d="M65.0132 56.1391C65.0544 56.0403 65.0132 56.0215 64.9053 56.0733C64.9156 56.1156 64.9516 56.1438 65.0132 56.1391Z" fill="#FFE093"/>
<path d="M89.96 60.0729C90.382 60.0399 90.7475 60.0117 91.293 59.9788C90.768 59.974 90.346 60.0164 89.96 60.0729Z" fill="#FFE093"/>
<path d="M65.7275 55.9126C65.7275 55.9126 65.7018 55.621 65.707 55.6118L65.085 56.3894L65.7275 55.9126Z" fill="#FFE093"/>
<path d="M93.9685 59.6387C93.9685 59.6387 93.7317 59.6666 93.4898 59.6946C93.2531 59.7132 93.0111 59.7318 93.0111 59.7318C92.2031 59.7271 91.9148 59.8714 92.7332 59.8761C92.7332 59.8761 93.042 59.8249 93.3509 59.769C93.6597 59.7039 93.9685 59.634 93.9685 59.634V59.6387Z" fill="#FFE093"/>
<path d="M99.9358 59.5926C98.8498 59.6947 97.7638 59.7503 96.6777 59.8014L98.716 59.922L99.9358 59.5926Z" fill="#FFE093"/>
<path d="M94.0312 69.0819C96.5584 68.3459 99.7857 66.9712 101.932 65.9621C99.1062 66.8694 96.7643 68.1145 94.0312 69.0819Z" fill="#FFE093"/>
<path d="M94.439 66.7062C95.1853 66.5858 96.2199 66.4979 94.5883 66.521L97.4706 65.8961C93.1214 65.8776 94.2897 66.4933 94.4339 66.7062C95.1802 66.5858 94.2846 66.4886 94.4339 66.7062H94.439Z" fill="#FFE093"/>
<path d="M70.2524 64.3372C69.2127 64.2353 68.6105 64.2585 68.8679 64.5038C70.2421 64.7214 71.6113 64.9065 72.9958 65.0824L70.8855 64.6982C71.9767 64.6751 72.7385 64.7121 74.3135 64.8093C72.7951 64.601 71.2973 64.4344 70.2576 64.3372C71.2973 64.4344 69.2179 64.2353 70.2576 64.3372H70.2524Z" fill="#FFE093"/>
<path d="M78.0035 65.2198C77.5454 65.1826 77.0307 65.1083 76.4902 65.0479C76.9329 65.1687 77.1954 65.3034 78.0035 65.2198Z" fill="#FFE093"/>
<path d="M74.8583 64.8264C74.6422 64.817 74.4929 64.8124 74.3076 64.8077C75.0488 64.8915 75.79 64.9753 76.49 65.0498C76.1708 64.9567 75.7385 64.8589 74.8635 64.8264C75.7436 64.8589 74.6473 64.817 74.8635 64.8264H74.8583Z" fill="#FFE093"/>
<path d="M65.904 63.5825C63.7989 63.0919 61.6989 62.5642 59.6298 61.9625C59.5989 61.9578 59.568 61.9486 59.5371 61.944C59.5371 61.944 59.5577 61.9532 59.5834 61.9717L59.604 61.9856C60.2577 62.2078 60.9114 62.4161 61.5702 62.6244C62.1621 62.4948 63.0062 62.916 63.5415 63.0919C64.2724 63.3233 65.1165 63.6242 65.904 63.5825Z" fill="#FFE093"/>
<path d="M22.9246 67.012C20.7886 66.7019 18.8893 66.1927 17.6489 65.6187C17.8548 65.7576 17.1754 65.6233 16.7584 65.5632C16.2437 65.4521 16.1099 65.5215 18.7143 66.3501C20.6033 66.6741 22.4768 67.1231 24.3812 67.3637C26.7231 67.7665 29.2246 67.947 30.8665 68.1044L30.1459 67.7387C27.8503 67.5813 25.2614 67.373 22.9246 67.012C20.7886 66.7019 25.2614 67.373 22.9246 67.012Z" fill="#FFE093"/>
<path d="M17.6543 65.6191C17.6028 65.582 17.4949 65.5263 17.3047 65.4519C17.4126 65.5077 17.536 65.5634 17.6543 65.6191Z" fill="#FFE093"/>
<path d="M13.7368 63.5907C13.5155 63.4981 11.3486 62.4011 11.2045 62.5724C11.1736 62.614 11.3692 62.7436 11.3692 62.7436C12.0743 62.8594 12.4192 63.1139 12.8104 63.4009C12.9854 63.5166 14.7405 64.3776 14.7508 64.2202C14.7611 64.0629 13.8707 63.6787 13.7317 63.5907C14.2309 63.9009 12.9957 63.276 13.7317 63.5907H13.7368Z" fill="#FFE093"/>
<path d="M27.4685 61.6332C27.4685 61.6332 27.2008 61.5913 26.928 61.5541C26.6604 61.5029 26.3927 61.4517 26.3927 61.4517L25.0391 61.6937C25.8471 61.6798 26.6604 61.6844 27.4685 61.6332Z" fill="#FFE093"/>
<path d="M49.2099 58.8642C49.4003 58.8642 49.6319 58.8318 49.6319 58.8318C49.6319 58.8318 49.9047 58.6466 50.0591 58.5124C50.1415 58.443 50.2033 58.3736 50.2547 58.2856C50.2496 58.2763 50.193 58.2717 50.2033 58.2717C50.1827 58.2717 50.2702 58.281 50.2136 58.2949C49.7503 58.5217 49.2768 58.7161 48.793 58.8966C48.8341 58.8873 48.9216 58.8596 48.968 58.8735C49.0297 58.8735 49.1121 58.8735 49.2099 58.8735C49.1121 58.8781 49.4003 58.8735 49.2099 58.8735V58.8642Z" fill="#FFE093"/>
<path d="M49.4263 57.7558C49.7248 57.8484 50.0336 57.8484 50.3321 57.9641C50.3321 57.9641 49.838 57.7744 49.3439 57.5846C48.5461 57.2467 47.7432 56.9088 47.7432 56.9088L48.9579 57.5475C49.1071 57.6262 49.2564 57.7095 49.4211 57.7604C49.5189 57.7928 49.3696 57.7419 49.4211 57.7604L49.4263 57.7558Z" fill="#FFE093"/>
<path d="M43.2406 54.8201C44.0538 55.1765 44.8825 55.5098 44.8825 55.5098C43.4722 54.8849 42.0877 54.2091 40.7031 53.5287C41.1612 53.7416 41.398 53.9129 41.6296 54.0841C41.6296 54.0841 42.4377 54.4544 43.2458 54.8247C44.059 55.1811 42.4377 54.4544 43.2458 54.8247L43.2406 54.8201Z" fill="#FFE093"/>
</svg>
