<svg width="637" height="9" viewBox="0 0 637 9" fill="none" xmlns="http://www.w3.org/2000/svg">
<path d="M515.671 8.18915C485.966 8.48579 460.63 8.84177 434.943 8.96043C415.373 9.05931 395.452 8.96043 375.881 8.80222C345.827 8.54513 315.947 8.12984 286.067 7.87275C246.576 7.53656 207.086 7.31903 167.595 6.94328C153.791 6.82463 140.161 6.4291 126.706 6.11269C118.843 5.9347 111.154 5.53918 103.116 5.42053C69.5668 4.90635 38.4639 3.40337 6.487 2.31568C3.51642 2.2168 0.720275 1.58396 0.0213005 1.14889C-0.328187 0.911574 3.69116 0.436951 6.487 0.33807C11.9039 0.120532 17.8453 -0.0179037 23.4368 0.00187214C40.7358 0.0216471 58.2092 0.0612002 75.5082 0.239184C98.5735 0.496272 121.464 0.911567 144.355 1.20821C152.392 1.30709 160.605 1.26753 168.643 1.24775C185.942 1.2082 203.416 1.08955 220.715 1.10932C260.206 1.16865 299.696 1.30708 339.187 1.40595C367.145 1.46528 394.928 1.48505 422.886 1.50483C463.599 1.5246 504.314 1.56415 545.028 1.46526C571.238 1.40593 595.352 2.41451 619.99 3.166C625.232 3.32421 629.95 3.81862 633.969 4.27347C638.861 4.8272 637.289 5.47981 633.095 6.03354C631.697 6.2313 629.775 6.46862 627.678 6.52795C605.137 7.12123 583.819 8.3078 560.054 8.2287C544.153 8.1496 527.903 8.18915 515.671 8.18915Z" fill="#FFE093"/>
</svg>
