<svg width="23" height="24" viewBox="0 0 23 24" fill="none" xmlns="http://www.w3.org/2000/svg">
<path d="M11.2052 0C8.98899 0 6.82259 0.690861 4.97991 1.98522C3.13723 3.27958 1.70104 5.1193 0.852947 7.27174C0.00485498 9.42418 -0.217045 11.7927 0.215309 14.0777C0.647663 16.3627 1.71485 18.4616 3.28192 20.109C4.84899 21.7564 6.84556 22.8783 9.01915 23.3328C11.1927 23.7874 13.4457 23.5541 15.4932 22.6625C17.5407 21.771 19.2907 20.2611 20.5219 18.324C21.7532 16.3868 22.4103 14.1094 22.4103 11.7796C22.4103 8.65545 21.2298 5.65927 19.1284 3.45016C17.027 1.24106 14.177 0 11.2052 0ZM9.60443 16.483L5.60258 12.276L6.87517 10.9382L9.60443 13.8074L15.5352 7.5726L16.8125 8.90706L9.60443 16.483Z" fill="white"/>
</svg>
