<svg xmlns="http://www.w3.org/2000/svg">
    <symbol id='logo' viewBox="0 0 150 98" fill="none">
        <path
            d="M31.4451 55.3039C31.6875 56.3696 31.5 57.6681 30.8959 58.4252C30.2917 59.1822 29.2822 59.2288 28.7443 58.4227C28.2159 57.6265 28.3618 56.1467 29.055 55.6224C29.0663 55.615 29.0853 55.544 29.0853 55.544C28.0474 54.8825 26.8902 55.9678 26.5284 57.3986C26.1837 58.7633 26.4621 60.292 27.0209 61.4166C29.0644 65.5179 34.0114 64.3615 35.8921 60.3239C37.8087 56.2079 36.339 51.0703 33.2538 48.8922C30.6989 47.0915 27.5379 46.942 24.7178 47.3855C20.6894 48.02 16.1648 50.0266 12.1023 52.3785C12.7784 48.8505 14.4754 39.766 14.7709 37.8378C15.0985 39.7268 16.4508 46.7191 16.8049 48.4635C19.0474 47.4639 20.9527 46.8342 22.5152 46.4398L19.0682 30.113C16.25 32.7492 12.7557 32.83 10.0341 33.1436V33.4107C10.0341 33.4107 11.1781 33.5332 11.8561 34.6969C12.4394 35.699 12.3447 37.0269 12.1553 38.1441L9.02654 54.4586C7.96972 55.2157 6.99813 55.7767 5.76896 55.8281C4.27654 55.8918 3.87502 53.7261 4.77275 52.7412C5.39207 52.0625 6.41669 52.1752 7.07199 53.1454C7.64586 51.548 5.38071 48.9559 3.34472 49.8845C1.30874 50.813 0.369341 54.3876 1.05495 56.5534C1.68752 58.5526 3.1004 60.101 5.39775 59.9049C6.13639 59.8412 7.34283 59.2924 8.2576 58.4668L7.42427 62.8106C6.81252 66.0005 5.72161 67.9409 4.89396 68.6759C4.06631 69.4134 3.32199 69.776 3.32199 69.776V70.3714H12.3788V69.8078C10.0076 68.8401 9.50002 65.9467 10.1951 62.3133C10.2576 61.9899 10.769 59.2973 11.3656 56.1883C11.8485 55.9163 12.5057 55.6077 12.5057 55.6077C13.6724 55.0589 14.9546 54.5101 16.2784 53.9613C19.0682 52.8441 21.9053 52.0233 24.7216 51.6215C26.9716 51.3006 30.6705 51.9229 31.4413 55.3063H31.4451V55.3039Z"
            fill="currentColor" />
        <path
            d="M44.6666 55.3357V55.2402C44.6666 55.1373 44.6609 55.0368 44.659 54.9339V54.9021C44.6439 54.4439 44.6155 53.9809 44.5738 53.5105C44.5643 53.3978 44.553 53.29 44.5416 53.1797C44.1136 48.9902 42.7329 45.7464 41.7727 44.3622C40.284 42.2233 38.4905 41.0743 35.5814 41.1355C32.8352 41.1943 27.678 41.1551 26.5624 41.1404V41.4075C26.5624 41.4075 28.945 42.2356 28.9924 44.5655C28.9961 44.8007 29.0018 45.2613 29.0056 45.891C30.8162 46.1164 32.4147 46.7142 33.7745 47.6721C33.9999 47.8314 34.2177 48.0053 34.428 48.1891V43.7644C34.428 42.9681 35.0037 42.2968 35.8882 42.9191C37.6022 44.7223 39.4374 48.4635 39.5567 55.3039C39.5567 55.4533 39.5605 55.6003 39.5605 55.7473C39.5605 55.8943 39.5605 56.0413 39.5567 56.1908C39.4393 63.0312 37.6022 66.7723 35.8882 68.5755C35.0037 69.1978 34.428 68.529 34.428 67.7303V64.0577C33.3465 64.8858 32.0946 65.3587 30.8238 65.3587C30.1855 65.3587 29.5757 65.2337 29.0075 65.001C29.0037 65.7776 28.998 66.3411 28.9942 66.6131C28.981 67.3309 28.8465 67.9508 28.5189 68.4898C26.4014 66.5812 26.1079 63.1831 25.2083 59.1455L23.9412 53.1405C22.0549 53.4713 20.0965 54.0029 18.0908 54.7208C18.6552 57.4917 19.1192 59.7727 19.1192 59.7727C19.2954 60.6424 19.4677 61.4901 19.6344 62.3035C20.3711 65.9246 19.8219 68.8328 17.4507 69.8005V70.364C17.4507 70.364 34.2878 70.3346 35.5852 70.364C38.4961 70.4253 40.2878 69.2762 41.7764 67.1374C42.7386 65.7531 44.1174 62.5093 44.5454 58.3198C44.5567 58.2096 44.5662 58.0993 44.5776 57.9915C44.6192 57.5187 44.6477 57.0556 44.6628 56.5975V56.5656C44.6666 56.4627 44.6685 56.3598 44.6704 56.2594V56.1638C44.6704 56.083 44.6704 55.9997 44.6742 55.9188V55.5807C44.6742 55.4999 44.6742 55.419 44.6704 55.3357H44.6666Z"
            fill="currentColor" />
        <path
            d="M98.2216 37.3551C87.6913 28.8977 82.1932 41.133 88.8674 43.7374C87.3977 41.2825 90.0739 35.8337 96.2633 40.2927V59.7481C96.2841 64.4766 94.3977 64.2659 94.1705 64.2806V64.5501C97.7633 65.8903 100.809 67.985 103.739 70.1459V69.7662C103.119 69.215 101.559 67.8405 101.646 64.2537V43.7839C106.11 45.543 111 44.7468 111.316 38.4135C107.841 44.2396 102.326 40.6504 98.2235 37.3551H98.2216Z"
            fill="currentColor" />
        <path
            d="M136.483 71.1896C136.358 70.93 136.239 70.6629 136.129 70.3934C135.905 69.8593 135.714 69.3276 135.566 68.8033C135.186 67.5661 134.911 66.346 134.667 65.4199C133.261 60.1156 131.328 57.9939 129.686 57.1462C131.013 56.7934 134.203 55.3161 134.203 49.2646C134.203 41.6206 129.057 41.1698 127.267 41.1698L114.523 41.1355V41.4026C115.265 41.6598 116.292 42.532 116.292 44.198C116.292 46.1678 116.305 60.025 116.305 60.025C116.305 65.3194 115.422 67.2672 112.549 67.2672C108.936 67.2672 109.135 62.5044 109.135 59.9123V44.9305C108.142 45.5504 106.939 45.8812 105.563 45.8812C105.053 45.8812 104.529 45.8346 103.994 45.7488C104.004 50.7248 104.006 60.6742 104.006 60.6816C104.006 62.5705 103.93 64.4987 104.413 66.3068C104.767 67.6323 105.383 68.7568 106.381 69.602L106.466 69.678C109.08 72.0422 114.032 71.4837 115.019 70.8614C115.148 70.8075 115.26 70.7462 115.366 70.6849C115.447 70.6409 115.523 70.5967 115.591 70.5502C116.691 69.798 117.504 68.5608 117.953 67.0663C118.449 65.4174 118.508 61.4435 118.506 59.6942C118.506 59.6942 118.508 45.6753 118.511 44.198C118.511 43.4703 118.818 42.8284 119.218 42.3384H119.235C120.379 42.679 120.498 44.8938 120.498 46.5965L120.519 64.0871C120.519 65.1308 120.523 66.3362 120.527 67.4142L120.523 67.3922C120.493 71.3391 120.627 75.656 118.909 77.3269C118.496 77.7287 117.894 78.1158 117.159 77.8928C115.082 77.2607 115.042 73.6617 116.945 72.8409C113.479 71.4273 111.332 75.0729 112.689 77.7458C112.229 77.5572 111.75 77.3416 111.246 77.0844C105 73.4216 97.68 65.4174 89.1024 64.8C82.9262 64.3541 77.0721 68.1345 77.8618 75.7883C78.6062 83.0697 88.2482 83.2338 86.1743 74.3894C86.144 77.322 82.0531 78.0986 82.4073 73.7817C82.8637 68.2031 92.3789 68.6392 95.9471 70.903C89.4565 72.1427 93.8883 83.5695 98.4205 77.8659C94.0872 76.5405 97.4812 70.9789 102.186 73.5931C106.475 75.9769 108.224 77.1995 110.754 78.7994C113.748 80.6932 125.722 85.5271 125.722 69.3987V69.357L125.714 58.1948C126.032 58.1728 126.661 58.3492 127.474 59.6942C127.487 59.7163 127.5 59.7408 127.513 59.7653C128.082 60.9584 128.392 62.4456 128.731 63.722C128.974 64.6383 129.225 65.5498 129.481 66.4587C129.493 66.5028 129.502 66.5493 129.513 66.591C129.525 66.6375 129.546 66.6841 129.559 66.7331C129.701 67.2353 129.841 67.7352 129.987 68.235C130.354 69.4894 132.379 77.1187 139.739 75.9916C140.945 75.8079 142.871 74.7225 143.576 73.2207C142.54 73.892 141.278 74.2031 140.254 74.2031C138.489 74.2031 137.316 72.8826 136.493 71.1921H136.483V71.1896ZM129.451 50.127C129.451 56.0928 126.741 56.595 126.188 56.1785C125.769 55.8649 125.707 55.0393 125.707 54.0274V45.2441C125.707 44.2323 125.769 43.4066 126.188 43.093C126.741 42.6765 129.451 43.1812 129.451 49.1445V50.127Z"
            fill="currentColor" />
        <path
            d="M85.3237 27.3543C85.6078 27.4743 85.9998 27.4204 86.1096 27.075C86.5509 25.2203 86.4922 23.0643 86.5509 20.9892C86.5509 20.7932 86.6456 20.4183 86.7384 20.5849C87.4165 22.2558 88.104 23.7478 88.8464 25.3011C89.2252 26.0876 89.5604 26.8422 90.2649 26.7908C90.9581 26.6707 91.5225 25.9847 91.8369 25.2595C92.6267 22.3587 92.121 18.9728 90.9884 16.5522C90.5793 15.7486 90.1059 14.7 89.3521 14.4575C89.0093 14.3987 89.0471 15.0038 89.1286 15.3444C89.5396 17.5592 90.1684 19.698 90.3274 22.0353C90.3578 22.518 90.4828 23.1623 90.2309 23.569C88.8786 21.4351 88.0869 18.8944 86.4543 17.0373C86.1968 16.7654 85.8805 17.0422 85.7309 17.4048C84.9752 19.3771 84.6835 21.5527 84.568 23.8532C84.5055 25.0807 84.3142 26.7148 85.3218 27.3591V27.3543H85.3237Z"
            fill="currentColor" />
        <path
            d="M75.2538 20.3032C75.341 20.6976 75.6932 21.1117 76.0095 21.2293C78.1156 21.8344 80.8239 21.1117 82.6156 22.9247C82.8372 23.2848 82.6383 23.6695 82.3656 23.8508C80.7008 24.7377 78.9319 25.3673 76.9792 24.843C76.716 24.7548 76.3239 24.3996 76.4508 24.0517C77.2349 22.5204 78.5588 24.0125 79.5341 24.2134C80.0209 24.3481 81.108 24.1742 81.6421 23.449C81.8107 23.0398 81.2197 22.7875 80.8239 22.6429C79.4376 22.1603 77.4887 21.5943 76.1989 22.7238C75.8315 23.0398 75.5379 24.0125 75.7879 24.7793C76.858 26.9966 78.911 27.7414 80.8239 27.3592C82.1251 27.0995 83.6875 26.5139 84.0019 24.6201C84.1516 23.422 84.0966 22.1211 83.3088 21.2734C81.4849 19.7029 78.8675 20.5482 76.858 19.502C76.7936 19.382 76.8353 19.3403 76.9527 19.2619C79.0929 18.4142 81.6118 18.7376 83.8144 18.0541C84.1307 17.9291 84.43 17.2774 84.2879 16.9663C83.9716 16.5596 83.5626 16.4934 83.1232 16.4003C80.4565 15.8221 77.4546 15.9985 75.5379 18.3775C75.2008 18.8405 75.2216 19.7078 75.2538 20.313V20.3032Z"
            fill="currentColor" />
        <path
            d="M92.6894 25.5437C92.9261 26.6413 93.339 27.8247 93.9508 28.0035C95.9015 28.4862 97.5076 27.0774 98.983 25.6638C99.2386 25.3306 98.75 24.3212 98.5758 24.2918C97.2538 24.0884 96.0246 24.8161 94.7046 24.7769C94.8314 23.9708 94.9905 23.2799 95.3068 22.5939C96.3845 22.3906 97.9905 22.6797 98.6364 22.0329C98.8258 21.7536 98.7481 20.8691 98.5758 20.7442C97.7557 20.3816 96.6837 20.5188 95.8617 20.5775C95.9924 20.0386 96.1307 19.4359 96.2784 18.8895C96.9697 18.9704 97.6629 18.914 98.2917 18.8454C98.964 18.7768 99.7727 18.9263 100.242 18.2427C100.381 17.8973 99.8504 16.9614 99.5511 16.6723C99.2519 16.3807 99.1231 16.2558 98.9527 16.2264C97.7008 16.001 95.0474 16.6723 93.1932 17.0324C92.9413 17.0716 93.0038 17.3558 93.0663 17.5984C93.2235 18.5661 94.0417 18.4044 94.5758 18.7695C94.3561 19.4138 94.233 20.0974 93.9148 20.7025C93.6345 20.825 93.1591 20.7417 93.1288 21.3077C93.1004 21.6507 93.3163 21.8761 93.2955 22.3293C93.0019 23.2873 92.4943 24.2942 92.6875 25.5413H92.6894V25.5437Z"
            fill="currentColor" />
        <path
            d="M73.2708 16.3513C72.9204 16.3121 72.8011 16.9932 72.7367 17.3191C72.4526 19.7372 72.3352 22.4396 72.3901 25.0611C72.4128 26.0386 72.2973 27.3567 73.2405 27.5993C73.6174 27.7193 74.32 27.5993 74.375 27.2759C74.5625 24.2134 74.3087 20.7858 74.1231 17.6425C74.1041 17.3191 73.7746 16.513 73.2727 16.3513H73.2708Z"
            fill="currentColor" />
        <path
            d="M47.3978 7.68565C47.555 7.5656 47.8372 7.5656 47.8694 7.28385C47.6497 6.6787 47.0209 6.88205 46.6744 6.55865C46.8637 6.3161 47.1478 6.39695 47.3675 6.23525C53.5986 5.06905 59.735 7.53375 64.6156 12.0417C67.1971 14.4256 69.6535 17.9658 68.8031 22.2362C67.6895 26.3644 63.3259 26.999 59.9262 26.9549C59.1706 26.9426 58.5209 26.7907 57.8486 26.4698C57.8713 23.8948 57.8316 20.6976 57.7956 19.0536C59.1971 18.9483 61.9073 19.4971 63.7028 20.504C64.0494 20.7931 63.0418 21.6702 62.663 22.1186C62.4547 22.4346 63.2217 22.736 63.7331 22.6821C64.5191 22.5179 65.1819 21.7143 65.4963 20.7858C65.716 19.9013 65.3846 19.208 64.9584 18.6102C63.0399 16.513 60.3997 16.5228 57.8183 16.4444C57.7899 15.2806 57.7709 13.5436 57.5986 12.4974C57.4262 11.4562 57.0285 10.9931 56.4319 10.8314C55.9584 11.5174 55.8827 12.4068 55.8012 13.3304C55.7009 14.4574 55.6081 15.6824 55.5191 16.7163C55.5191 16.7163 54.1137 17.0691 53.2842 17.319C52.4547 17.5714 49.1971 18.9091 49.4755 21.0283C49.8448 22.9124 52.1819 25.1835 53.788 26.5114C54.3107 26.9426 54.8429 27.3224 55.4262 27.6776C55.4925 28.6552 55.6137 29.6107 56.1175 30.38C56.2804 30.5711 56.8486 30.4951 57.2842 30.38C57.8183 30.0982 57.8334 29.3608 57.8827 28.8071C58.4452 28.9345 59.1137 29.1354 60.0891 29.2922C63.9925 29.9145 68.7709 28.4861 70.913 23.4881C72.7066 18.691 69.591 14.0409 67.2539 11.4488C66.9262 11.0887 65.7653 9.87595 65.1516 9.3786C60.0418 5.2675 53.4433 2.3667 47.0209 4.7432C46.2028 5.1058 45.824 6.19605 45.699 7.16135C46.11 7.8057 46.7387 7.68565 47.3997 7.68565H47.3978ZM55.36 25.502C53.4641 24.7768 51.4584 23.4073 50.1346 21.1508C49.824 20.5212 50.985 20.1414 51.5512 19.9381C52.8012 19.4922 54.1327 19.2937 55.4869 19.2129C55.3732 21.4497 55.3486 23.934 55.36 25.502Z"
            fill="currentColor" />
        <path
            d="M71.2878 15.1043C71.8844 15.5061 72.0151 14.5996 72.3257 14.2565C74.087 15.1434 75.7878 14.0973 77.1098 12.767C78.1495 11.64 79.409 10.2655 78.9052 8.4133C78.6192 7.6881 78.0226 7.2422 77.426 7.2422C76.8276 6.23525 75.8844 5.9143 74.9374 6.076C73.017 6.51945 70.909 8.0115 70.2821 10.5497C70.1249 11.5591 70.3124 12.4852 70.8806 13.1712C70.8162 13.7935 70.7537 14.6608 71.2878 15.1067V15.1043ZM74.106 10.7849C75.0264 9.63585 76.2745 8.2026 77.4545 8.6926C77.5984 8.75385 77.6798 8.82735 77.7707 9.1385C77.9791 9.8441 77.267 10.9466 76.5908 11.466C75.551 12.1912 74.4052 12.7498 73.0851 12.5513C73.2556 11.929 73.5889 11.4268 74.106 10.7873V10.7849ZM72.1382 9.4178C72.5662 8.8788 73.176 8.3692 73.8048 8.41085C72.9204 9.2561 72.1723 10.3145 71.57 11.4758C71.2537 10.7506 71.7594 10.0229 72.1363 9.4178H72.1382Z"
            fill="currentColor" />
        <path
            d="M100.716 25.6221C99.8352 28.6037 99.0795 31.6687 98.9204 35.0129C98.9545 35.8606 99.4886 36.5858 100.057 37.0317C100.244 37.1493 100.697 37.4727 100.748 37.191C101.189 33.9692 101.818 30.8626 102.697 27.8393C103.53 27.9765 104.042 27.9496 105.151 27.3199C107.042 26.1513 108.837 23.6106 108.934 20.8299C108.96 19.3378 108.523 17.9242 107.517 17.0789C107.191 16.8192 106.856 16.9442 106.54 17.1206C104.587 18.5734 102.233 21.9348 101.691 23.4048C101.602 20.5481 103.487 18.7327 103.644 16.1136C103.648 15.4595 102.96 16.1651 102.733 16.5546C101.095 19.0561 99.3636 22.3611 100.716 25.6245V25.6221ZM107.294 19.0928C107.545 18.7817 107.704 20.3423 107.642 20.9891C107.42 22.8805 105.598 24.4853 104.682 24.816C104.375 24.9263 104.239 24.9263 103.898 24.9361C104.417 23.3901 105.816 20.7441 107.295 19.0904H107.294V19.0928Z"
            fill="currentColor" />
        <path
            d="M69.1381 68.4897C68.7101 68.2374 68.6457 67.5808 68.6457 66.7747V56.7395C68.6457 56.0976 68.729 55.8404 68.9753 55.7081C69.4298 55.4606 71.9317 56.3769 72.8105 61.3676H72.9525V47.9783H72.8105C71.9317 52.9714 69.4317 53.8853 68.9753 53.6378C68.729 53.5031 68.6457 53.2458 68.6457 52.6064V44.737C68.6457 43.931 68.7139 43.2866 69.1381 43.022C69.873 42.5663 73.7366 43.196 75.7972 50.0388H75.9393V41.1306L56.4355 41.1649V41.4565C58.2196 42.1841 58.6022 44.4944 58.0775 47.2262C57.9601 47.8338 54.8578 64.19 54.6362 65.6404C54.39 64.217 51.1097 47.8387 50.9847 47.2262C50.4317 44.5018 50.8427 42.1816 52.6268 41.454V41.16H40.9961V41.4515C43.2953 42.1792 44.7707 45.2907 45.3181 47.7676L50.087 70.3591C52.4696 70.3517 55.8844 70.3591 55.8844 70.3591L60.3029 47.2262C60.9715 44.2225 61.4355 42.9656 62.2385 42.238C62.9014 42.8774 63.3029 43.7937 63.3313 45.3862L63.3351 54.7134V56.6048L63.3313 65.9319C63.2878 68.4309 62.3256 69.2664 60.8787 69.9744V70.19H60.8806V70.3591H76.1665V59.4076H76.0245C73.9772 66.6645 70.0984 69.0532 69.1362 68.4848V68.4897H69.1381Z"
            fill="currentColor" />
        <path
            d="M78.5303 68.0634C78.5833 67.985 78.6345 67.9042 78.6894 67.8283C79.6401 66.5004 80.9091 65.4395 82.3939 64.6873L82.3883 64.3444C80.5947 64.7339 80.911 60.4243 80.9129 58.8L80.892 50.4896C80.892 50.4896 84.0151 57.6485 86.5985 63.4599C87.4261 63.3692 88.2803 63.3497 89.1534 63.4109C90.5947 63.5138 91.9981 63.7857 93.3636 64.2635C93.3617 57.5946 93.3579 44.764 93.3579 44.0559C93.3579 42.5026 93.7614 41.8607 94.6098 41.4123V41.1649L89.8939 41.1477L89.8901 41.4148C90.6326 41.672 91.2519 42.3997 91.2519 43.8329C91.2557 45.8027 91.2595 55.7252 91.2595 55.7252V58.0919L83.4754 41.1306H76.4507L76.4451 41.3756C77.0454 41.5177 78.5322 41.9048 78.536 45.5234C78.5322 49.8428 78.5303 68.061 78.5303 68.061V68.0634Z"
            fill="currentColor" />
        <path
            d="M148.491 59.4125C146.443 66.6694 142.564 69.0581 141.602 68.4897C141.174 68.2374 141.11 67.5808 141.11 66.7747V56.7395C141.11 56.0976 141.193 55.8404 141.439 55.7081C141.894 55.4607 144.396 56.3769 145.275 61.3676H145.417V47.9783H145.275C144.396 52.9714 141.896 53.8853 141.439 53.6378C141.193 53.5031 141.11 53.2458 141.11 52.6064V44.737C141.11 43.931 141.178 43.2866 141.602 43.022C142.337 42.5663 146.201 43.196 148.261 50.0388H148.403V41.1306H133.345V41.3462C134.826 42.0689 135.801 44.1808 135.801 46.817V65.4395C135.839 65.589 135.879 65.7433 135.919 65.905C136.102 66.6375 136.311 67.4681 136.563 68.2864L136.574 68.3231C136.699 68.7641 136.866 69.237 137.07 69.727C137.163 69.9524 137.256 70.1607 137.35 70.3615H148.633V59.4101H148.491V59.4125Z"
            fill="currentColor" />
    </symbol>

    <symbol id='telegram' viewBox="0 0 24 24" fill="none">
        <path
            d="M21.6 12C21.6 14.5461 20.5886 16.9879 18.7882 18.7882C16.9879 20.5886 14.5461 21.6 12 21.6C9.45392 21.6 7.01212 20.5886 5.21178 18.7882C3.41143 16.9879 2.4 14.5461 2.4 12C2.4 9.45392 3.41143 7.01212 5.21178 5.21178C7.01212 3.41143 9.45392 2.4 12 2.4C14.5461 2.4 16.9879 3.41143 18.7882 5.21178C20.5886 7.01212 21.6 9.45392 21.6 12ZM12 24C18.6276 24 24 18.6276 24 12C24 5.3724 18.6276 0 12 0C5.3724 0 0 5.3724 0 12C0 18.6276 5.3724 24 12 24ZM12.4296 8.8584C11.2632 9.344 8.9308 10.3492 5.4324 11.874C4.8636 12.0996 4.566 12.3204 4.5396 12.5364C4.494 12.9012 4.9512 13.0452 5.574 13.2408L5.8356 13.3248C6.4476 13.524 7.2732 13.7568 7.7016 13.7664C8.0904 13.7744 8.524 13.6144 9.0024 13.2864C12.2712 11.0784 13.9584 9.9628 14.064 9.9396C14.1396 9.9228 14.2428 9.9012 14.3124 9.9636C14.3832 10.026 14.376 10.1436 14.3688 10.176C14.3232 10.3692 12.528 12.0384 11.5992 12.9012C11.324 13.1604 11.0508 13.4216 10.7796 13.6848C10.2108 14.2332 9.7836 14.6448 10.8036 15.3168C11.8368 15.9984 12.8796 16.6776 13.8876 17.3964C14.3844 17.7516 14.8308 18.0684 15.3828 18.0192C15.7032 17.9892 16.0344 17.688 16.2024 16.788C16.6008 14.664 17.382 10.0584 17.562 8.16C17.5725 8.00253 17.5656 7.84438 17.5416 7.6884C17.5274 7.56286 17.4666 7.44723 17.3712 7.3644C17.2272 7.2468 17.0052 7.2228 16.9068 7.224C16.4556 7.2324 15.7632 7.4724 12.4308 8.8584"
            fill="currentColor" />
    </symbol>

    <symbol id='whatsapp' viewBox="0 0 24 24" fill="none">
        <path
            d="M20.5025 3.49206C19.3967 2.38099 18.0796 1.50002 16.6282 0.900497C15.1767 0.300974 13.6198 -0.00511579 12.0482 6.4674e-05C5.46332 6.4674e-05 0.0964826 5.34005 0.0964826 11.892C0.0964826 13.992 0.651256 16.032 1.68844 17.832L0 24L6.33166 22.344C8.0804 23.292 10.0462 23.796 12.0482 23.796C18.6332 23.796 24 18.456 24 11.904C24 8.72404 22.7578 5.73605 20.5025 3.49206ZM12.0482 21.78C10.2633 21.78 8.51457 21.3 6.98291 20.4L6.6211 20.184L2.85829 21.168L3.8593 17.52L3.61809 17.148C2.62619 15.5725 2.09961 13.7512 2.09849 11.892C2.09849 6.44405 6.5608 2.00406 12.0362 2.00406C14.6894 2.00406 17.1859 3.03606 19.0553 4.90805C19.981 5.82469 20.7147 6.9151 21.2136 8.11604C21.7126 9.31698 21.9669 10.6045 21.9618 11.904C21.9859 17.352 17.5236 21.78 12.0482 21.78ZM17.4995 14.388C17.198 14.244 15.7266 13.524 15.4613 13.416C15.1839 13.32 14.991 13.272 14.7859 13.56C14.5809 13.86 14.0141 14.532 13.8452 14.724C13.6764 14.928 13.4955 14.952 13.194 14.796C12.8925 14.652 11.9276 14.328 10.794 13.32C9.90151 12.528 9.31055 11.556 9.12965 11.256C8.9608 10.956 9.10553 10.8 9.26231 10.644C9.39497 10.512 9.56382 10.296 9.70854 10.128C9.85327 9.96004 9.91357 9.82804 10.01 9.63604C10.1065 9.43204 10.0583 9.26404 9.98593 9.12004C9.91357 8.97604 9.31055 7.51204 9.06935 6.91205C8.82814 6.33605 8.57487 6.40805 8.39397 6.39605H7.81507C7.61005 6.39605 7.29648 6.46805 7.01909 6.76805C6.75377 7.06805 5.98191 7.78804 5.98191 9.25204C5.98191 10.716 7.05528 12.132 7.2 12.324C7.34472 12.528 9.31055 15.528 12.3015 16.812C13.0131 17.124 13.5678 17.304 14.002 17.436C14.7136 17.664 15.3648 17.628 15.8834 17.556C16.4623 17.472 17.6563 16.836 17.8975 16.14C18.1508 15.444 18.1508 14.856 18.0663 14.724C17.9819 14.592 17.801 14.532 17.4995 14.388Z"
            fill="currentColor" />
    </symbol>

    <symbol id='instagram' viewBox="0 0 25 25" fill="none">
        <path
            d="M12.5012 9.375C11.6724 9.375 10.8775 9.70424 10.2915 10.2903C9.70545 10.8763 9.37621 11.6712 9.37621 12.5C9.37621 13.3288 9.70545 14.1237 10.2915 14.7097C10.8775 15.2958 11.6724 15.625 12.5012 15.625C13.33 15.625 14.1249 15.2958 14.7109 14.7097C15.297 14.1237 15.6262 13.3288 15.6262 12.5C15.6262 11.6712 15.297 10.8763 14.7109 10.2903C14.1249 9.70424 13.33 9.375 12.5012 9.375ZM12.5012 7.29166C13.8825 7.29166 15.2073 7.8404 16.1841 8.81715C17.1608 9.7939 17.7095 11.1187 17.7095 12.5C17.7095 13.8813 17.1608 15.2061 16.1841 16.1828C15.2073 17.1596 13.8825 17.7083 12.5012 17.7083C11.1199 17.7083 9.79511 17.1596 8.81836 16.1828C7.84161 15.2061 7.29287 13.8813 7.29287 12.5C7.29287 11.1187 7.84161 9.7939 8.81836 8.81715C9.79511 7.8404 11.1199 7.29166 12.5012 7.29166ZM19.272 7.03125C19.272 7.37658 19.1349 7.70777 18.8907 7.95196C18.6465 8.19615 18.3153 8.33333 17.97 8.33333C17.6246 8.33333 17.2934 8.19615 17.0492 7.95196C16.8051 7.70777 16.6679 7.37658 16.6679 7.03125C16.6679 6.68591 16.8051 6.35472 17.0492 6.11053C17.2934 5.86635 17.6246 5.72916 17.97 5.72916C18.3153 5.72916 18.6465 5.86635 18.8907 6.11053C19.1349 6.35472 19.272 6.68591 19.272 7.03125ZM12.5012 4.16666C9.92412 4.16666 9.50329 4.17395 8.30433 4.22708C7.48766 4.26562 6.93975 4.37499 6.43141 4.57291C6.00624 4.72955 5.62175 4.97982 5.30641 5.3052C4.98066 5.62043 4.73002 6.00493 4.57308 6.4302C4.37516 6.94062 4.26579 7.4875 4.22829 8.30312C4.17412 9.45312 4.16683 9.8552 4.16683 12.5C4.16683 15.0781 4.17412 15.4979 4.22725 16.6969C4.26579 17.5125 4.37516 18.0615 4.57204 18.5687C4.74912 19.0219 4.95745 19.3479 5.30329 19.6937C5.65433 20.0437 5.98037 20.2531 6.42829 20.426C6.94287 20.625 7.49079 20.7354 8.30329 20.7729C9.45329 20.8271 9.85537 20.8333 12.5002 20.8333C15.0783 20.8333 15.4981 20.826 16.697 20.7729C17.5116 20.7344 18.0595 20.625 18.5689 20.4281C18.9941 20.2715 19.3786 20.0212 19.6939 19.6958C20.045 19.3458 20.2543 19.0198 20.4272 18.5708C20.6252 18.0583 20.7356 17.5104 20.7731 16.6958C20.8272 15.5469 20.8335 15.1437 20.8335 12.5C20.8335 9.92291 20.8262 9.50208 20.7731 8.30312C20.7345 7.48854 20.6241 6.93854 20.4272 6.4302C20.2706 6.00503 20.0203 5.62054 19.695 5.3052C19.3797 4.97945 18.9952 4.72881 18.57 4.57187C18.0595 4.37395 17.5116 4.26458 16.697 4.22708C15.5481 4.17291 15.146 4.16666 12.5002 4.16666M12.5002 2.08333C15.3304 2.08333 15.6835 2.09374 16.795 2.14583C17.9033 2.19791 18.6595 2.37187 19.3231 2.6302C20.0106 2.89479 20.5897 3.25312 21.1689 3.83125C21.6988 4.3518 22.1087 4.98174 22.37 5.67708C22.6272 6.34062 22.8022 7.09687 22.8543 8.20625C22.9033 9.31666 22.9168 9.66979 22.9168 12.5C22.9168 15.3302 22.9064 15.6833 22.8543 16.7937C22.8022 17.9042 22.6272 18.6583 22.37 19.3229C22.1087 20.0183 21.6988 20.6482 21.1689 21.1687C20.6484 21.6986 20.0184 22.1085 19.3231 22.3698C18.6595 22.6271 17.9033 22.8021 16.795 22.8542C15.6835 22.9031 15.3304 22.9167 12.5002 22.9167C9.66995 22.9167 9.31683 22.9062 8.20537 22.8542C7.09704 22.8021 6.34183 22.6271 5.67725 22.3698C4.9819 22.1085 4.35197 21.6986 3.83141 21.1687C3.30152 20.6482 2.89164 20.0183 2.63037 19.3229C2.37204 18.6594 2.19808 17.9031 2.146 16.7937C2.096 15.6833 2.0835 15.3302 2.0835 12.5C2.0835 9.66979 2.09391 9.31666 2.146 8.20625C2.19808 7.09583 2.37204 6.34166 2.63037 5.67708C2.89164 4.98174 3.30152 4.3518 3.83141 3.83125C4.35197 3.30136 4.9819 2.89147 5.67725 2.6302C6.34079 2.37187 7.096 2.19791 8.20537 2.14583C9.31787 2.09687 9.671 2.08333 12.5012 2.08333"
            fill="currentColor" />
    </symbol>

    <symbol id='arrow' viewBox="0 0 60 57" fill="none">
        <path
            d="M9.60039 28.2544C9.60039 17.6308 18.7204 9.0415 30.0004 9.0415C41.2804 9.0415 50.4004 17.6308 50.4004 28.2544C50.4004 38.878 41.2804 47.4673 30.0004 47.4673C18.7204 47.4673 9.60039 38.878 9.60039 28.2544ZM48.0004 28.2544C48.0004 18.874 39.9604 11.3018 30.0004 11.3018C20.0404 11.3018 12.0004 18.874 12.0004 28.2544C12.0004 37.6348 20.0404 45.207 30.0004 45.207C39.9604 45.207 48.0004 37.6348 48.0004 28.2544Z"
            fill="currentColor" />
        <path
            d="M27.9612 37.6347L37.9213 28.2543L27.9612 18.8739L29.6413 17.2916L41.2812 28.2543L29.6413 39.2169L27.9612 37.6347Z"
            fill="currentColor" />
        <path d="M39.5996 27.1241V29.3845H19.1996V27.1241H39.5996Z" fill="currentColor" />
    </symbol>


    <symbol id='title-star' viewBox="0 0 50 50" fill="none">
        <path
            d="M19.247 48.8658C19.381 48.8296 19.4767 48.7452 19.5532 48.6607C24.9116 43.6052 28.5093 37.8016 29.9637 31.7809C30.1742 30.9363 31.8774 30.6708 33.2361 30.6105C36.0301 30.4778 38.8241 30.3451 41.5989 30.2244C44.7182 30.0796 48.2968 29.778 50 28.125C46.0578 25.4464 42.1156 22.7679 38.1925 20.1013C37.9055 19.9083 37.6184 19.7032 37.5419 19.4498C37.4653 19.1602 37.6567 18.8827 37.8481 18.6173L43.3212 11.2331C42.4027 11.1607 41.5032 11.1004 40.5847 11.028C39.4364 9.90589 38.2691 8.79585 37.1209 7.67375C34.7096 9.20608 32.2984 10.7505 29.8871 12.2949C29.5618 12.5 29.1791 12.7292 28.7198 12.7051C28.2414 12.693 27.8969 12.4035 27.6098 12.1501L22.5003 7.49276C22.2898 7.28764 21.8879 7.60135 21.6774 7.80647C21.4669 8.01158 20.7971 7.72201 21.1798 7.69788C22.0601 7.10666 21.0842 6.17761 20.1656 5.61052C19.8977 5.45367 19.5723 5.28475 19.2087 5.33301C19.0748 5.35714 18.9791 5.4416 18.96 5.52606C16.7784 3.40251 14.0035 1.53234 10.8077 0C8.81742 1.03764 9.20017 2.99228 9.71687 4.58494C11.3052 9.36293 12.53 14.1892 13.4294 19.0275C13.6782 20.3547 13.6973 21.9715 11.9367 22.7196C8.45381 24.2157 5.16228 25.8687 2.06211 27.6665C1.1244 28.2215 0.129268 28.861 0.0144467 29.6694C-0.176922 30.8277 1.56453 31.8171 3.3634 32.0584C5.18141 32.2876 7.03768 31.986 8.85568 31.7568C10.9416 31.4913 13.0467 31.3345 15.1517 31.2741C15.9172 36.1728 15.9172 41.1197 15.1517 46.0183C14.9412 47.3697 14.6925 48.8296 15.7833 50C16.7018 49.9397 17.6204 49.8914 18.5581 49.8311C17.4673 49.1313 17.6013 47.8402 18.8069 47.237C18.9791 47.5507 18.6347 47.8764 18.5007 48.2022C18.3667 48.528 18.7686 48.9985 19.247 48.8538V48.8658ZM44.4503 25.4947C44.6608 25.5068 44.6608 25.7481 44.4503 25.7601C44.2398 25.7601 44.2398 25.5068 44.4503 25.4947ZM39.8575 13.1153C39.9149 13.2601 39.7618 13.4049 39.5896 13.5256C39.3599 13.4291 39.2642 13.2239 39.3599 13.0671H39.3216C39.3599 12.9102 39.7809 12.9585 39.8383 13.1153H39.8575ZM37.2357 16.3248C37.5228 16.6988 37.5036 17.1573 37.1974 17.5314V17.5796C37.1974 17.5796 37.14 17.5796 37.1209 17.5796C36.719 17.5796 36.4128 17.2659 36.4894 17.0005C36.5659 16.723 36.9104 16.5058 37.2357 16.3127V16.3248ZM29.1408 31.1414C28.9303 31.3465 28.3753 31.3345 28.1648 31.1414C28.3753 30.9363 28.9303 30.9363 29.1408 31.1414ZM23.859 41.735C23.6868 41.2042 23.7442 40.6371 24.0313 40.1182C24.3566 40.6612 24.6054 41.3851 23.859 41.735ZM27.2271 33.265C27.3037 33.1202 27.7247 33.2046 27.6673 33.3374C27.5142 33.3374 27.3611 33.3494 27.208 33.3615L27.2462 33.265H27.2271ZM27.1888 34.8094H27.1123C27.0932 34.9059 26.9592 34.9541 26.8061 34.9541C26.5573 34.9541 26.2703 34.8456 26.2511 34.6766C26.232 34.3991 26.6339 34.194 27.0166 34.0492C27.2271 34.2664 27.3037 34.556 27.208 34.8094H27.1888ZM26.4616 19.3653L26.6147 19.3412C26.6147 19.5946 26.3277 19.8359 25.9641 19.9324C25.5048 19.7635 25.9832 19.2085 26.4616 19.3653ZM26.1937 35.7867L25.5239 35.9315L25.3708 35.9073C25.1986 35.6178 26.1363 35.485 26.1937 35.7867ZM25.6196 37.1863C25.8493 37.3311 25.7919 37.6086 25.5048 37.7172C25.256 37.5724 25.0264 37.4155 24.7776 37.2708C24.9307 37.0898 25.39 37.0536 25.6196 37.1984V37.1863ZM24.2418 23.1902C23.8973 23.4315 23.4763 23.6124 23.0361 23.7934C22.8256 23.8779 22.5768 23.9503 22.3472 23.9503C22.2132 23.9503 22.0793 23.9262 21.9836 23.8538C21.7157 23.6486 22.0219 23.347 22.3281 23.166C23.2466 22.611 24.1652 22.0439 25.0838 21.4889C25.2177 22.1042 24.8924 22.7437 24.2418 23.1902ZM23.0935 18.1347C23.2849 18.1347 23.304 18.388 23.0935 18.4001C22.883 18.4001 22.883 18.1467 23.0935 18.1347ZM18.3285 10.0748C20.0699 11.6313 21.7922 13.1998 23.5337 14.7563C23.7059 14.9011 23.8782 15.07 23.8782 15.251C23.8782 15.4561 23.7059 15.6371 23.5337 15.806C22.7108 16.5541 21.754 17.2177 20.644 17.7968C20.089 17.64 19.9742 17.1815 19.9168 16.7954C19.6681 15.0458 19.1131 13.3084 18.2711 11.6313C18.0031 11.1124 17.7544 10.485 18.3285 10.0869V10.0748ZM15.4962 9.00096C15.5345 8.71139 15.7258 8.42181 15.5345 8.15637H15.5536C15.611 7.90299 15.3622 7.63755 14.9986 7.54102C15.2857 7.23938 16.0512 7.54102 16.2425 7.8668C16.4339 8.20463 16.5105 8.639 17.0463 8.75965C16.5487 8.80791 16.721 9.38706 16.2617 9.53185C16.2043 9.55598 16.1469 9.55598 16.0895 9.55598C15.745 9.55598 15.477 9.25434 15.4962 9.01303V9.00096ZM18.2328 46.2717C18.0223 46.2717 18.0223 46.0183 18.2328 46.0063C18.4433 46.0063 18.4433 46.2596 18.2328 46.2717ZM18.1945 19.0034C17.7926 18.4846 17.8883 17.8451 18.405 17.3624C17.7926 16.9643 17.6013 16.3851 17.4482 15.8422C17.1994 14.9614 16.9506 14.0927 16.7018 13.2119C16.5105 12.5603 16.3382 11.9088 16.1469 11.2572C16.0895 11.028 16.1851 10.666 16.5679 10.7143C16.7975 10.7384 16.8741 10.9194 16.9123 11.0642C17.3716 12.7654 17.85 14.4546 18.3093 16.1438C18.3859 16.4455 18.8834 16.6264 19.1896 16.8678C19.4958 17.1091 19.4575 17.6038 18.96 17.5917C19.4001 17.7244 19.4767 18.1226 19.247 18.388C19.0174 18.6535 18.5964 18.8224 18.1945 18.9913V19.0034Z"
            fill="#FFE093" />
    </symbol>


    <symbol id='arrow-left' viewBox="0 0 78 28" fill="none">
        <path
            d="M7.87989e-07 9.92583C4.24647 12.4124 8.49903 14.8922 12.7455 17.3788C13.3539 17.734 13.9805 18.096 14.6497 18.1097C15.3189 18.1234 16.0429 17.6998 16.268 16.9074C16.633 15.6231 15.5684 14.455 14.6497 13.7309C12.9523 12.4056 11.255 11.0735 9.5576 9.74822C15.6657 9.64575 21.7799 9.62526 27.888 9.68674C36.3323 9.76872 44.8435 10.001 53.0991 12.2553C61.3487 14.5096 69.4158 18.9363 75.4144 26.396C76.1262 27.2841 77.0448 28.2951 78 27.9194C77.9757 24.6677 75.9863 22.0035 73.9725 19.9541C67.3169 13.1707 59.0551 9.18123 50.623 7.21382C42.1909 5.24642 33.552 5.21226 24.98 5.68362C18.6772 6.02518 12.3866 6.64 6.12028 7.52123C9.67928 5.95004 12.9523 3.36098 15.611 -3.13054e-06C9.60627 0.355221 3.77802 4.0646 7.87692e-07 9.93267L7.87989e-07 9.92583ZM13.2261 13.5669C13.1653 13.683 13.0132 13.683 12.9523 13.5669C13.0132 13.4508 13.1653 13.4508 13.2261 13.5669ZM11.8329 13.0477C11.8329 13.1229 11.7173 13.1229 11.7173 13.0477C11.7234 12.9794 11.8329 12.9726 11.8329 13.0477ZM11.2732 12.1323C11.2732 12.187 11.255 12.2348 11.2124 12.2553C11.0785 12.3441 10.9447 12.0162 11.0846 11.9274C11.182 11.8659 11.2732 12.0094 11.2732 12.1323ZM8.93706 10.6226C8.87622 10.7388 8.72413 10.7388 8.66329 10.6226C8.72413 10.5065 8.87622 10.5065 8.93706 10.6226ZM8.38952 10.445C8.34693 10.527 8.25568 10.5611 8.18267 10.527L8.18267 10.5407C8.11575 10.527 8.134 10.3767 8.20092 10.3562C8.26784 10.3357 8.33477 10.3972 8.38952 10.4518L8.38952 10.445ZM7.67163 10.2742C7.67163 10.3084 7.65947 10.3425 7.62905 10.3494C7.56821 10.3494 7.57429 10.2059 7.62905 10.1991C7.65947 10.1991 7.67163 10.2401 7.67163 10.2742ZM8.65112 9.92584C8.65112 10.001 8.54161 10.001 8.53553 9.92584C8.53553 9.85752 8.65112 9.85069 8.65112 9.92584ZM75.2806 22.2904C75.3779 22.4476 75.4327 22.6662 75.5726 22.755C75.4813 22.8916 75.2745 22.8301 75.2441 22.6593L75.2258 22.6593C75.1102 22.5227 75.0007 22.3792 74.8851 22.2358C74.952 22.0513 75.1832 22.1265 75.2806 22.2904ZM10.5675 7.5144C10.6588 7.53489 10.7135 7.65102 10.7135 7.76715C10.7135 7.8218 10.7014 7.86962 10.6709 7.91061C10.5797 8.03358 10.385 7.98575 10.3424 7.82863C10.2998 7.67151 10.4337 7.48024 10.5614 7.5144L10.5675 7.5144ZM74.3193 21.3682C74.3193 21.4434 74.2037 21.4434 74.2037 21.3682C74.2098 21.2999 74.3193 21.2999 74.3193 21.3682ZM73.5163 20.1591L73.5041 20.1591C73.5954 20.2889 73.6866 20.4187 73.7779 20.5485C73.4493 20.5485 73.1512 20.1796 73.1391 19.7697C73.2912 19.6126 73.4737 19.92 73.5163 20.1591ZM72.9444 19.6741C72.9626 19.7151 72.9748 19.7629 72.9748 19.8107C72.9748 19.9063 72.9383 19.9951 72.8714 20.043C72.7497 19.9678 72.6645 19.8039 72.6585 19.6331L72.6463 19.5989C72.7375 19.5169 72.8836 19.5579 72.9444 19.6741ZM72.1231 18.7655C72.0744 18.8475 71.9892 18.8816 71.9162 18.8475L71.9162 18.8543C71.8493 18.8407 71.8676 18.6904 71.9345 18.6699C72.0014 18.6494 72.0683 18.704 72.1231 18.7587L72.1231 18.7655ZM71.1558 17.734C71.028 17.8501 70.9246 18.0004 70.8577 18.178C70.5231 18.1234 70.2189 17.8706 70.0424 17.5086C70.4196 17.4881 70.7968 17.57 71.1497 17.7408L71.1558 17.734ZM70.0364 17.0372C70.0364 17.1123 69.9208 17.1123 69.9208 17.0372C69.9208 16.9621 70.0364 16.9621 70.0364 17.0372ZM68.8683 16.9416C68.8135 16.9416 68.8074 16.7981 68.8683 16.7913C68.9291 16.7913 68.923 16.9347 68.8683 16.9416ZM69.5557 16.5932C69.501 16.5863 69.501 16.4497 69.5557 16.4429C69.6166 16.4429 69.6105 16.5863 69.5557 16.5932ZM68.9291 16.1833C68.8439 16.3062 68.631 16.2448 68.6553 16.0808L68.6553 16.0672C68.5519 16.1355 68.4059 16.0672 68.3694 15.9374C68.5702 15.9374 68.7709 16.0193 68.9291 16.1765L68.9291 16.1833ZM66.453 14.9605C66.3374 15.0835 66.1488 15.0835 66.0272 14.9673L66.0272 14.9537C66.1488 14.8307 66.3374 14.8375 66.453 14.9605ZM66.0393 14.0861L66.0272 14.1202C66.1732 14.1681 66.3253 14.2159 66.4713 14.2637C66.1975 14.4345 65.8386 14.3525 65.6195 14.0793C65.7412 13.97 65.9176 13.9768 66.0332 14.0929L66.0393 14.0861ZM64.6522 13.6625C64.6522 13.7309 64.6279 13.7992 64.5853 13.8333C64.494 13.7582 64.494 13.5669 64.5853 13.4918C64.634 13.5259 64.6522 13.5942 64.6522 13.6625ZM63.2043 13.157C63.2955 13.1912 63.3625 13.3005 63.3929 13.4166C63.3564 13.4918 63.2651 13.5191 63.2043 13.4781L63.1799 13.4508C63.113 13.5396 62.9731 13.4371 62.9853 13.3142C62.9974 13.1912 63.113 13.116 63.2043 13.1502L63.2043 13.157ZM63.4233 12.8086C63.4233 12.8086 63.4233 12.8496 63.4111 12.8701C63.3625 12.9931 63.2164 12.9726 63.1252 12.9043C63.0339 12.8291 62.9488 12.7198 62.8453 12.7198C62.9123 12.672 62.9792 12.631 63.0461 12.59L63.0644 12.6379C63.2043 12.59 63.4233 12.6652 63.4233 12.8086ZM59.7609 11.0803C60.3997 11.2238 61.002 11.5312 61.5982 11.8386C61.7989 11.9411 61.9997 12.0435 62.2005 12.1528C62.31 12.2075 62.4316 12.3441 62.4316 12.4671C62.4316 12.5012 62.4195 12.5354 62.3951 12.5695C62.3161 12.6583 62.1944 12.5832 62.1092 12.5081C61.5434 12.0367 60.8864 11.7635 60.2354 11.497C59.9981 11.4014 59.7548 11.2989 59.5175 11.2033C59.5236 11.0872 59.6574 11.0667 59.7548 11.0872L59.7609 11.0803ZM58.8544 10.6226C58.7996 10.6773 58.7327 10.7388 58.6658 10.7183C58.5989 10.6978 58.5806 10.5475 58.6475 10.5338L58.6475 10.5475C58.7205 10.5133 58.8118 10.5475 58.8544 10.6295L58.8544 10.6226ZM57.8566 10.3699C57.8566 10.4314 57.8384 10.486 57.808 10.527C57.7106 10.6431 57.522 10.5816 57.4855 10.4177C57.449 10.2537 57.595 10.083 57.7228 10.1239C57.808 10.1513 57.8566 10.2606 57.8566 10.3699ZM57.0293 10.1035C57.0293 10.1376 57.0171 10.1718 56.9867 10.1786C56.9258 10.1718 56.9319 10.0351 56.9867 10.0283C57.0171 10.0283 57.0293 10.0693 57.0293 10.1035ZM55.3075 9.21539C55.7638 9.27687 56.1958 9.57061 56.4817 10.0146C56.2445 9.9395 56.0133 9.86436 55.776 9.78921C55.0399 9.55012 54.2976 9.31102 53.5615 9.07876C53.5128 9.0651 53.4581 9.03777 53.452 8.97629C53.9387 8.96263 54.4193 9.05143 54.8817 9.24271C55.0216 9.30419 55.2041 9.35884 55.3075 9.22222L55.3075 9.21539ZM52.4664 8.72353L52.5029 8.75086C52.3447 8.8465 52.1318 8.73037 52.0832 8.5186C52.2231 8.4093 52.4299 8.52543 52.4664 8.72353ZM7.06326 8.15654C6.54005 8.39563 5.93776 8.36148 5.43281 8.05407C5.82217 7.71934 6.36363 8.29316 6.81383 8.10189C7.31878 7.89012 7.86631 7.84913 8.38343 7.98576C8.04883 8.23168 7.64122 8.29999 7.26402 8.17703C7.1971 8.15654 7.12409 8.12238 7.05717 8.15654L7.06326 8.15654ZM8.66937 8.04041C8.97964 7.74666 9.41159 7.66468 9.7827 7.82863C9.47243 8.12238 9.04048 8.20436 8.66937 8.04041ZM49.7348 8.01991C49.6862 8.10189 49.601 8.13604 49.528 8.10189L49.528 8.10872C49.461 8.09506 49.4793 7.94477 49.5462 7.92428C49.6131 7.90378 49.6801 7.95843 49.7348 8.01991ZM48.0679 7.67835C47.9097 7.77399 47.7515 7.87646 47.5994 7.9721L47.5751 7.9721C47.4656 7.86963 47.5447 7.61687 47.6724 7.56905C47.8063 7.52123 47.9401 7.59637 48.0679 7.67835ZM46.553 7.50757C46.4982 7.56222 46.4313 7.6237 46.3644 7.6032C46.2975 7.58271 46.2792 7.43242 46.3462 7.41876L46.3462 7.42559C46.4192 7.39143 46.5104 7.42559 46.553 7.50757ZM15.4528 7.34362C15.3189 7.3846 15.1912 7.46658 15.0938 7.58271C15.0087 7.50757 15.0087 7.31629 15.0999 7.24798C15.2216 7.20016 15.3615 7.23432 15.4528 7.33679L15.4528 7.34362ZM45.7256 7.33679C45.61 7.45975 45.4214 7.45975 45.2997 7.33679L45.2815 7.32312C45.2997 7.24798 45.3241 7.166 45.3484 7.09086C45.4762 7.17283 45.5979 7.25481 45.7195 7.33679L45.7256 7.33679ZM44.6123 7.15917C44.5514 7.2753 44.3933 7.2753 44.3385 7.15917C44.3993 7.04304 44.5514 7.04304 44.6123 7.15917ZM42.2822 6.75613C42.702 6.83127 43.1218 6.90642 43.5415 6.98156C42.9818 7.166 42.3674 7.09769 41.8381 6.79712C41.9719 6.70148 42.1301 6.7288 42.2822 6.75613ZM30.6561 6.46921C30.6014 6.52386 30.5344 6.58535 30.4675 6.56485C30.4006 6.54436 30.3763 6.39407 30.4493 6.38041L30.4493 6.39407C30.5223 6.35991 30.6135 6.39407 30.6561 6.47604L30.6561 6.46921ZM34.2516 6.46921C34.3125 6.35308 34.4646 6.35308 34.5254 6.46921C34.4646 6.58535 34.3125 6.58535 34.2516 6.46921ZM33.7041 6.46921C33.7041 6.39407 33.8197 6.39407 33.8197 6.46921C33.8197 6.54436 33.7102 6.54436 33.7041 6.46921ZM33.5459 6.46921C33.5459 6.46921 33.5581 6.5102 33.5581 6.52386C33.5581 6.66732 33.3451 6.78345 33.2843 6.62633C33.2174 6.45555 33.479 6.2916 33.5459 6.46238L33.5459 6.46921ZM34.9391 6.64C35.006 6.46238 35.2737 6.63999 35.2007 6.80395C35.1338 6.97473 34.8722 6.80395 34.9391 6.63316L34.9391 6.64ZM40.2563 6.72197L40.2563 6.7288C40.3354 6.69465 40.4266 6.7288 40.4692 6.81761C40.3719 6.89275 40.2502 6.9474 40.1468 6.88592C40.0434 6.82444 40.013 6.59901 40.1225 6.55119C40.165 6.60584 40.2137 6.66049 40.2624 6.72197L40.2563 6.72197ZM21.6278 6.81078C22.0111 6.66732 22.4187 6.66732 22.802 6.81078C22.4187 6.95423 22.0111 6.95423 21.6278 6.81078ZM39.508 6.64C39.508 6.56485 39.6175 6.56485 39.6236 6.64C39.6236 6.70831 39.508 6.71514 39.508 6.64ZM36.0524 6.55802C35.9125 6.5102 35.7604 6.53752 35.6387 6.63316C35.5657 6.68781 35.4927 6.76979 35.4136 6.7288C35.3224 6.68098 35.3345 6.50337 35.4136 6.4214C35.4927 6.34625 35.5961 6.34625 35.6935 6.34625C35.8395 6.34625 36.0159 6.38724 36.0585 6.55802L36.0524 6.55802ZM32.5968 6.45555C32.4995 6.55802 32.3596 6.59218 32.2379 6.54436C32.1101 6.59218 31.9702 6.55802 31.8729 6.44872C32.098 6.33259 32.3657 6.33259 32.5908 6.44872L32.5968 6.45555ZM29.9869 6.46921C29.6584 6.56485 29.3238 6.59218 28.9892 6.54436C28.9709 6.44872 29.0683 6.39407 29.1473 6.38041C29.4272 6.33942 29.7192 6.36674 29.9869 6.46921ZM28.7032 6.67415C28.3382 6.76296 27.9549 6.75613 27.5899 6.66049C27.7785 6.56485 27.961 6.44189 28.1679 6.41456C28.3686 6.3804 28.5998 6.46238 28.7032 6.68098L28.7032 6.67415ZM25.2537 6.64682C25.3511 6.48288 25.5944 6.5102 25.6674 6.69464L25.6005 6.71514C25.4849 6.7493 25.3572 6.7288 25.2537 6.64682ZM24.9435 6.53069C24.9435 6.53069 24.9435 6.55802 24.9435 6.57168C24.9435 6.70831 24.7184 6.76296 24.7062 6.60584L24.9009 6.52386L24.9435 6.53752L24.9435 6.53069ZM23.459 6.70148L23.459 6.72197C23.459 6.89275 23.2157 6.93374 23.1792 6.76979C23.313 6.76979 23.4468 6.68781 23.532 6.55119C23.605 6.59218 23.5259 6.76296 23.459 6.70148ZM20.5571 6.70148C20.6848 6.67415 20.8369 6.65366 20.9282 6.77662C20.9464 6.80395 20.9525 6.8381 20.9525 6.87226C20.9525 6.99522 20.8491 7.13184 20.7761 7.03621C20.6422 6.87226 20.4232 6.87909 20.2468 6.95423C20.0704 7.02938 19.9061 7.166 19.7236 7.22065C19.6992 7.22748 19.6688 7.23431 19.6445 7.22065C19.5654 7.19333 19.5593 7.04987 19.6141 6.97473C19.6688 6.89958 19.754 6.87909 19.8331 6.8586C20.0764 6.80394 20.3198 6.7493 20.5571 6.70148ZM19.3099 6.98156C19.2551 7.03621 19.1882 7.09769 19.1213 7.0772C19.0544 7.0567 19.03 6.90641 19.103 6.89275L19.103 6.90641C19.176 6.87226 19.2673 6.90641 19.3099 6.98839L19.3099 6.98156ZM18.2026 6.98156C17.9775 7.10452 17.7342 7.17966 17.4848 7.19333C17.576 7.13184 17.6673 7.07719 17.7585 7.01571L17.7585 7.04304C17.8437 6.8586 18.081 6.82444 18.1966 6.98156L18.2026 6.98156ZM16.0247 7.06353C16.3471 7.03621 16.6695 7.06353 16.9859 7.13185C16.8095 7.20699 16.6391 7.28896 16.4627 7.36411L16.4627 7.41876C16.3532 7.34362 16.2132 7.42559 16.0794 7.43242C15.9456 7.43242 15.7874 7.26164 15.8726 7.13185C15.9091 7.0772 15.9699 7.06353 16.0307 7.06353L16.0247 7.06353ZM14.4003 7.24798C14.4672 7.20699 14.5524 7.24114 14.595 7.31629C14.5098 7.56221 14.2299 7.66468 14.0535 7.5144C14.1204 7.35728 14.2543 7.24798 14.3942 7.22748L14.3942 7.25481L14.4003 7.24798ZM13.2261 7.31629C13.3478 7.20016 13.5303 7.20016 13.6459 7.31629C13.6033 7.39826 13.5121 7.43925 13.439 7.4051C13.36 7.43925 13.2687 7.4051 13.2261 7.31629ZM12.4291 7.42559C12.0033 7.73983 11.4922 7.80131 11.0055 7.85596C10.9812 7.85596 10.9569 7.85596 10.9325 7.85596C10.8778 7.83547 10.8534 7.73983 10.8899 7.67835C10.9204 7.63053 10.9751 7.61687 11.0238 7.61003C11.4922 7.54855 11.9607 7.48707 12.4291 7.42559ZM3.13923 6.80394C2.9263 6.93374 2.70728 7.06353 2.49435 7.18649C2.42134 7.17966 2.51868 7.04987 2.59169 7.06353L2.56127 7.03621C2.67078 6.85176 2.79245 6.68781 2.93238 6.53752C2.9993 6.62633 3.07231 6.71514 3.13923 6.80394ZM3.83278 5.90905C3.6746 6.19596 3.38258 6.35991 3.10881 6.31209L3.40083 6.14814L3.42517 6.19596C3.42517 5.95687 3.6746 5.79292 3.83278 5.90905ZM6.18111 4.89119C6.12028 5.00732 5.96209 5.00732 5.90734 4.89119C5.96818 4.77506 6.12028 4.77506 6.18111 4.89119ZM8.26176 3.40197L8.24351 3.42246C8.24351 3.42246 8.24959 3.44296 8.24959 3.45662C8.24959 3.53177 8.12792 3.58641 8.10967 3.49078C8.19484 3.43613 8.26785 3.34732 8.31043 3.23802C8.38952 3.26534 8.3226 3.46345 8.25568 3.40197L8.26176 3.40197ZM9.0709 2.45926C9.0709 2.5344 8.95531 2.5344 8.95531 2.45926C8.95531 2.38411 9.06482 2.38411 9.0709 2.45926ZM12.5691 1.41407C12.1067 1.72831 11.5348 1.74197 11.0725 2.05621C10.7987 2.24065 10.4702 2.5344 10.2147 2.30897C10.7379 2.04255 11.2611 1.77613 11.7843 1.50971C12.0398 1.37991 12.3318 1.25012 12.5752 1.40724L12.5691 1.41407ZM12.9584 1.14765L12.9402 1.16814C12.9402 1.16814 12.9463 1.18864 12.9463 1.2023C12.9463 1.27745 12.8246 1.33209 12.8063 1.24329C12.8976 1.18864 12.9645 1.09983 13.0071 0.990529C13.0862 1.01102 13.0193 1.21596 12.9523 1.15448L12.9584 1.14765ZM13.5729 0.89489L13.579 0.908557C13.579 0.922219 13.5607 0.929049 13.5425 0.929049C13.5242 0.929049 13.506 0.929047 13.506 0.89489C13.506 0.840241 13.5668 0.812918 13.6155 0.812918L13.6276 0.812918C13.6763 0.512343 14.017 0.368884 14.1995 0.56016C14.0231 0.758267 13.798 0.874402 13.5607 0.888064L13.5729 0.89489Z"
            fill="#00A9BD" />
    </symbol>

    <symbol id='arrow-right' viewBox="0 0 72 28" fill="none">
        <path
            d="M72 9.92584C68.0802 12.4124 64.1547 14.8922 60.2349 17.3788C59.6733 17.734 59.0949 18.096 58.4772 18.1097C57.8594 18.1234 57.1912 17.6998 56.9834 16.9074C56.6464 15.6231 57.6292 14.455 58.4772 13.7309C60.044 12.4056 61.6108 11.0735 63.1776 9.74823C57.5394 9.64576 51.8955 9.62527 46.2572 9.68675C38.4625 9.76872 30.606 10.001 22.9854 12.2553C15.3704 14.5096 7.92387 18.9363 2.3867 26.396C1.72965 27.2841 0.881676 28.2951 3.51352e-09 27.9194C0.0224611 24.6677 1.85882 22.0035 3.71764 19.9541C9.86131 13.1707 17.4876 9.18123 25.271 7.21383C33.0545 5.24642 41.0289 5.21227 48.9416 5.68362C54.7595 6.02519 60.5663 6.64 66.3505 7.52124C63.0653 5.95005 60.044 3.36099 57.5899 3.18317e-06C63.1327 0.35523 68.5126 4.06461 72 9.93267L72 9.92584ZM59.7913 13.5669C59.8474 13.683 59.9878 13.683 60.044 13.5669C59.9878 13.4508 59.8474 13.4508 59.7913 13.5669ZM61.0773 13.0477C61.0773 13.1229 61.184 13.1229 61.184 13.0477C61.1784 12.9794 61.0773 12.9726 61.0773 13.0477ZM61.5939 12.1323C61.5939 12.187 61.6108 12.2348 61.6501 12.2553C61.7737 12.3441 61.8972 12.0162 61.768 11.9274C61.6782 11.8659 61.5939 12.0094 61.5939 12.1323ZM63.7504 10.6226C63.8066 10.7388 63.947 10.7388 64.0031 10.6226C63.947 10.5065 63.8066 10.5065 63.7504 10.6226ZM64.2558 10.445C64.2951 10.527 64.3794 10.5612 64.4468 10.527L64.4468 10.5407C64.5085 10.527 64.4917 10.3767 64.4299 10.3562C64.3681 10.3357 64.3064 10.3972 64.2558 10.4519L64.2558 10.445ZM64.9185 10.2742C64.9185 10.3084 64.9297 10.3426 64.9578 10.3494C65.014 10.3494 65.0083 10.2059 64.9578 10.1991C64.9297 10.1991 64.9185 10.2401 64.9185 10.2742ZM64.0144 9.92584C64.0144 10.001 64.1154 10.001 64.1211 9.92584C64.1211 9.85753 64.0144 9.8507 64.0144 9.92584ZM2.51025 22.2904C2.4204 22.4476 2.36985 22.6662 2.24068 22.755C2.32492 22.8916 2.51587 22.8301 2.54395 22.6593L2.56079 22.6593C2.6675 22.5227 2.76857 22.3792 2.87527 22.2358C2.8135 22.0513 2.6001 22.1265 2.51025 22.2904ZM62.2454 7.5144C62.1611 7.5349 62.1106 7.65103 62.1106 7.76716C62.1106 7.82181 62.1218 7.86963 62.1499 7.91062C62.2341 8.03358 62.4139 7.98576 62.4532 7.82864C62.4925 7.67152 62.3689 7.48025 62.251 7.5144L62.2454 7.5144ZM3.39755 21.3682C3.39755 21.4434 3.50424 21.4434 3.50424 21.3682C3.49863 21.2999 3.39755 21.2999 3.39755 21.3682ZM4.13882 20.1591L4.15006 20.1591C4.06582 20.2889 3.98158 20.4187 3.89735 20.5485C4.2006 20.5485 4.47577 20.1796 4.487 19.7697C4.3466 19.6126 4.17814 19.92 4.13882 20.1591ZM4.6667 19.6741C4.64986 19.7151 4.63863 19.7629 4.63863 19.8107C4.63863 19.9063 4.67233 19.9951 4.7341 20.043C4.84641 19.9678 4.92504 19.8039 4.93066 19.6331L4.94189 19.5989C4.85765 19.5169 4.72286 19.5579 4.6667 19.6741ZM5.42485 18.7655C5.46977 18.8475 5.54839 18.8816 5.61578 18.8475L5.61578 18.8543C5.67755 18.8406 5.66071 18.6904 5.59893 18.6699C5.53716 18.6494 5.47539 18.704 5.42485 18.7587L5.42485 18.7655ZM6.31776 17.734C6.43569 17.8501 6.53115 18.0004 6.59292 18.178C6.90179 18.1234 7.18259 17.8706 7.34544 17.5086C6.99726 17.4881 6.64908 17.57 6.32336 17.7408L6.31776 17.734ZM7.35106 17.0372C7.35106 17.1123 7.45776 17.1123 7.45776 17.0372C7.45776 16.9621 7.35106 16.9621 7.35106 17.0372ZM8.42929 16.9416C8.47983 16.9416 8.48544 16.7981 8.42929 16.7913C8.37313 16.7913 8.37874 16.9347 8.42929 16.9416ZM7.7947 16.5932C7.84525 16.5863 7.84525 16.4497 7.7947 16.4429C7.73854 16.4429 7.74416 16.5863 7.7947 16.5932ZM8.37313 16.1833C8.45175 16.3062 8.6483 16.2448 8.62584 16.0808L8.62584 16.0672C8.72131 16.1355 8.85609 16.0672 8.88978 15.9374C8.70446 15.9374 8.51914 16.0193 8.37313 16.1765L8.37313 16.1833ZM10.6588 14.9605C10.7655 15.0835 10.9395 15.0834 11.0519 14.9673L11.0519 14.9537C10.9395 14.8307 10.7655 14.8375 10.6588 14.9605ZM11.0406 14.0861L11.0519 14.1202C10.9171 14.1681 10.7767 14.2159 10.6419 14.2637C10.8946 14.4345 11.2259 14.3525 11.4281 14.0793C11.3158 13.97 11.153 13.9768 11.0462 14.0929L11.0406 14.0861ZM12.321 13.6625C12.321 13.7309 12.3435 13.7992 12.3828 13.8333C12.467 13.7582 12.467 13.5669 12.3828 13.4918C12.3379 13.5259 12.321 13.5942 12.321 13.6625ZM13.6576 13.157C13.5733 13.1912 13.5116 13.3005 13.4835 13.4166C13.5172 13.4918 13.6014 13.5191 13.6576 13.4781L13.68 13.4508C13.7418 13.5396 13.871 13.4371 13.8597 13.3142C13.8485 13.1912 13.7418 13.116 13.6576 13.1502L13.6576 13.157ZM13.4554 12.8086C13.4554 12.8086 13.4554 12.8496 13.4667 12.8701C13.5116 12.9931 13.6464 12.9726 13.7306 12.9043C13.8148 12.8291 13.8935 12.7198 13.9889 12.7198C13.9272 12.672 13.8654 12.631 13.8036 12.59L13.7868 12.6379C13.6576 12.59 13.4554 12.6652 13.4554 12.8086ZM16.8361 11.0803C16.2465 11.2238 15.6905 11.5312 15.1402 11.8386C14.9548 11.9411 14.7695 12.0435 14.5842 12.1528C14.4831 12.2075 14.3708 12.3441 14.3708 12.4671C14.3708 12.5012 14.382 12.5354 14.4045 12.5695C14.4775 12.6584 14.5898 12.5832 14.6684 12.5081C15.1907 12.0367 15.7972 11.7635 16.3981 11.497C16.6171 11.4014 16.8417 11.2989 17.0607 11.2033C17.0551 11.0872 16.9316 11.0667 16.8417 11.0872L16.8361 11.0803ZM17.6729 10.6226C17.7234 10.6773 17.7852 10.7388 17.847 10.7183C17.9087 10.6978 17.9256 10.5475 17.8638 10.5338L17.8638 10.5475C17.7964 10.5133 17.7122 10.5475 17.6729 10.6295L17.6729 10.6226ZM18.5939 10.3699C18.5939 10.4314 18.6107 10.486 18.6388 10.527C18.7286 10.6431 18.9027 10.5816 18.9364 10.4177C18.9701 10.2537 18.8353 10.083 18.7174 10.1239C18.6388 10.1513 18.5939 10.2606 18.5939 10.3699ZM19.3576 10.1035C19.3576 10.1376 19.3688 10.1718 19.3969 10.1786C19.4531 10.1718 19.4475 10.0351 19.3969 10.0283C19.3688 10.0283 19.3576 10.0693 19.3576 10.1035ZM20.9469 9.21539C20.5257 9.27687 20.127 9.57062 19.863 10.0146C20.082 9.9395 20.2954 9.86436 20.5145 9.78922C21.194 9.55012 21.8791 9.31103 22.5586 9.07876C22.6035 9.0651 22.6541 9.03778 22.6597 8.9763C22.2104 8.96263 21.7668 9.05144 21.34 9.24271C21.2108 9.3042 21.0424 9.35884 20.9469 9.22222L20.9469 9.21539ZM23.5695 8.72354L23.5358 8.75086C23.6818 8.8465 23.8783 8.73037 23.9232 8.5186C23.7941 8.4093 23.6031 8.52543 23.5695 8.72354ZM65.4801 8.15655C65.963 8.39564 66.519 8.36148 66.9851 8.05408C66.6257 7.71934 66.1259 8.29317 65.7103 8.10189C65.2442 7.89012 64.7388 7.84914 64.2614 7.98576C64.5703 8.23169 64.9466 8.3 65.2947 8.17704C65.3565 8.15655 65.4239 8.12239 65.4857 8.15655L65.4801 8.15655ZM63.9975 8.04041C63.7111 7.74667 63.3124 7.66469 62.9698 7.82864C63.2562 8.12239 63.6549 8.20436 63.9975 8.04041ZM26.0909 8.01992C26.1359 8.10189 26.2145 8.13605 26.2819 8.10189L26.2819 8.10872C26.3437 8.09506 26.3268 7.94477 26.265 7.92428C26.2033 7.90379 26.1415 7.95844 26.0909 8.01992ZM27.6297 7.67835C27.7757 7.77399 27.9217 7.87646 28.0621 7.9721L28.0845 7.9721C28.1856 7.86963 28.1126 7.61687 27.9947 7.56905C27.8711 7.52123 27.7476 7.59638 27.6297 7.67835ZM29.028 7.50757C29.0785 7.56222 29.1403 7.6237 29.2021 7.60321C29.2639 7.58272 29.2807 7.43243 29.2189 7.41877L29.2189 7.4256C29.1515 7.39144 29.0673 7.4256 29.028 7.50757ZM57.7359 7.34362C57.8594 7.38461 57.9774 7.46659 58.0672 7.58272C58.1459 7.50757 58.1459 7.3163 58.0616 7.24799C57.9493 7.20017 57.8201 7.23432 57.7359 7.33679L57.7359 7.34362ZM29.7917 7.33679C29.8984 7.45975 30.0725 7.45975 30.1849 7.33679L30.2017 7.32313C30.1848 7.24798 30.1624 7.16601 30.1399 7.09086C30.022 7.17284 29.9097 7.25481 29.7974 7.33679L29.7917 7.33679ZM30.8194 7.15918C30.8756 7.27531 31.0216 7.27531 31.0721 7.15918C31.016 7.04305 30.8756 7.04305 30.8194 7.15918ZM32.9703 6.75613C32.5828 6.83128 32.1953 6.90642 31.8078 6.98156C32.3245 7.16601 32.8917 7.0977 33.3802 6.79712C33.2567 6.70148 33.1107 6.72881 32.9703 6.75613ZM43.7021 6.46922C43.7526 6.52387 43.8144 6.58535 43.8761 6.56486C43.9379 6.54436 43.9604 6.39407 43.893 6.38041L43.893 6.39408C43.8256 6.35992 43.7414 6.39407 43.7021 6.47605L43.7021 6.46922ZM40.3831 6.46922C40.327 6.35309 40.1866 6.35309 40.1304 6.46922C40.1866 6.58535 40.327 6.58535 40.3831 6.46922ZM40.8885 6.46922C40.8885 6.39408 40.7818 6.39408 40.7818 6.46922C40.7818 6.54436 40.8829 6.54436 40.8885 6.46922ZM41.0345 6.46922C41.0345 6.46922 41.0233 6.51021 41.0233 6.52387C41.0233 6.66732 41.2199 6.78346 41.276 6.62634C41.3378 6.45556 41.0963 6.29161 41.0345 6.46239L41.0345 6.46922ZM39.7485 6.64C39.6868 6.46239 39.4397 6.64 39.5071 6.80395C39.5688 6.97473 39.8103 6.80395 39.7485 6.63317L39.7485 6.64ZM34.8403 6.72198L34.8403 6.72881C34.7673 6.69465 34.6831 6.72881 34.6438 6.81761C34.7336 6.89276 34.846 6.94741 34.9414 6.88593C35.0369 6.82445 35.065 6.59901 34.9639 6.5512C34.9246 6.60584 34.8796 6.66049 34.8347 6.72198L34.8403 6.72198ZM52.0359 6.81078C51.6821 6.66733 51.3058 6.66733 50.952 6.81078C51.3058 6.95424 51.6821 6.95424 52.0359 6.81078ZM35.5311 6.64C35.5311 6.56486 35.43 6.56486 35.4244 6.64C35.4244 6.70831 35.5311 6.71515 35.5311 6.64ZM38.7208 6.55803C38.85 6.51021 38.9904 6.53753 39.1027 6.63317C39.1701 6.68782 39.2375 6.7698 39.3105 6.72881C39.3947 6.68099 39.3835 6.50337 39.3105 6.4214C39.2375 6.34626 39.142 6.34626 39.0522 6.34626C38.9174 6.34626 38.7545 6.38724 38.7152 6.55803L38.7208 6.55803ZM41.9106 6.45556C42.0005 6.55803 42.1296 6.59218 42.2419 6.54436C42.3599 6.59218 42.489 6.55803 42.5789 6.44873C42.3711 6.33259 42.124 6.33259 41.9162 6.44873L41.9106 6.45556ZM44.3198 6.46922C44.623 6.56486 44.9319 6.59218 45.2408 6.54436C45.2576 6.44873 45.1678 6.39407 45.0948 6.38041C44.8364 6.33942 44.5669 6.36675 44.3198 6.46922ZM45.5047 6.67416C45.8417 6.76297 46.1955 6.75613 46.5324 6.66049C46.3583 6.56486 46.1898 6.44189 45.9989 6.41457C45.8136 6.38041 45.6002 6.46239 45.5047 6.68099L45.5047 6.67416ZM48.6889 6.64683C48.599 6.48288 48.3744 6.51021 48.307 6.69465L48.3688 6.71515C48.4755 6.7493 48.5934 6.72881 48.6889 6.64683ZM48.9753 6.5307C48.9753 6.5307 48.9753 6.55803 48.9753 6.57169C48.9753 6.70831 49.1831 6.76297 49.1943 6.60585L49.0146 6.52387L48.9753 6.53753L48.9753 6.5307ZM50.3455 6.70148L50.3455 6.72198C50.3455 6.89276 50.5702 6.93375 50.6039 6.7698C50.4803 6.7698 50.3568 6.68782 50.2781 6.5512C50.2107 6.59218 50.2837 6.76297 50.3455 6.70148ZM53.0243 6.70148C52.9063 6.67416 52.7659 6.65366 52.6817 6.77663C52.6648 6.80395 52.6592 6.83811 52.6592 6.87227C52.6592 6.99523 52.7547 7.13185 52.8221 7.03622C52.9456 6.87226 53.1478 6.87909 53.3107 6.95424C53.4735 7.02938 53.6251 7.16601 53.7936 7.22066C53.8161 7.22749 53.8442 7.23432 53.8666 7.22066C53.9396 7.19333 53.9452 7.04988 53.8947 6.97473C53.8442 6.89959 53.7655 6.8791 53.6925 6.8586C53.4679 6.80395 53.2433 6.7493 53.0243 6.70148ZM54.1755 6.98156C54.226 7.03622 54.2878 7.0977 54.3496 7.0772C54.4114 7.05671 54.4338 6.90642 54.3664 6.89276L54.3664 6.90642C54.299 6.87227 54.2148 6.90642 54.1755 6.98839L54.1755 6.98156ZM55.1976 6.98156C55.4053 7.10453 55.63 7.17967 55.8602 7.19333C55.776 7.13185 55.6918 7.0772 55.6075 7.01572L55.6075 7.04305C55.5289 6.8586 55.3099 6.82444 55.2032 6.98156L55.1976 6.98156ZM57.208 7.06354C56.9104 7.03621 56.6127 7.06354 56.3207 7.13185C56.4836 7.207 56.6408 7.28897 56.8037 7.36412L56.8037 7.41877C56.9048 7.34362 57.0339 7.4256 57.1575 7.43243C57.281 7.43243 57.427 7.26165 57.3484 7.13185C57.3147 7.07721 57.2586 7.06354 57.2024 7.06354L57.208 7.06354ZM58.7074 7.24799C58.6457 7.207 58.567 7.24115 58.5277 7.3163C58.6063 7.56222 58.8647 7.66469 59.0275 7.5144C58.9658 7.35728 58.8422 7.24799 58.713 7.22749L58.713 7.25482L58.7074 7.24799ZM59.7913 7.3163C59.679 7.20016 59.5105 7.20016 59.4038 7.3163C59.4431 7.39827 59.5273 7.43926 59.5947 7.4051C59.6677 7.43926 59.752 7.4051 59.7913 7.3163ZM60.5269 7.4256C60.9201 7.73984 61.3918 7.80132 61.841 7.85597C61.8635 7.85597 61.886 7.85597 61.9084 7.85597C61.959 7.83547 61.9814 7.73984 61.9477 7.67836C61.9197 7.63054 61.8691 7.61687 61.8242 7.61004C61.3918 7.54856 60.9594 7.48708 60.5269 7.4256ZM69.1023 6.80395C69.2988 6.93375 69.501 7.06354 69.6975 7.1865C69.7649 7.17967 69.6751 7.04988 69.6077 7.06354L69.6358 7.03622C69.5347 6.85177 69.4224 6.68782 69.2932 6.53753C69.2314 6.62634 69.164 6.71515 69.1023 6.80395ZM68.4621 5.90906C68.6081 6.19597 68.8776 6.35992 69.1303 6.3121L68.8608 6.14815L68.8383 6.19597C68.8383 5.95687 68.6081 5.79292 68.4621 5.90906ZM66.2944 4.8912C66.3505 5.00733 66.4965 5.00733 66.5471 4.8912C66.4909 4.77506 66.3505 4.77506 66.2944 4.8912ZM64.3738 3.40198L64.3906 3.42248C64.3906 3.42248 64.385 3.44297 64.385 3.45663C64.385 3.53177 64.4973 3.58642 64.5142 3.49079C64.4355 3.43614 64.3681 3.34733 64.3288 3.23803C64.2558 3.26535 64.3176 3.46346 64.3794 3.40198L64.3738 3.40198ZM63.6269 2.45926C63.6269 2.53441 63.7336 2.53441 63.7336 2.45926C63.7336 2.38412 63.6325 2.38412 63.6269 2.45926ZM60.3978 1.41408C60.8246 1.72832 61.3525 1.74198 61.7793 2.05622C62.032 2.24066 62.3352 2.53441 62.5711 2.30897C62.0881 2.04255 61.6052 1.77613 61.1222 1.50972C60.8864 1.37992 60.6168 1.25013 60.3922 1.40725L60.3978 1.41408ZM60.0384 1.14766L60.0552 1.16815C60.0552 1.16815 60.0496 1.18865 60.0496 1.20231C60.0496 1.27746 60.1619 1.33211 60.1788 1.2433C60.0945 1.18865 60.0328 1.09984 59.9934 0.990535C59.9204 1.01103 59.9822 1.21597 60.044 1.15449L60.0384 1.14766ZM59.4712 0.894899L59.4656 0.908565C59.4656 0.922227 59.4824 0.929059 59.4993 0.929059C59.5161 0.929059 59.5329 0.929056 59.5329 0.894899C59.5329 0.840249 59.4768 0.812929 59.4319 0.812929L59.4206 0.812929C59.3757 0.512353 59.0612 0.368894 58.8928 0.560169C59.0556 0.758275 59.2634 0.87441 59.4824 0.888072L59.4712 0.894899Z"
            fill="#00A9BD" />
    </symbol>

</svg>