
<svg xmlns="http://www.w3.org/2000/svg">
    <symbol id='logo'  viewBox="0 0 150 98" fill="none" >
<path d="M31.4451 55.3039C31.6875 56.3696 31.5 57.6681 30.8959 58.4252C30.2917 59.1822 29.2822 59.2288 28.7443 58.4227C28.2159 57.6265 28.3618 56.1467 29.055 55.6224C29.0663 55.615 29.0853 55.544 29.0853 55.544C28.0474 54.8825 26.8902 55.9678 26.5284 57.3986C26.1837 58.7633 26.4621 60.292 27.0209 61.4166C29.0644 65.5179 34.0114 64.3615 35.8921 60.3239C37.8087 56.2079 36.339 51.0703 33.2538 48.8922C30.6989 47.0915 27.5379 46.942 24.7178 47.3855C20.6894 48.02 16.1648 50.0266 12.1023 52.3785C12.7784 48.8505 14.4754 39.766 14.7709 37.8378C15.0985 39.7268 16.4508 46.7191 16.8049 48.4635C19.0474 47.4639 20.9527 46.8342 22.5152 46.4398L19.0682 30.113C16.25 32.7492 12.7557 32.83 10.0341 33.1436V33.4107C10.0341 33.4107 11.1781 33.5332 11.8561 34.6969C12.4394 35.699 12.3447 37.0269 12.1553 38.1441L9.02654 54.4586C7.96972 55.2157 6.99813 55.7767 5.76896 55.8281C4.27654 55.8918 3.87502 53.7261 4.77275 52.7412C5.39207 52.0625 6.41669 52.1752 7.07199 53.1454C7.64586 51.548 5.38071 48.9559 3.34472 49.8845C1.30874 50.813 0.369341 54.3876 1.05495 56.5534C1.68752 58.5526 3.1004 60.101 5.39775 59.9049C6.13639 59.8412 7.34283 59.2924 8.2576 58.4668L7.42427 62.8106C6.81252 66.0005 5.72161 67.9409 4.89396 68.6759C4.06631 69.4134 3.32199 69.776 3.32199 69.776V70.3714H12.3788V69.8078C10.0076 68.8401 9.50002 65.9467 10.1951 62.3133C10.2576 61.9899 10.769 59.2973 11.3656 56.1883C11.8485 55.9163 12.5057 55.6077 12.5057 55.6077C13.6724 55.0589 14.9546 54.5101 16.2784 53.9613C19.0682 52.8441 21.9053 52.0233 24.7216 51.6215C26.9716 51.3006 30.6705 51.9229 31.4413 55.3063H31.4451V55.3039Z" fill="currentColor"/>
<path d="M44.6666 55.3357V55.2402C44.6666 55.1373 44.6609 55.0368 44.659 54.9339V54.9021C44.6439 54.4439 44.6155 53.9809 44.5738 53.5105C44.5643 53.3978 44.553 53.29 44.5416 53.1797C44.1136 48.9902 42.7329 45.7464 41.7727 44.3622C40.284 42.2233 38.4905 41.0743 35.5814 41.1355C32.8352 41.1943 27.678 41.1551 26.5624 41.1404V41.4075C26.5624 41.4075 28.945 42.2356 28.9924 44.5655C28.9961 44.8007 29.0018 45.2613 29.0056 45.891C30.8162 46.1164 32.4147 46.7142 33.7745 47.6721C33.9999 47.8314 34.2177 48.0053 34.428 48.1891V43.7644C34.428 42.9681 35.0037 42.2968 35.8882 42.9191C37.6022 44.7223 39.4374 48.4635 39.5567 55.3039C39.5567 55.4533 39.5605 55.6003 39.5605 55.7473C39.5605 55.8943 39.5605 56.0413 39.5567 56.1908C39.4393 63.0312 37.6022 66.7723 35.8882 68.5755C35.0037 69.1978 34.428 68.529 34.428 67.7303V64.0577C33.3465 64.8858 32.0946 65.3587 30.8238 65.3587C30.1855 65.3587 29.5757 65.2337 29.0075 65.001C29.0037 65.7776 28.998 66.3411 28.9942 66.6131C28.981 67.3309 28.8465 67.9508 28.5189 68.4898C26.4014 66.5812 26.1079 63.1831 25.2083 59.1455L23.9412 53.1405C22.0549 53.4713 20.0965 54.0029 18.0908 54.7208C18.6552 57.4917 19.1192 59.7727 19.1192 59.7727C19.2954 60.6424 19.4677 61.4901 19.6344 62.3035C20.3711 65.9246 19.8219 68.8328 17.4507 69.8005V70.364C17.4507 70.364 34.2878 70.3346 35.5852 70.364C38.4961 70.4253 40.2878 69.2762 41.7764 67.1374C42.7386 65.7531 44.1174 62.5093 44.5454 58.3198C44.5567 58.2096 44.5662 58.0993 44.5776 57.9915C44.6192 57.5187 44.6477 57.0556 44.6628 56.5975V56.5656C44.6666 56.4627 44.6685 56.3598 44.6704 56.2594V56.1638C44.6704 56.083 44.6704 55.9997 44.6742 55.9188V55.5807C44.6742 55.4999 44.6742 55.419 44.6704 55.3357H44.6666Z" fill="currentColor"/>
<path d="M98.2216 37.3551C87.6913 28.8977 82.1932 41.133 88.8674 43.7374C87.3977 41.2825 90.0739 35.8337 96.2633 40.2927V59.7481C96.2841 64.4766 94.3977 64.2659 94.1705 64.2806V64.5501C97.7633 65.8903 100.809 67.985 103.739 70.1459V69.7662C103.119 69.215 101.559 67.8405 101.646 64.2537V43.7839C106.11 45.543 111 44.7468 111.316 38.4135C107.841 44.2396 102.326 40.6504 98.2235 37.3551H98.2216Z" fill="currentColor"/>
<path d="M136.483 71.1896C136.358 70.93 136.239 70.6629 136.129 70.3934C135.905 69.8593 135.714 69.3276 135.566 68.8033C135.186 67.5661 134.911 66.346 134.667 65.4199C133.261 60.1156 131.328 57.9939 129.686 57.1462C131.013 56.7934 134.203 55.3161 134.203 49.2646C134.203 41.6206 129.057 41.1698 127.267 41.1698L114.523 41.1355V41.4026C115.265 41.6598 116.292 42.532 116.292 44.198C116.292 46.1678 116.305 60.025 116.305 60.025C116.305 65.3194 115.422 67.2672 112.549 67.2672C108.936 67.2672 109.135 62.5044 109.135 59.9123V44.9305C108.142 45.5504 106.939 45.8812 105.563 45.8812C105.053 45.8812 104.529 45.8346 103.994 45.7488C104.004 50.7248 104.006 60.6742 104.006 60.6816C104.006 62.5705 103.93 64.4987 104.413 66.3068C104.767 67.6323 105.383 68.7568 106.381 69.602L106.466 69.678C109.08 72.0422 114.032 71.4837 115.019 70.8614C115.148 70.8075 115.26 70.7462 115.366 70.6849C115.447 70.6409 115.523 70.5967 115.591 70.5502C116.691 69.798 117.504 68.5608 117.953 67.0663C118.449 65.4174 118.508 61.4435 118.506 59.6942C118.506 59.6942 118.508 45.6753 118.511 44.198C118.511 43.4703 118.818 42.8284 119.218 42.3384H119.235C120.379 42.679 120.498 44.8938 120.498 46.5965L120.519 64.0871C120.519 65.1308 120.523 66.3362 120.527 67.4142L120.523 67.3922C120.493 71.3391 120.627 75.656 118.909 77.3269C118.496 77.7287 117.894 78.1158 117.159 77.8928C115.082 77.2607 115.042 73.6617 116.945 72.8409C113.479 71.4273 111.332 75.0729 112.689 77.7458C112.229 77.5572 111.75 77.3416 111.246 77.0844C105 73.4216 97.68 65.4174 89.1024 64.8C82.9262 64.3541 77.0721 68.1345 77.8618 75.7883C78.6062 83.0697 88.2482 83.2338 86.1743 74.3894C86.144 77.322 82.0531 78.0986 82.4073 73.7817C82.8637 68.2031 92.3789 68.6392 95.9471 70.903C89.4565 72.1427 93.8883 83.5695 98.4205 77.8659C94.0872 76.5405 97.4812 70.9789 102.186 73.5931C106.475 75.9769 108.224 77.1995 110.754 78.7994C113.748 80.6932 125.722 85.5271 125.722 69.3987V69.357L125.714 58.1948C126.032 58.1728 126.661 58.3492 127.474 59.6942C127.487 59.7163 127.5 59.7408 127.513 59.7653C128.082 60.9584 128.392 62.4456 128.731 63.722C128.974 64.6383 129.225 65.5498 129.481 66.4587C129.493 66.5028 129.502 66.5493 129.513 66.591C129.525 66.6375 129.546 66.6841 129.559 66.7331C129.701 67.2353 129.841 67.7352 129.987 68.235C130.354 69.4894 132.379 77.1187 139.739 75.9916C140.945 75.8079 142.871 74.7225 143.576 73.2207C142.54 73.892 141.278 74.2031 140.254 74.2031C138.489 74.2031 137.316 72.8826 136.493 71.1921H136.483V71.1896ZM129.451 50.127C129.451 56.0928 126.741 56.595 126.188 56.1785C125.769 55.8649 125.707 55.0393 125.707 54.0274V45.2441C125.707 44.2323 125.769 43.4066 126.188 43.093C126.741 42.6765 129.451 43.1812 129.451 49.1445V50.127Z" fill="currentColor"/>
<path d="M85.3237 27.3543C85.6078 27.4743 85.9998 27.4204 86.1096 27.075C86.5509 25.2203 86.4922 23.0643 86.5509 20.9892C86.5509 20.7932 86.6456 20.4183 86.7384 20.5849C87.4165 22.2558 88.104 23.7478 88.8464 25.3011C89.2252 26.0876 89.5604 26.8422 90.2649 26.7908C90.9581 26.6707 91.5225 25.9847 91.8369 25.2595C92.6267 22.3587 92.121 18.9728 90.9884 16.5522C90.5793 15.7486 90.1059 14.7 89.3521 14.4575C89.0093 14.3987 89.0471 15.0038 89.1286 15.3444C89.5396 17.5592 90.1684 19.698 90.3274 22.0353C90.3578 22.518 90.4828 23.1623 90.2309 23.569C88.8786 21.4351 88.0869 18.8944 86.4543 17.0373C86.1968 16.7654 85.8805 17.0422 85.7309 17.4048C84.9752 19.3771 84.6835 21.5527 84.568 23.8532C84.5055 25.0807 84.3142 26.7148 85.3218 27.3591V27.3543H85.3237Z" fill="currentColor"/>
<path d="M75.2538 20.3032C75.341 20.6976 75.6932 21.1117 76.0095 21.2293C78.1156 21.8344 80.8239 21.1117 82.6156 22.9247C82.8372 23.2848 82.6383 23.6695 82.3656 23.8508C80.7008 24.7377 78.9319 25.3673 76.9792 24.843C76.716 24.7548 76.3239 24.3996 76.4508 24.0517C77.2349 22.5204 78.5588 24.0125 79.5341 24.2134C80.0209 24.3481 81.108 24.1742 81.6421 23.449C81.8107 23.0398 81.2197 22.7875 80.8239 22.6429C79.4376 22.1603 77.4887 21.5943 76.1989 22.7238C75.8315 23.0398 75.5379 24.0125 75.7879 24.7793C76.858 26.9966 78.911 27.7414 80.8239 27.3592C82.1251 27.0995 83.6875 26.5139 84.0019 24.6201C84.1516 23.422 84.0966 22.1211 83.3088 21.2734C81.4849 19.7029 78.8675 20.5482 76.858 19.502C76.7936 19.382 76.8353 19.3403 76.9527 19.2619C79.0929 18.4142 81.6118 18.7376 83.8144 18.0541C84.1307 17.9291 84.43 17.2774 84.2879 16.9663C83.9716 16.5596 83.5626 16.4934 83.1232 16.4003C80.4565 15.8221 77.4546 15.9985 75.5379 18.3775C75.2008 18.8405 75.2216 19.7078 75.2538 20.313V20.3032Z" fill="currentColor"/>
<path d="M92.6894 25.5437C92.9261 26.6413 93.339 27.8247 93.9508 28.0035C95.9015 28.4862 97.5076 27.0774 98.983 25.6638C99.2386 25.3306 98.75 24.3212 98.5758 24.2918C97.2538 24.0884 96.0246 24.8161 94.7046 24.7769C94.8314 23.9708 94.9905 23.2799 95.3068 22.5939C96.3845 22.3906 97.9905 22.6797 98.6364 22.0329C98.8258 21.7536 98.7481 20.8691 98.5758 20.7442C97.7557 20.3816 96.6837 20.5188 95.8617 20.5775C95.9924 20.0386 96.1307 19.4359 96.2784 18.8895C96.9697 18.9704 97.6629 18.914 98.2917 18.8454C98.964 18.7768 99.7727 18.9263 100.242 18.2427C100.381 17.8973 99.8504 16.9614 99.5511 16.6723C99.2519 16.3807 99.1231 16.2558 98.9527 16.2264C97.7008 16.001 95.0474 16.6723 93.1932 17.0324C92.9413 17.0716 93.0038 17.3558 93.0663 17.5984C93.2235 18.5661 94.0417 18.4044 94.5758 18.7695C94.3561 19.4138 94.233 20.0974 93.9148 20.7025C93.6345 20.825 93.1591 20.7417 93.1288 21.3077C93.1004 21.6507 93.3163 21.8761 93.2955 22.3293C93.0019 23.2873 92.4943 24.2942 92.6875 25.5413H92.6894V25.5437Z" fill="currentColor"/>
<path d="M73.2708 16.3513C72.9204 16.3121 72.8011 16.9932 72.7367 17.3191C72.4526 19.7372 72.3352 22.4396 72.3901 25.0611C72.4128 26.0386 72.2973 27.3567 73.2405 27.5993C73.6174 27.7193 74.32 27.5993 74.375 27.2759C74.5625 24.2134 74.3087 20.7858 74.1231 17.6425C74.1041 17.3191 73.7746 16.513 73.2727 16.3513H73.2708Z" fill="currentColor"/>
<path d="M47.3978 7.68565C47.555 7.5656 47.8372 7.5656 47.8694 7.28385C47.6497 6.6787 47.0209 6.88205 46.6744 6.55865C46.8637 6.3161 47.1478 6.39695 47.3675 6.23525C53.5986 5.06905 59.735 7.53375 64.6156 12.0417C67.1971 14.4256 69.6535 17.9658 68.8031 22.2362C67.6895 26.3644 63.3259 26.999 59.9262 26.9549C59.1706 26.9426 58.5209 26.7907 57.8486 26.4698C57.8713 23.8948 57.8316 20.6976 57.7956 19.0536C59.1971 18.9483 61.9073 19.4971 63.7028 20.504C64.0494 20.7931 63.0418 21.6702 62.663 22.1186C62.4547 22.4346 63.2217 22.736 63.7331 22.6821C64.5191 22.5179 65.1819 21.7143 65.4963 20.7858C65.716 19.9013 65.3846 19.208 64.9584 18.6102C63.0399 16.513 60.3997 16.5228 57.8183 16.4444C57.7899 15.2806 57.7709 13.5436 57.5986 12.4974C57.4262 11.4562 57.0285 10.9931 56.4319 10.8314C55.9584 11.5174 55.8827 12.4068 55.8012 13.3304C55.7009 14.4574 55.6081 15.6824 55.5191 16.7163C55.5191 16.7163 54.1137 17.0691 53.2842 17.319C52.4547 17.5714 49.1971 18.9091 49.4755 21.0283C49.8448 22.9124 52.1819 25.1835 53.788 26.5114C54.3107 26.9426 54.8429 27.3224 55.4262 27.6776C55.4925 28.6552 55.6137 29.6107 56.1175 30.38C56.2804 30.5711 56.8486 30.4951 57.2842 30.38C57.8183 30.0982 57.8334 29.3608 57.8827 28.8071C58.4452 28.9345 59.1137 29.1354 60.0891 29.2922C63.9925 29.9145 68.7709 28.4861 70.913 23.4881C72.7066 18.691 69.591 14.0409 67.2539 11.4488C66.9262 11.0887 65.7653 9.87595 65.1516 9.3786C60.0418 5.2675 53.4433 2.3667 47.0209 4.7432C46.2028 5.1058 45.824 6.19605 45.699 7.16135C46.11 7.8057 46.7387 7.68565 47.3997 7.68565H47.3978ZM55.36 25.502C53.4641 24.7768 51.4584 23.4073 50.1346 21.1508C49.824 20.5212 50.985 20.1414 51.5512 19.9381C52.8012 19.4922 54.1327 19.2937 55.4869 19.2129C55.3732 21.4497 55.3486 23.934 55.36 25.502Z" fill="currentColor"/>
<path d="M71.2878 15.1043C71.8844 15.5061 72.0151 14.5996 72.3257 14.2565C74.087 15.1434 75.7878 14.0973 77.1098 12.767C78.1495 11.64 79.409 10.2655 78.9052 8.4133C78.6192 7.6881 78.0226 7.2422 77.426 7.2422C76.8276 6.23525 75.8844 5.9143 74.9374 6.076C73.017 6.51945 70.909 8.0115 70.2821 10.5497C70.1249 11.5591 70.3124 12.4852 70.8806 13.1712C70.8162 13.7935 70.7537 14.6608 71.2878 15.1067V15.1043ZM74.106 10.7849C75.0264 9.63585 76.2745 8.2026 77.4545 8.6926C77.5984 8.75385 77.6798 8.82735 77.7707 9.1385C77.9791 9.8441 77.267 10.9466 76.5908 11.466C75.551 12.1912 74.4052 12.7498 73.0851 12.5513C73.2556 11.929 73.5889 11.4268 74.106 10.7873V10.7849ZM72.1382 9.4178C72.5662 8.8788 73.176 8.3692 73.8048 8.41085C72.9204 9.2561 72.1723 10.3145 71.57 11.4758C71.2537 10.7506 71.7594 10.0229 72.1363 9.4178H72.1382Z" fill="currentColor"/>
<path d="M100.716 25.6221C99.8352 28.6037 99.0795 31.6687 98.9204 35.0129C98.9545 35.8606 99.4886 36.5858 100.057 37.0317C100.244 37.1493 100.697 37.4727 100.748 37.191C101.189 33.9692 101.818 30.8626 102.697 27.8393C103.53 27.9765 104.042 27.9496 105.151 27.3199C107.042 26.1513 108.837 23.6106 108.934 20.8299C108.96 19.3378 108.523 17.9242 107.517 17.0789C107.191 16.8192 106.856 16.9442 106.54 17.1206C104.587 18.5734 102.233 21.9348 101.691 23.4048C101.602 20.5481 103.487 18.7327 103.644 16.1136C103.648 15.4595 102.96 16.1651 102.733 16.5546C101.095 19.0561 99.3636 22.3611 100.716 25.6245V25.6221ZM107.294 19.0928C107.545 18.7817 107.704 20.3423 107.642 20.9891C107.42 22.8805 105.598 24.4853 104.682 24.816C104.375 24.9263 104.239 24.9263 103.898 24.9361C104.417 23.3901 105.816 20.7441 107.295 19.0904H107.294V19.0928Z" fill="currentColor"/>
<path d="M69.1381 68.4897C68.7101 68.2374 68.6457 67.5808 68.6457 66.7747V56.7395C68.6457 56.0976 68.729 55.8404 68.9753 55.7081C69.4298 55.4606 71.9317 56.3769 72.8105 61.3676H72.9525V47.9783H72.8105C71.9317 52.9714 69.4317 53.8853 68.9753 53.6378C68.729 53.5031 68.6457 53.2458 68.6457 52.6064V44.737C68.6457 43.931 68.7139 43.2866 69.1381 43.022C69.873 42.5663 73.7366 43.196 75.7972 50.0388H75.9393V41.1306L56.4355 41.1649V41.4565C58.2196 42.1841 58.6022 44.4944 58.0775 47.2262C57.9601 47.8338 54.8578 64.19 54.6362 65.6404C54.39 64.217 51.1097 47.8387 50.9847 47.2262C50.4317 44.5018 50.8427 42.1816 52.6268 41.454V41.16H40.9961V41.4515C43.2953 42.1792 44.7707 45.2907 45.3181 47.7676L50.087 70.3591C52.4696 70.3517 55.8844 70.3591 55.8844 70.3591L60.3029 47.2262C60.9715 44.2225 61.4355 42.9656 62.2385 42.238C62.9014 42.8774 63.3029 43.7937 63.3313 45.3862L63.3351 54.7134V56.6048L63.3313 65.9319C63.2878 68.4309 62.3256 69.2664 60.8787 69.9744V70.19H60.8806V70.3591H76.1665V59.4076H76.0245C73.9772 66.6645 70.0984 69.0532 69.1362 68.4848V68.4897H69.1381Z" fill="currentColor"/>
<path d="M78.5303 68.0634C78.5833 67.985 78.6345 67.9042 78.6894 67.8283C79.6401 66.5004 80.9091 65.4395 82.3939 64.6873L82.3883 64.3444C80.5947 64.7339 80.911 60.4243 80.9129 58.8L80.892 50.4896C80.892 50.4896 84.0151 57.6485 86.5985 63.4599C87.4261 63.3692 88.2803 63.3497 89.1534 63.4109C90.5947 63.5138 91.9981 63.7857 93.3636 64.2635C93.3617 57.5946 93.3579 44.764 93.3579 44.0559C93.3579 42.5026 93.7614 41.8607 94.6098 41.4123V41.1649L89.8939 41.1477L89.8901 41.4148C90.6326 41.672 91.2519 42.3997 91.2519 43.8329C91.2557 45.8027 91.2595 55.7252 91.2595 55.7252V58.0919L83.4754 41.1306H76.4507L76.4451 41.3756C77.0454 41.5177 78.5322 41.9048 78.536 45.5234C78.5322 49.8428 78.5303 68.061 78.5303 68.061V68.0634Z" fill="currentColor"/>
<path d="M148.491 59.4125C146.443 66.6694 142.564 69.0581 141.602 68.4897C141.174 68.2374 141.11 67.5808 141.11 66.7747V56.7395C141.11 56.0976 141.193 55.8404 141.439 55.7081C141.894 55.4607 144.396 56.3769 145.275 61.3676H145.417V47.9783H145.275C144.396 52.9714 141.896 53.8853 141.439 53.6378C141.193 53.5031 141.11 53.2458 141.11 52.6064V44.737C141.11 43.931 141.178 43.2866 141.602 43.022C142.337 42.5663 146.201 43.196 148.261 50.0388H148.403V41.1306H133.345V41.3462C134.826 42.0689 135.801 44.1808 135.801 46.817V65.4395C135.839 65.589 135.879 65.7433 135.919 65.905C136.102 66.6375 136.311 67.4681 136.563 68.2864L136.574 68.3231C136.699 68.7641 136.866 69.237 137.07 69.727C137.163 69.9524 137.256 70.1607 137.35 70.3615H148.633V59.4101H148.491V59.4125Z" fill="currentColor"/>
</symbol>

<symbol id='telegram'  viewBox="0 0 24 24" fill="none" >
<path d="M21.6 12C21.6 14.5461 20.5886 16.9879 18.7882 18.7882C16.9879 20.5886 14.5461 21.6 12 21.6C9.45392 21.6 7.01212 20.5886 5.21178 18.7882C3.41143 16.9879 2.4 14.5461 2.4 12C2.4 9.45392 3.41143 7.01212 5.21178 5.21178C7.01212 3.41143 9.45392 2.4 12 2.4C14.5461 2.4 16.9879 3.41143 18.7882 5.21178C20.5886 7.01212 21.6 9.45392 21.6 12ZM12 24C18.6276 24 24 18.6276 24 12C24 5.3724 18.6276 0 12 0C5.3724 0 0 5.3724 0 12C0 18.6276 5.3724 24 12 24ZM12.4296 8.8584C11.2632 9.344 8.9308 10.3492 5.4324 11.874C4.8636 12.0996 4.566 12.3204 4.5396 12.5364C4.494 12.9012 4.9512 13.0452 5.574 13.2408L5.8356 13.3248C6.4476 13.524 7.2732 13.7568 7.7016 13.7664C8.0904 13.7744 8.524 13.6144 9.0024 13.2864C12.2712 11.0784 13.9584 9.9628 14.064 9.9396C14.1396 9.9228 14.2428 9.9012 14.3124 9.9636C14.3832 10.026 14.376 10.1436 14.3688 10.176C14.3232 10.3692 12.528 12.0384 11.5992 12.9012C11.324 13.1604 11.0508 13.4216 10.7796 13.6848C10.2108 14.2332 9.7836 14.6448 10.8036 15.3168C11.8368 15.9984 12.8796 16.6776 13.8876 17.3964C14.3844 17.7516 14.8308 18.0684 15.3828 18.0192C15.7032 17.9892 16.0344 17.688 16.2024 16.788C16.6008 14.664 17.382 10.0584 17.562 8.16C17.5725 8.00253 17.5656 7.84438 17.5416 7.6884C17.5274 7.56286 17.4666 7.44723 17.3712 7.3644C17.2272 7.2468 17.0052 7.2228 16.9068 7.224C16.4556 7.2324 15.7632 7.4724 12.4308 8.8584" fill="currentColor"/>
</symbol>

<symbol id='whatsapp'  viewBox="0 0 24 24" fill="none" >
<path d="M20.5025 3.49206C19.3967 2.38099 18.0796 1.50002 16.6282 0.900497C15.1767 0.300974 13.6198 -0.00511579 12.0482 6.4674e-05C5.46332 6.4674e-05 0.0964826 5.34005 0.0964826 11.892C0.0964826 13.992 0.651256 16.032 1.68844 17.832L0 24L6.33166 22.344C8.0804 23.292 10.0462 23.796 12.0482 23.796C18.6332 23.796 24 18.456 24 11.904C24 8.72404 22.7578 5.73605 20.5025 3.49206ZM12.0482 21.78C10.2633 21.78 8.51457 21.3 6.98291 20.4L6.6211 20.184L2.85829 21.168L3.8593 17.52L3.61809 17.148C2.62619 15.5725 2.09961 13.7512 2.09849 11.892C2.09849 6.44405 6.5608 2.00406 12.0362 2.00406C14.6894 2.00406 17.1859 3.03606 19.0553 4.90805C19.981 5.82469 20.7147 6.9151 21.2136 8.11604C21.7126 9.31698 21.9669 10.6045 21.9618 11.904C21.9859 17.352 17.5236 21.78 12.0482 21.78ZM17.4995 14.388C17.198 14.244 15.7266 13.524 15.4613 13.416C15.1839 13.32 14.991 13.272 14.7859 13.56C14.5809 13.86 14.0141 14.532 13.8452 14.724C13.6764 14.928 13.4955 14.952 13.194 14.796C12.8925 14.652 11.9276 14.328 10.794 13.32C9.90151 12.528 9.31055 11.556 9.12965 11.256C8.9608 10.956 9.10553 10.8 9.26231 10.644C9.39497 10.512 9.56382 10.296 9.70854 10.128C9.85327 9.96004 9.91357 9.82804 10.01 9.63604C10.1065 9.43204 10.0583 9.26404 9.98593 9.12004C9.91357 8.97604 9.31055 7.51204 9.06935 6.91205C8.82814 6.33605 8.57487 6.40805 8.39397 6.39605H7.81507C7.61005 6.39605 7.29648 6.46805 7.01909 6.76805C6.75377 7.06805 5.98191 7.78804 5.98191 9.25204C5.98191 10.716 7.05528 12.132 7.2 12.324C7.34472 12.528 9.31055 15.528 12.3015 16.812C13.0131 17.124 13.5678 17.304 14.002 17.436C14.7136 17.664 15.3648 17.628 15.8834 17.556C16.4623 17.472 17.6563 16.836 17.8975 16.14C18.1508 15.444 18.1508 14.856 18.0663 14.724C17.9819 14.592 17.801 14.532 17.4995 14.388Z" fill="currentColor"/>
</symbol>

<symbol id='instagram' viewBox="0 0 25 25" fill="none" >
<path d="M12.5012 9.375C11.6724 9.375 10.8775 9.70424 10.2915 10.2903C9.70545 10.8763 9.37621 11.6712 9.37621 12.5C9.37621 13.3288 9.70545 14.1237 10.2915 14.7097C10.8775 15.2958 11.6724 15.625 12.5012 15.625C13.33 15.625 14.1249 15.2958 14.7109 14.7097C15.297 14.1237 15.6262 13.3288 15.6262 12.5C15.6262 11.6712 15.297 10.8763 14.7109 10.2903C14.1249 9.70424 13.33 9.375 12.5012 9.375ZM12.5012 7.29166C13.8825 7.29166 15.2073 7.8404 16.1841 8.81715C17.1608 9.7939 17.7095 11.1187 17.7095 12.5C17.7095 13.8813 17.1608 15.2061 16.1841 16.1828C15.2073 17.1596 13.8825 17.7083 12.5012 17.7083C11.1199 17.7083 9.79511 17.1596 8.81836 16.1828C7.84161 15.2061 7.29287 13.8813 7.29287 12.5C7.29287 11.1187 7.84161 9.7939 8.81836 8.81715C9.79511 7.8404 11.1199 7.29166 12.5012 7.29166ZM19.272 7.03125C19.272 7.37658 19.1349 7.70777 18.8907 7.95196C18.6465 8.19615 18.3153 8.33333 17.97 8.33333C17.6246 8.33333 17.2934 8.19615 17.0492 7.95196C16.8051 7.70777 16.6679 7.37658 16.6679 7.03125C16.6679 6.68591 16.8051 6.35472 17.0492 6.11053C17.2934 5.86635 17.6246 5.72916 17.97 5.72916C18.3153 5.72916 18.6465 5.86635 18.8907 6.11053C19.1349 6.35472 19.272 6.68591 19.272 7.03125ZM12.5012 4.16666C9.92412 4.16666 9.50329 4.17395 8.30433 4.22708C7.48766 4.26562 6.93975 4.37499 6.43141 4.57291C6.00624 4.72955 5.62175 4.97982 5.30641 5.3052C4.98066 5.62043 4.73002 6.00493 4.57308 6.4302C4.37516 6.94062 4.26579 7.4875 4.22829 8.30312C4.17412 9.45312 4.16683 9.8552 4.16683 12.5C4.16683 15.0781 4.17412 15.4979 4.22725 16.6969C4.26579 17.5125 4.37516 18.0615 4.57204 18.5687C4.74912 19.0219 4.95745 19.3479 5.30329 19.6937C5.65433 20.0437 5.98037 20.2531 6.42829 20.426C6.94287 20.625 7.49079 20.7354 8.30329 20.7729C9.45329 20.8271 9.85537 20.8333 12.5002 20.8333C15.0783 20.8333 15.4981 20.826 16.697 20.7729C17.5116 20.7344 18.0595 20.625 18.5689 20.4281C18.9941 20.2715 19.3786 20.0212 19.6939 19.6958C20.045 19.3458 20.2543 19.0198 20.4272 18.5708C20.6252 18.0583 20.7356 17.5104 20.7731 16.6958C20.8272 15.5469 20.8335 15.1437 20.8335 12.5C20.8335 9.92291 20.8262 9.50208 20.7731 8.30312C20.7345 7.48854 20.6241 6.93854 20.4272 6.4302C20.2706 6.00503 20.0203 5.62054 19.695 5.3052C19.3797 4.97945 18.9952 4.72881 18.57 4.57187C18.0595 4.37395 17.5116 4.26458 16.697 4.22708C15.5481 4.17291 15.146 4.16666 12.5002 4.16666M12.5002 2.08333C15.3304 2.08333 15.6835 2.09374 16.795 2.14583C17.9033 2.19791 18.6595 2.37187 19.3231 2.6302C20.0106 2.89479 20.5897 3.25312 21.1689 3.83125C21.6988 4.3518 22.1087 4.98174 22.37 5.67708C22.6272 6.34062 22.8022 7.09687 22.8543 8.20625C22.9033 9.31666 22.9168 9.66979 22.9168 12.5C22.9168 15.3302 22.9064 15.6833 22.8543 16.7937C22.8022 17.9042 22.6272 18.6583 22.37 19.3229C22.1087 20.0183 21.6988 20.6482 21.1689 21.1687C20.6484 21.6986 20.0184 22.1085 19.3231 22.3698C18.6595 22.6271 17.9033 22.8021 16.795 22.8542C15.6835 22.9031 15.3304 22.9167 12.5002 22.9167C9.66995 22.9167 9.31683 22.9062 8.20537 22.8542C7.09704 22.8021 6.34183 22.6271 5.67725 22.3698C4.9819 22.1085 4.35197 21.6986 3.83141 21.1687C3.30152 20.6482 2.89164 20.0183 2.63037 19.3229C2.37204 18.6594 2.19808 17.9031 2.146 16.7937C2.096 15.6833 2.0835 15.3302 2.0835 12.5C2.0835 9.66979 2.09391 9.31666 2.146 8.20625C2.19808 7.09583 2.37204 6.34166 2.63037 5.67708C2.89164 4.98174 3.30152 4.3518 3.83141 3.83125C4.35197 3.30136 4.9819 2.89147 5.67725 2.6302C6.34079 2.37187 7.096 2.19791 8.20537 2.14583C9.31787 2.09687 9.671 2.08333 12.5012 2.08333" fill="currentColor"/>
</symbol>

<symbol id='arrow' viewBox="0 0 60 57" fill="none">
<path d="M9.60039 28.2544C9.60039 17.6308 18.7204 9.0415 30.0004 9.0415C41.2804 9.0415 50.4004 17.6308 50.4004 28.2544C50.4004 38.878 41.2804 47.4673 30.0004 47.4673C18.7204 47.4673 9.60039 38.878 9.60039 28.2544ZM48.0004 28.2544C48.0004 18.874 39.9604 11.3018 30.0004 11.3018C20.0404 11.3018 12.0004 18.874 12.0004 28.2544C12.0004 37.6348 20.0404 45.207 30.0004 45.207C39.9604 45.207 48.0004 37.6348 48.0004 28.2544Z" fill="currentColor"/>
<path d="M27.9612 37.6347L37.9213 28.2543L27.9612 18.8739L29.6413 17.2916L41.2812 28.2543L29.6413 39.2169L27.9612 37.6347Z" fill="currentColor"/>
<path d="M39.5996 27.1241V29.3845H19.1996V27.1241H39.5996Z" fill="currentColor"/>
</symbol>


<symbol id='title-star' viewBox="0 0 50 50" fill="none">
<path d="M19.247 48.8658C19.381 48.8296 19.4767 48.7452 19.5532 48.6607C24.9116 43.6052 28.5093 37.8016 29.9637 31.7809C30.1742 30.9363 31.8774 30.6708 33.2361 30.6105C36.0301 30.4778 38.8241 30.3451 41.5989 30.2244C44.7182 30.0796 48.2968 29.778 50 28.125C46.0578 25.4464 42.1156 22.7679 38.1925 20.1013C37.9055 19.9083 37.6184 19.7032 37.5419 19.4498C37.4653 19.1602 37.6567 18.8827 37.8481 18.6173L43.3212 11.2331C42.4027 11.1607 41.5032 11.1004 40.5847 11.028C39.4364 9.90589 38.2691 8.79585 37.1209 7.67375C34.7096 9.20608 32.2984 10.7505 29.8871 12.2949C29.5618 12.5 29.1791 12.7292 28.7198 12.7051C28.2414 12.693 27.8969 12.4035 27.6098 12.1501L22.5003 7.49276C22.2898 7.28764 21.8879 7.60135 21.6774 7.80647C21.4669 8.01158 20.7971 7.72201 21.1798 7.69788C22.0601 7.10666 21.0842 6.17761 20.1656 5.61052C19.8977 5.45367 19.5723 5.28475 19.2087 5.33301C19.0748 5.35714 18.9791 5.4416 18.96 5.52606C16.7784 3.40251 14.0035 1.53234 10.8077 0C8.81742 1.03764 9.20017 2.99228 9.71687 4.58494C11.3052 9.36293 12.53 14.1892 13.4294 19.0275C13.6782 20.3547 13.6973 21.9715 11.9367 22.7196C8.45381 24.2157 5.16228 25.8687 2.06211 27.6665C1.1244 28.2215 0.129268 28.861 0.0144467 29.6694C-0.176922 30.8277 1.56453 31.8171 3.3634 32.0584C5.18141 32.2876 7.03768 31.986 8.85568 31.7568C10.9416 31.4913 13.0467 31.3345 15.1517 31.2741C15.9172 36.1728 15.9172 41.1197 15.1517 46.0183C14.9412 47.3697 14.6925 48.8296 15.7833 50C16.7018 49.9397 17.6204 49.8914 18.5581 49.8311C17.4673 49.1313 17.6013 47.8402 18.8069 47.237C18.9791 47.5507 18.6347 47.8764 18.5007 48.2022C18.3667 48.528 18.7686 48.9985 19.247 48.8538V48.8658ZM44.4503 25.4947C44.6608 25.5068 44.6608 25.7481 44.4503 25.7601C44.2398 25.7601 44.2398 25.5068 44.4503 25.4947ZM39.8575 13.1153C39.9149 13.2601 39.7618 13.4049 39.5896 13.5256C39.3599 13.4291 39.2642 13.2239 39.3599 13.0671H39.3216C39.3599 12.9102 39.7809 12.9585 39.8383 13.1153H39.8575ZM37.2357 16.3248C37.5228 16.6988 37.5036 17.1573 37.1974 17.5314V17.5796C37.1974 17.5796 37.14 17.5796 37.1209 17.5796C36.719 17.5796 36.4128 17.2659 36.4894 17.0005C36.5659 16.723 36.9104 16.5058 37.2357 16.3127V16.3248ZM29.1408 31.1414C28.9303 31.3465 28.3753 31.3345 28.1648 31.1414C28.3753 30.9363 28.9303 30.9363 29.1408 31.1414ZM23.859 41.735C23.6868 41.2042 23.7442 40.6371 24.0313 40.1182C24.3566 40.6612 24.6054 41.3851 23.859 41.735ZM27.2271 33.265C27.3037 33.1202 27.7247 33.2046 27.6673 33.3374C27.5142 33.3374 27.3611 33.3494 27.208 33.3615L27.2462 33.265H27.2271ZM27.1888 34.8094H27.1123C27.0932 34.9059 26.9592 34.9541 26.8061 34.9541C26.5573 34.9541 26.2703 34.8456 26.2511 34.6766C26.232 34.3991 26.6339 34.194 27.0166 34.0492C27.2271 34.2664 27.3037 34.556 27.208 34.8094H27.1888ZM26.4616 19.3653L26.6147 19.3412C26.6147 19.5946 26.3277 19.8359 25.9641 19.9324C25.5048 19.7635 25.9832 19.2085 26.4616 19.3653ZM26.1937 35.7867L25.5239 35.9315L25.3708 35.9073C25.1986 35.6178 26.1363 35.485 26.1937 35.7867ZM25.6196 37.1863C25.8493 37.3311 25.7919 37.6086 25.5048 37.7172C25.256 37.5724 25.0264 37.4155 24.7776 37.2708C24.9307 37.0898 25.39 37.0536 25.6196 37.1984V37.1863ZM24.2418 23.1902C23.8973 23.4315 23.4763 23.6124 23.0361 23.7934C22.8256 23.8779 22.5768 23.9503 22.3472 23.9503C22.2132 23.9503 22.0793 23.9262 21.9836 23.8538C21.7157 23.6486 22.0219 23.347 22.3281 23.166C23.2466 22.611 24.1652 22.0439 25.0838 21.4889C25.2177 22.1042 24.8924 22.7437 24.2418 23.1902ZM23.0935 18.1347C23.2849 18.1347 23.304 18.388 23.0935 18.4001C22.883 18.4001 22.883 18.1467 23.0935 18.1347ZM18.3285 10.0748C20.0699 11.6313 21.7922 13.1998 23.5337 14.7563C23.7059 14.9011 23.8782 15.07 23.8782 15.251C23.8782 15.4561 23.7059 15.6371 23.5337 15.806C22.7108 16.5541 21.754 17.2177 20.644 17.7968C20.089 17.64 19.9742 17.1815 19.9168 16.7954C19.6681 15.0458 19.1131 13.3084 18.2711 11.6313C18.0031 11.1124 17.7544 10.485 18.3285 10.0869V10.0748ZM15.4962 9.00096C15.5345 8.71139 15.7258 8.42181 15.5345 8.15637H15.5536C15.611 7.90299 15.3622 7.63755 14.9986 7.54102C15.2857 7.23938 16.0512 7.54102 16.2425 7.8668C16.4339 8.20463 16.5105 8.639 17.0463 8.75965C16.5487 8.80791 16.721 9.38706 16.2617 9.53185C16.2043 9.55598 16.1469 9.55598 16.0895 9.55598C15.745 9.55598 15.477 9.25434 15.4962 9.01303V9.00096ZM18.2328 46.2717C18.0223 46.2717 18.0223 46.0183 18.2328 46.0063C18.4433 46.0063 18.4433 46.2596 18.2328 46.2717ZM18.1945 19.0034C17.7926 18.4846 17.8883 17.8451 18.405 17.3624C17.7926 16.9643 17.6013 16.3851 17.4482 15.8422C17.1994 14.9614 16.9506 14.0927 16.7018 13.2119C16.5105 12.5603 16.3382 11.9088 16.1469 11.2572C16.0895 11.028 16.1851 10.666 16.5679 10.7143C16.7975 10.7384 16.8741 10.9194 16.9123 11.0642C17.3716 12.7654 17.85 14.4546 18.3093 16.1438C18.3859 16.4455 18.8834 16.6264 19.1896 16.8678C19.4958 17.1091 19.4575 17.6038 18.96 17.5917C19.4001 17.7244 19.4767 18.1226 19.247 18.388C19.0174 18.6535 18.5964 18.8224 18.1945 18.9913V19.0034Z" fill="#FFE093"/>
</symbol>


</svg>
