<svg width="30" height="30" viewBox="0 0 30 30" fill="none" xmlns="http://www.w3.org/2000/svg">
<g clip-path="url(#clip0_1_250)">
<path d="M14.9825 5.78624V5.77405L10.6891 7.96874L14.9825 5.78624Z" fill="#4189DD"/>
<path d="M0 11.25V12.39L2.19401 11.25H0ZM25.2831 4.6875H14.9826V6.89719L12.8223 7.96875H14.9826V11.25H12.8223L14.9826 12.3727V14.5312H14.8927L8.89591 11.5552V14.5312H6.08667V11.5552L0.10956 14.5312H0V20.1562C0 23.0039 1.57926 25.3125 4.68206 25.3125H25.2831C28.3859 25.3125 29.9652 23.0039 29.9652 20.1562V9.84375C29.9652 6.99609 28.3859 4.6875 25.2831 4.6875ZM0.567465 7.1625C0.442443 7.42216 0.339389 7.69185 0.259386 7.96875H2.19401L0.567465 7.1625Z" fill="#2B3990"/>
<path d="M14.9825 4.69219V4.6875H8.89585V7.82766L14.9825 4.69219ZM6.08662 7.82766V4.6875H4.682C3.4553 4.6875 2.47066 5.05219 1.72388 5.66484L6.08662 7.82766Z" fill="#2B3990"/>
<path d="M14.9826 8.4375V7.96875H12.8223L14.9826 6.89719V5.78625L10.6891 7.96875H9.26672L14.9826 5.04703V4.69219L8.89591 7.82766V4.6875H8.4277V8.4375H14.9826ZM8.4277 14.5312H8.89591V11.5552L14.8927 14.5312H14.9826V13.4625L10.6891 11.25H12.112L14.9826 12.7359V12.3727L12.8223 11.25H14.9826V10.7812H8.4277V14.5312ZM6.08667 11.5552V14.5312H6.55488V10.7812H0V11.25H2.19401L0 12.39V13.4672L4.32716 11.25H5.7505L0 14.1938V14.5312H0.10956L6.08667 11.5552ZM1.72393 5.66719C1.47766 5.86922 1.25807 6.09844 1.06423 6.35109L4.32716 7.97109H2.90428L0.706054 6.89203C0.657171 6.98158 0.610955 7.07255 0.567465 7.16484L2.19401 7.97109H0.259386C0.214438 8.12391 0.175577 8.28016 0.142803 8.43984H6.55488V4.68984H6.08667V7.83L1.72393 5.66719Z" fill="white"/>
<path d="M6.55488 14.5312H8.4277V10.7812H14.9826V8.59359L8.4277 8.90625V4.6875H6.55488V8.90625L0.106751 8.62922C0.0361089 9.0302 0.000391015 9.43658 0 9.84375L0 10.7812H6.55488V14.5312Z" fill="#FF0000"/>
<path d="M8.42776 8.90622L14.9826 8.59356V8.43747H8.42776V8.90622ZM0.106812 8.62918L6.55494 8.90622V8.43747H0.142863C0.129754 8.50059 0.117736 8.5645 0.106812 8.62918ZM4.32722 7.96872L1.06101 6.35247C0.930392 6.52316 0.811655 6.70264 0.705646 6.88965L2.90434 7.96872H4.32722ZM1.06382 6.34872L1.06101 6.35247L4.32722 7.96872L1.06382 6.34872ZM10.6892 7.96872L14.9826 5.77403V5.047L9.26678 7.96872H10.6892ZM10.6892 11.25L14.9826 13.4447V12.7359L12.1121 11.25H10.6892Z" fill="#FF0000"/>
<path d="M14.9826 13.4625V13.4447L10.6891 11.25L14.9826 13.4625ZM4.32716 11.25L0 13.478V14.1938L5.7505 11.25H4.32716Z" fill="#FF0000"/>
<path d="M0 13.4672V13.478L4.32716 11.25L0 13.4672ZM23.1621 10.0688L22.4692 10.0697L22.2604 9.3844L22.0525 10.0697L21.3581 10.0688L21.9209 10.4958L21.706 11.1816L22.2613 10.7555L22.8152 11.1816L22.6003 10.4958L23.1621 10.0688Z" fill="#FF0000"/>
<path d="M23.5274 9.94683L22.5605 9.94823L22.2599 8.96948L21.9622 9.94823L20.9944 9.94683L21.7786 10.544L21.4752 11.5167L22.2623 10.9129L23.0498 11.5167L22.7459 10.544L23.5274 9.94683ZM22.2618 10.7573L21.707 11.1829L21.9214 10.4971L21.3586 10.0706L22.0521 10.0715L22.2604 9.38854L22.4692 10.0715L23.1622 10.0706L22.6022 10.4971L22.8152 11.1829L22.2618 10.7573Z" fill="white"/>
<path d="M23.289 19.7484H22.4973L22.2604 18.9717L22.0197 19.7484H21.2332L21.8732 20.2359L21.6311 21.0192L22.2613 20.5331L22.8934 21.0192L22.6518 20.2359L23.289 19.7484Z" fill="#FF0000"/>
<path d="M23.7057 19.6078L22.6026 19.6102L22.2598 18.4927L21.9195 19.6102L20.8154 19.6078L21.7102 20.2889L21.3646 21.3994L22.2617 20.7094L23.1602 21.3994L22.8137 20.2889L23.7057 19.6078ZM22.2612 20.5331L21.6287 21.0192L21.8726 20.236L21.2312 19.7499L22.0215 19.7508L22.2598 18.9717L22.4982 19.7508L23.2885 19.7499L22.6499 20.236L22.8933 21.0192L22.2612 20.5331Z" fill="white"/>
<path d="M26.7486 13.3585L26.0562 13.3594L25.8497 12.675L25.6395 13.3594L24.946 13.3585L25.5079 13.7846L25.2925 14.4708L25.8497 14.0452L26.4022 14.4708L26.1901 13.7846L26.7486 13.3585Z" fill="#FF0000"/>
<path d="M27.1143 13.2329L26.1474 13.2352L25.8468 12.256L25.5491 13.2352L24.5808 13.2329L25.3651 13.8305L25.0621 14.8032L25.8487 14.1994L26.6362 14.8032L26.3328 13.8305L27.1143 13.2329ZM25.8482 14.0443L25.2939 14.4699L25.5079 13.7836L24.9455 13.3575L25.639 13.3585L25.8473 12.6755L26.0557 13.3585L26.7486 13.3575L26.1891 13.7836L26.4021 14.4699L25.8482 14.0443Z" fill="white"/>
<path d="M19.6516 13.4021L18.9581 13.403L18.7517 12.7219L18.5414 13.403L17.848 13.4021L18.4099 13.8277L18.1964 14.5149L18.7517 14.0907L19.3041 14.5149L19.0916 13.8277L19.6516 13.4021Z" fill="#FF0000"/>
<path d="M20.0162 13.2773L19.0494 13.2796L18.7483 12.3004L18.451 13.2796L17.4828 13.2773L18.267 13.8749L17.9641 14.8476L18.7512 14.2439L19.5382 14.8476L19.2348 13.8749L20.0162 13.2773ZM18.7507 14.0892L18.1963 14.5148L18.4103 13.8276L17.8475 13.402L18.5409 13.4029L18.7493 12.7204L18.9576 13.4029L19.6506 13.402L19.0911 13.8276L19.3041 14.5148L18.7507 14.0892Z" fill="white"/>
</g>
<defs>
<clipPath id="clip0_1_250">
<rect width="29.9652" height="30" fill="white"/>
</clipPath>
</defs>
</svg>
