<svg width="30" height="30" viewBox="0 0 30 30" fill="none" xmlns="http://www.w3.org/2000/svg">
<g clip-path="url(#clip0_1_427)">
<path d="M0 11.7188H30V18.2812H0V11.7188Z" fill="#EC1C24"/>
<path d="M0 10.3125H30V11.7188H0V10.3125ZM0 18.2812H30V19.6875H0V18.2812Z" fill="#E6E7E8"/>
<path d="M25.3125 4.6875H4.6875C1.58109 4.6875 0 6.99609 0 9.84375V10.3125H30V9.84375C30 6.99609 28.4189 4.6875 25.3125 4.6875Z" fill="#25333A"/>
<path d="M0 20.1562C0 23.0039 1.58109 25.3125 4.6875 25.3125H25.3125C28.4189 25.3125 30 23.0039 30 20.1562V19.6875H0V20.1562Z" fill="#137A08"/>
<path d="M10.7043 22.4002L18.0684 10.0449C18.1217 9.47705 18.3123 8.93071 18.6239 8.453C19.0083 7.86378 19.5525 7.42503 20.189 7.14331C20.1853 7.84034 19.9992 8.513 19.6134 9.10269C19.3269 9.53931 18.9462 9.90612 18.4992 10.1761L11.0808 22.6238L10.7043 22.4002Z" fill="white"/>
<path d="M20.189 22.4002L12.8254 10.0449C12.7721 9.47705 12.5815 8.93071 12.27 8.453C11.8847 7.86378 11.3414 7.42503 10.7043 7.14331C10.7086 7.84034 10.8918 8.513 11.2795 9.10269C11.5667 9.53885 11.9475 9.90554 12.3942 10.1761L19.8112 22.6242L20.189 22.4002Z" fill="white"/>
<path d="M15.4467 8.42944C13.5529 9.52257 12.2339 11.9999 12.2339 14.8827C12.2339 17.7655 13.5553 20.2415 15.4467 21.3379C17.3358 20.241 18.6595 17.7655 18.6595 14.8827C18.6595 12.0004 17.3381 9.52257 15.4467 8.42944Z" fill="#D9271E"/>
<path d="M12.8264 18.1008C13.2071 17.1361 13.4203 16.0416 13.4203 14.8828C13.4203 13.7231 13.2071 12.63 12.8264 11.6658C12.4491 12.6305 12.2335 13.7236 12.2335 14.8828C12.2339 16.042 12.4496 17.1366 12.8264 18.1008ZM18.0671 18.1008C18.4444 17.1361 18.6596 16.0416 18.6596 14.8828C18.6596 13.7231 18.4444 12.63 18.0671 11.6658C17.6864 12.6305 17.4731 13.7236 17.4731 14.8828C17.4731 16.042 17.6864 17.1366 18.0671 18.1008Z" fill="#25333A"/>
<path d="M15.4467 15.9506C15.9443 15.9506 16.3477 15.4725 16.3477 14.8828C16.3477 14.293 15.9443 13.8149 15.4467 13.8149C14.9491 13.8149 14.5458 14.293 14.5458 14.8828C14.5458 15.4725 14.9491 15.9506 15.4467 15.9506Z" fill="white"/>
<path d="M15.2292 16.3318C14.8242 16.9275 14.5673 17.7736 14.5673 18.7144C14.5673 19.6566 14.8242 20.5013 15.2292 21.0966V16.3318ZM15.6328 21.0985C16.0378 20.5027 16.2933 19.6566 16.2933 18.7163C16.2933 17.7741 16.0378 16.929 15.6328 16.3336V21.0985ZM15.2447 8.70239C14.8378 9.29771 14.5842 10.1443 14.5842 11.0822C14.5842 12.0244 14.8378 12.8715 15.2447 13.4672V8.70239ZM15.6487 13.4672C16.0556 12.87 16.3092 12.023 16.3092 11.0822C16.3092 10.1447 16.0556 9.29724 15.6487 8.70239V13.4672Z" fill="white"/>
</g>
<defs>
<clipPath id="clip0_1_427">
<rect width="30" height="30" fill="white"/>
</clipPath>
</defs>
</svg>
